<?xml version="1.0" encoding="UTF-8" standalone="no"?>
<svg
   xmlns:osb="http://www.openswatchbook.org/uri/2009/osb"
   xmlns:dc="http://purl.org/dc/elements/1.1/"
   xmlns:cc="http://creativecommons.org/ns#"
   xmlns:rdf="http://www.w3.org/1999/02/22-rdf-syntax-ns#"
   xmlns:svg="http://www.w3.org/2000/svg"
   xmlns="http://www.w3.org/2000/svg"
   xmlns:xlink="http://www.w3.org/1999/xlink"
   xmlns:sodipodi="http://sodipodi.sourceforge.net/DTD/sodipodi-0.dtd"
   xmlns:inkscape="http://www.inkscape.org/namespaces/inkscape"
   version="1.1"
   id="Calque_1"
   x="0px"
   y="0px"
   viewBox="0 0 1280 748"
   enable-background="new 0 0 1280 748"
   xml:space="preserve"
   inkscape:version="0.91 r13725"
   sodipodi:docname="scene.svg"><metadata
     id="metadata112"><rdf:RDF><cc:Work
         rdf:about=""><dc:format>image/svg+xml</dc:format><dc:type
           rdf:resource="http://purl.org/dc/dcmitype/StillImage" /></cc:Work></rdf:RDF></metadata><sodipodi:namedview
     pagecolor="#ffffff"
     bordercolor="#666666"
     borderopacity="1"
     objecttolerance="10"
     gridtolerance="10"
     guidetolerance="10"
     inkscape:pageopacity="0"
     inkscape:pageshadow="2"
     inkscape:window-width="2048"
     inkscape:window-height="1088"
     id="namedview110"
     showgrid="false"
     inkscape:zoom="1.190625"
     inkscape:cx="560.19175"
     inkscape:cy="325.24569"
     inkscape:window-x="0"
     inkscape:window-y="1107"
     inkscape:window-maximized="1"
     inkscape:current-layer="ordi_x5F_rose" /><title
     id="title3">Site de Maylanie Mesnier</title><defs
     id="defs5"><linearGradient
       id="linearGradient5659"
       osb:paint="solid"><stop
         style="stop-color:#b97300;stop-opacity:1;"
         offset="0"
         id="stop5661" /></linearGradient><g
       id="leftarrow"><line
         stroke-linecap="round"
         transform="rotate(30,0,0)"
         x1="0"
         y1="0"
         x2="20"
         y2="0"
         style="stroke:#5c5299;stroke-width:7"
         id="line8" /><line
         stroke-linecap="round"
         transform="rotate(-30,0,0)"
         x1="0"
         y1="0"
         x2="20"
         y2="0"
         style="stroke:#5c5299;stroke-width:7"
         id="line10" /></g><!-- right arrow --><use
       id="rightarrow"
       transform="rotate(180,200,100)"
       x="0"
       y="0"
       xlink:href="#leftarrow" /></defs><g
     id="Tableau"
     transform="matrix(0.88802653,0,0.00496185,1.0799817,-88.189466,-93.683669)"><rect
       id="Tableau_1_"
       x="150"
       y="190"
       stroke-miterlimit="10"
       width="500"
       height="240.951"
       style="opacity:1;fill:#c87e00;fill-opacity:1;stroke:#666666;stroke-width:4;stroke-miterlimit:10" /><g
       id="feutre" /><g
       id="texte" /></g><g
     id="Bureau"
     transform="matrix(1.1189141,0,0,1,-129.72272,0)"><polygon
       id="bureau"
       points="144.447,699.62 144.447,728.209 227.261,728.209 227.261,754.828 255.852,754.828 255.852,728.209 951.884,728.209 951.884,754.828 980.474,754.828 980.474,728.209 1090.894,728.209 1090.894,699.62 "
       style="fill:#5096d1" /><rect
       x="223.63699"
       y="726.01001"
       width="36.159"
       height="47.323002"
       id="rect28"
       style="fill:#5096d1" /><rect
       x="951.69202"
       y="726.01001"
       width="36.155998"
       height="47.323002"
       id="rect30"
       style="fill:#5096d1" /></g><g
     id="Ordinateur"
     transform="matrix(1.0860931,0,0,0.95058552,-89.08851,146.41874)"><g
       id="ordi_x5F_rose"
       transform="matrix(1.2648871,0,0,1.3120041,-124.87886,-155.44128)"><path
         id="rect4287"
         d="m 381.461,552.018 140.174,0 c 2.437,0 4.411,1.976 4.411,4.411 l 0,1.278 c 0,2.438 -1.976,4.412 -4.411,4.412 l -140.174,0 c -2.438,0 -4.412,-1.977 -4.412,-4.412 l 0,-1.278 c 0.001,-2.437 1.976,-4.411 4.412,-4.411 z"
         inkscape:connector-curvature="0"
         style="fill:#ffaaaa" /><path
         id="rect4283"
         d="m 404.17,519.819 94.756,0 c 2.426,0 4.393,1.96 4.393,4.378 l 0,30.387 c 0,2.418 -1.967,4.379 -4.393,4.379 l -94.756,0 c -2.427,0 -4.393,-1.961 -4.393,-4.379 l 0,-30.387 c 0.001,-2.418 1.967,-4.378 4.393,-4.378 z"
         inkscape:connector-curvature="0"
         style="fill:#ffaaaa" /><path
         id="rect4254"
         d="m 305.699,497.722 276.545,0 c 2.438,0 4.411,1.977 4.411,4.411 l 0,32.846 c 0,2.438 -1.975,4.412 -4.411,4.412 l -276.545,0 c -2.437,0 -4.412,-1.976 -4.412,-4.412 l 0,-32.846 c 0.001,-2.435 1.977,-4.411 4.412,-4.411 z"
         inkscape:connector-curvature="0"
         style="fill:#ffaaaa" /><path
         d="m 582.244,354.84 -276.544,0 c -2.436,0 -4.411,1.99339 -4.412,4.45133 l 0,4.73392 0,130.12136 0,26.47215 285.368,0 0,-26.47215 0,-130.12136 0,-4.73392 c 0,-2.45794 -1.975,-4.45133 -4.412,-4.45133 z"
         id="path37"
         inkscape:connector-curvature="0"
         style="fill:#2b0000" /></g><g
       id="contenu_ecran"
       transform="matrix(1,0,0,1.0631381,-0.83989588,-174.06745)"><image
         xlink:href="/img/svg/diapo/web.svg"
         id="ecran_diapo_0"
         x="271.05899"
         y="468.901"
         height="172.23796"
         width="331.97739" /><g
         class="nav"
         id="g42"><use
           id="ecranGauche"
           x="290"
           y="490"
           xlink:href="#leftarrow"
           width="100%"
           height="100%" /><use
           id="ecranDroite"
           x="183"
           y="290"
           xlink:href="#rightarrow"
           width="100%"
           height="100%" /></g></g></g><g
     id="portable"
     transform="matrix(1.0370691,0,0,1.0394276,-39.062408,-26.343823)"><g
       id="portable_x5F_neuf"
       transform="matrix(0.97606227,0,0,0.88639502,150.82651,200.67833)"><path
         id="rect4765"
         d="m 605.05503,384.04054 232.88697,0 c 6.35128,0 11.49999,4.42768 11.49999,9.89109 l 0,157.01172 c 0,5.46052 -5.14871,9.89013 -11.49999,9.89013 l -232.88697,0 c -6.35127,0 -11.49999,-4.42865 -11.49999,-9.89013 l 0,-157.01076 c -10e-4,-5.46437 5.1476,-9.89205 11.49999,-9.89205 z"
         inkscape:connector-curvature="0" /><g
         id="base_1_"
         transform="matrix(1.0670498,0,0,1,-57.820562,0)"><g
           id="g5666"
           transform="matrix(1,0,0,0.48856635,0,287.10811)"><path
             style="fill:#e3e2db"
             inkscape:connector-curvature="0"
             d="m 862.352,542.161 c 0,10.676 -14.675,19.218 -32.778,19.218 l -197.499,0 c -18.104,0 -32.778,-8.542 -32.778,-19.218 l 263.055,0 z"
             id="base_x5F_portable" /><path
             style="fill:#bab9b6"
             inkscape:connector-curvature="0"
             d="m 750.114,542.299 c 0,4.273 -2.159,5.341 -4.824,5.341 l -29.063,0 c -2.658,0 -4.822,-1.067 -4.822,-5.341 l 38.709,0 z"
             id="bouton" /></g></g></g><g
       id="contenu_portable"
       transform="matrix(0.92458596,0,0,0.9143214,111.27497,64.673224)"><image
         xlink:href="/img/cotesud.png"
         id="ordi_portable_diapo_0"
         x="679.28137"
         y="525.43146"
         height="139.15605"
         width="249.94725" /><rect
         id="zone_clicable"
         x="714.28137"
         y="525.43146"
         height="139.15605"
         width="179.94725" /><g
         class="nav"
         id="g56"><use
           id="ordiGauche"
           x="690"
           y="545"
           xlink:href="#leftarrow"
           width="100%"
           height="100%" /><use
           id="ordiDroite"
           x="521"
           y="345"
           xlink:href="#rightarrow"
           width="100%"
           height="100%" /></g></g></g><g
     id="Ours1"
     transform="translate(-102,0)"><path
       id="bras_arriere_1_"
       d="m 203.451,661.534 c 0,0 -3.273,-4.657 -6.825,-5.433 0,0 -8.355,-2.921 -9.509,6.3 0,0 3.488,7.425 6.18,12.092 0,0 5.387,9.329 9.596,10.919 0,0 9.981,3.818 13.7,-0.384 0,0 5.97,-5.931 4.232,-10.796 0,0 -4.995,-5.675 -9.715,-7.185 -4.431,-1.415 -7.659,-5.513 -7.659,-5.513 z"
       inkscape:connector-curvature="0"
       style="fill:#cc7452" /><g
       id="pied_arriere"><path
         id="jambe_1_"
         d="m 194.498,679.222 c 0,0 5.74,1.634 7.356,3.722 1.616,2.091 11.256,0.112 11.256,0.112 0,0 12.144,-12.402 16.753,0.079 4.609,12.481 2.458,14.946 0.772,18.289 0,0 -5.932,9.497 -21.56,1.524 0,0 -11.75,-9.111 -13.956,-11.313 0,0 -9.438,-4.719 -6.471,-11.064 0.003,-0.002 2.876,-2.383 5.85,-1.349 z"
         inkscape:connector-curvature="0"
         style="fill:#bf6b51" /><ellipse
         id="pied_1_"
         transform="matrix(-0.1676,0.9859,-0.9859,-0.1676,943.825,588.1558)"
         cx="223.61"
         cy="692.53302"
         rx="13.197"
         ry="8.2659998"
         style="fill:#efa884" /></g><path
       id="corps_1_"
       d="m 200.833,658.282 c 0,0 1.2,1.681 1.921,4.561 0.718,2.879 0.477,3.84 1.917,7.679 1.44,3.841 3.12,6.479 3.599,9.358 0.48,2.879 0.96,6 0,10.799 -0.96,4.799 -3.12,6.716 -5.76,8.398 -2.639,1.681 -22.796,3.119 -23.993,3.84 0,0 -9.599,0.479 -13.676,0 0,0 -6.481,1.414 -10.08,-22.209 0,0 -1.2,-14.024 8.157,-22.421 l 21.357,-10.317 16.558,10.312 z"
       inkscape:connector-curvature="0"
       style="fill:#dd8158" /><g
       id="tete"><path
         id="oreille_2_"
         d="m 200.352,636.449 c 0,0 6.868,-1.439 8.475,-8.158 0,0 1.125,-11.038 -8.475,-11.998 0,0 -7.917,-0.241 -6.958,10.079 0.001,-10e-4 0.001,6.717 6.958,10.077 z"
         inkscape:connector-curvature="0"
         style="fill:#cc7452" /><path
         d="m 197.473,627.57 c 0,0 0.242,-2.878 3.6,-4.078 0,0 4.559,0.72 2.639,5.756 0,0 -3.119,2.881 -4.559,3.599 l -1.68,-5.277 z"
         id="path68"
         inkscape:connector-curvature="0"
         style="fill:#ffbdff" /><path
         id="tete_2_"
         d="m 178.998,663.804 c 0,0 -15.596,-4.318 -18.956,-8.159 0,0 -9.837,-22.795 7.918,-34.312 0,0 16.556,-8.639 25.914,1.681 0,0 12.957,13.195 9.597,29.273 0.002,-0.002 -1.198,14.154 -24.473,11.517 z"
         inkscape:connector-curvature="0"
         style="fill:#dd8158" /><path
         d="m 159.395,640.612 c 0,0 -17.449,-5.123 -7.416,-17.525 0,0 9.678,-8.039 16.44,0.782 -0.001,0.002 -6.636,3.15 -9.024,16.743 z"
         id="path71"
         inkscape:connector-curvature="0"
         style="fill:#dd8158" /><path
         d="m 164.602,629.011 c 0,0 -3.12,7.68 -4.8,6.238 0,0 -6.719,-2.401 -1.44,-9.117 0.001,0 6.24,-3.6 6.24,2.879 z"
         id="path73"
         inkscape:connector-curvature="0"
         style="fill:#ffbdff" /><path
         id="museau_1_"
         d="m 177.646,652.421 c 0,0 -4.11,7.767 7.397,11.782 0,0 3.29,3.214 14.25,-3.481 0,0 7.71,-5.356 3.307,-10.442 0,0 -4.804,-5.861 -15.089,-2.945 0.001,-0.003 -7.123,1.87 -9.865,5.086 z"
         inkscape:connector-curvature="0"
         style="fill:#efa884" /><ellipse
         transform="matrix(-0.0682,0.9977,-0.9977,-0.0682,838.1749,504.771)"
         cx="183.373"
         cy="643.78998"
         rx="3.188"
         ry="1.768"
         id="ellipse76"
         style="fill:#160b04" /><ellipse
         cx="197.955"
         cy="643.77197"
         rx="1.439"
         ry="2.753"
         id="ellipse78"
         style="fill:#160b04" /><path
         d="m 193.636,653.005 -4.559,-3.119 c 0,0 3.719,-6.114 7.439,0.278 l -2.88,2.841 z"
         id="path80"
         inkscape:connector-curvature="0"
         style="fill:#160b04" /></g><g
       id="pied_devant"><path
         id="jambe"
         d="m 170.599,694.039 c 0,0 5.229,2.877 6.335,5.277 1.105,2.398 10.944,2.64 10.944,2.64 0,0 14.617,-9.358 16.307,3.84 1.688,13.197 -0.96,15.116 -3.355,17.996 0,0 -7.915,7.919 -21.352,-3.361 0,0 -9.401,-11.518 -11.059,-14.153 0,0 -8.136,-6.72 -3.816,-12.236 -0.001,-0.003 3.335,-1.681 5.996,-0.003 z"
         inkscape:connector-curvature="0"
         style="fill:#dd8158" /><ellipse
         id="pied"
         transform="matrix(-0.138,0.9904,-0.9904,-0.138,929.774,616.6427)"
         cx="196.549"
         cy="712.92102"
         rx="13.195"
         ry="8.2650003"
         style="fill:#efa884" /></g><path
       id="bras_devant_1_"
       d="m 173.784,679.852 c 0,0 2,-5.968 0.28,-9.692 0,0 -3.046,-9.472 -12.22,-4.602 0,0 -4.373,7.938 -6.777,13.382 0,0 -4.807,10.889 -3.379,15.734 0,0 3.341,11.526 9.704,12.207 0,0 9.465,1.625 12.705,-3.079 0,0 1.75,-8.185 -0.1,-13.444 -1.736,-4.938 -0.213,-10.506 -0.213,-10.506 z"
       inkscape:connector-curvature="0"
       style="fill:#cc7452" /></g><g
     id="g5671"
     transform="translate(100,16)"><rect
       height="28.591999"
       width="290.836"
       y="397.93799"
       x="727.10303"
       id="Etagère"
       style="fill:#5096d1" /><g
       id="Imprimante"><g
         id="base_2_"><path
           id="path88"
           d="m 995.56,363.636 c 0,7.498 -8.99,14.107 -20.084,14.107 l -202.363,0 c -11.094,0 -20.376,-6.609 -20.376,-14.107 l 0,-51.926 c 0,-7.496 9.283,-13.388 20.376,-13.388 l 202.36,0 c 11.092,0 20.084,5.891 20.084,13.388 l 0,51.926 0.003,0 z"
           inkscape:connector-curvature="0"
           style="fill:#646d65" /><ellipse
           id="ellipse90"
           ry="3.52"
           rx="3.2850001"
           cy="323.32001"
           cx="979.68201"
           style="fill:#00cfff" /><ellipse
           id="ellipse92"
           ry="3.5209999"
           rx="3.2869999"
           cy="333.61099"
           cx="979.13202"
           style="fill:#ff0037" /><ellipse
           id="ellipse94"
           ry="3.52"
           rx="3.2839999"
           cy="323.32001"
           cx="970.92102"
           style="fill:#00ff12" /><rect
           id="rect96"
           height="46.084"
           width="242.82001"
           y="352.25"
           x="752.73602"
           style="fill:#313a32" /></g><g
         id="feuille_1_"><animateTransform
           attributeType="XML"
           end="Imprimante.mouseleave"
           calcMode="linear"
           additive="replace"
           restart="always"
           accumulate="none"
           repeatCount="1"
           attributeName="transform"
           from="-0,0"
           to="0,70"
           begin="Imprimante.mouseenter"
           dur="2s"
           fill="remove"
           type="translate" /><rect
           height="151"
           width="121.906"
           y="226.744"
           x="814.185"
           id="feuille"
           style="fill:#ffffff" /><text
           id="text100"
           transform="translate(820.667,345)">Télécharger</text>
<text
           id="text102"
           transform="translate(820.667,360)">mon CV</text>
</g><g
         id="devant"><path
           d="m 948.975,344.368 c 0,4.621 -6.527,7.882 -13.29,7.882 l -123.334,0 c -6.762,0 -12.041,-3.26 -12.041,-7.882 l 0,-32.011 c 0,-4.622 5.279,-8.153 12.041,-8.153 l 123.334,0 c 6.763,0 13.29,3.532 13.29,8.153 l 0,32.011 z"
           id="cache_haut"
           inkscape:connector-curvature="0"
           style="fill:#646d65" /><rect
           height="34.317001"
           width="242.82001"
           y="351.26999"
           x="752.73602"
           id="cache_bas"
           style="fill:#313a32" /><rect
           height="18.629"
           width="35.681"
           y="317.93201"
           x="855.81201"
           id="vitre"
           style="fill:#92ead9" /></g></g></g></svg>