<?xml version="1.0" encoding="UTF-8" standalone="no"?>
<!-- Created with Inkscape (http://www.inkscape.org/) -->

<svg
   xmlns:dc="http://purl.org/dc/elements/1.1/"
   xmlns:cc="http://creativecommons.org/ns#"
   xmlns:rdf="http://www.w3.org/1999/02/22-rdf-syntax-ns#"
   xmlns:svg="http://www.w3.org/2000/svg"
   xmlns="http://www.w3.org/2000/svg"
   xmlns:sodipodi="http://sodipodi.sourceforge.net/DTD/sodipodi-0.dtd"
   xmlns:inkscape="http://www.inkscape.org/namespaces/inkscape"
   width="83.76825"
   height="110.20068"
   id="svg3241"
   version="1.1"
   inkscape:version="0.48.4 r9939"
   sodipodi:docname="Nouveau document 8">
  <defs
     id="defs3243" />
  <sodipodi:namedview
     id="base"
     pagecolor="#ffffff"
     bordercolor="#666666"
     borderopacity="1.0"
     inkscape:pageopacity="0.0"
     inkscape:pageshadow="2"
     inkscape:zoom="0.35"
     inkscape:cx="897.59841"
     inkscape:cy="55.100341"
     inkscape:document-units="px"
     inkscape:current-layer="layer1"
     showgrid="false"
     fit-margin-top="0"
     fit-margin-left="0"
     fit-margin-right="0"
     fit-margin-bottom="0"
     inkscape:window-width="999"
     inkscape:window-height="432"
     inkscape:window-x="1920"
     inkscape:window-y="589"
     inkscape:window-maximized="0" />
  <metadata
     id="metadata3246">
    <rdf:RDF>
      <cc:Work
         rdf:about="">
        <dc:format>image/svg+xml</dc:format>
        <dc:type
           rdf:resource="http://purl.org/dc/dcmitype/StillImage" />
        <dc:title></dc:title>
      </cc:Work>
    </rdf:RDF>
  </metadata>
  <g
     inkscape:label="Calque 1"
     inkscape:groupmode="layer"
     id="layer1"
     transform="translate(-333.11588,-477.26185)">
    <g
       transform="translate(184.24727,-139.03067)"
       id="Ours1">
      <path
         style="fill:#cc7452"
         inkscape:connector-curvature="0"
         id="bras_arriere_1_"
         d="m 203.451,661.534 c 0,0 -3.273,-4.657 -6.825,-5.433 0,0 -8.355,-2.921 -9.509,6.3 0,0 3.488,7.425 6.18,12.092 0,0 5.387,9.329 9.596,10.919 0,0 9.981,3.818 13.7,-0.384 0,0 5.97,-5.931 4.232,-10.796 0,0 -4.995,-5.675 -9.715,-7.185 -4.431,-1.415 -7.659,-5.513 -7.659,-5.513 z" />
      <g
         id="pied_arriere">
        <path
           style="fill:#bf6b51"
           inkscape:connector-curvature="0"
           id="jambe_1_"
           d="m 194.498,679.222 c 0,0 5.74,1.634 7.356,3.722 1.616,2.091 11.256,0.112 11.256,0.112 0,0 12.144,-12.402 16.753,0.079 4.609,12.481 2.458,14.946 0.772,18.289 0,0 -5.932,9.497 -21.56,1.524 0,0 -11.75,-9.111 -13.956,-11.313 0,0 -9.438,-4.719 -6.471,-11.064 0.003,-0.002 2.876,-2.383 5.85,-1.349 z" />
        <ellipse
           d="m 236.807,692.53302 c 0,4.56519 -5.9085,8.266 -13.197,8.266 -7.2885,0 -13.197,-3.70081 -13.197,-8.266 0,-4.56519 5.9085,-8.266 13.197,-8.266 7.2885,0 13.197,3.70081 13.197,8.266 z"
           style="fill:#efa884"
           sodipodi:ry="8.2659998"
           sodipodi:rx="13.197"
           sodipodi:cy="692.53302"
           sodipodi:cx="223.61"
           id="pied_1_"
           transform="matrix(-0.1676,0.9859,-0.9859,-0.1676,943.825,588.1558)"
           cx="223.61"
           cy="692.53302"
           rx="13.197"
           ry="8.2659998" />
      </g>
      <path
         style="fill:#dd8158"
         inkscape:connector-curvature="0"
         id="corps_1_"
         d="m 200.833,658.282 c 0,0 1.2,1.681 1.921,4.561 0.718,2.879 0.477,3.84 1.917,7.679 1.44,3.841 3.12,6.479 3.599,9.358 0.48,2.879 0.96,6 0,10.799 -0.96,4.799 -3.12,6.716 -5.76,8.398 -2.639,1.681 -22.796,3.119 -23.993,3.84 0,0 -9.599,0.479 -13.676,0 0,0 -6.481,1.414 -10.08,-22.209 0,0 -1.2,-14.024 8.157,-22.421 l 21.357,-10.317 16.558,10.312 z" />
      <g
         id="tete">
        <path
           style="fill:#cc7452"
           inkscape:connector-curvature="0"
           id="oreille_2_"
           d="m 200.352,636.449 c 0,0 6.868,-1.439 8.475,-8.158 0,0 1.125,-11.038 -8.475,-11.998 0,0 -7.917,-0.241 -6.958,10.079 0.001,-10e-4 0.001,6.717 6.958,10.077 z" />
        <path
           style="fill:#ffbdff"
           inkscape:connector-curvature="0"
           d="m 197.473,627.57 c 0,0 0.242,-2.878 3.6,-4.078 0,0 4.559,0.72 2.639,5.756 0,0 -3.119,2.881 -4.559,3.599 l -1.68,-5.277 z"
           id="path68" />
        <path
           style="fill:#dd8158"
           inkscape:connector-curvature="0"
           id="tete_2_"
           d="m 178.998,663.804 c 0,0 -15.596,-4.318 -18.956,-8.159 0,0 -9.837,-22.795 7.918,-34.312 0,0 16.556,-8.639 25.914,1.681 0,0 12.957,13.195 9.597,29.273 0.002,-0.002 -1.198,14.154 -24.473,11.517 z" />
        <path
           style="fill:#dd8158"
           inkscape:connector-curvature="0"
           d="m 159.395,640.612 c 0,0 -17.449,-5.123 -7.416,-17.525 0,0 9.678,-8.039 16.44,0.782 -0.001,0.002 -6.636,3.15 -9.024,16.743 z"
           id="path71" />
        <path
           style="fill:#ffbdff"
           inkscape:connector-curvature="0"
           d="m 164.602,629.011 c 0,0 -3.12,7.68 -4.8,6.238 0,0 -6.719,-2.401 -1.44,-9.117 0.001,0 6.24,-3.6 6.24,2.879 z"
           id="path73" />
        <path
           style="fill:#efa884"
           inkscape:connector-curvature="0"
           id="museau_1_"
           d="m 177.646,652.421 c 0,0 -4.11,7.767 7.397,11.782 0,0 3.29,3.214 14.25,-3.481 0,0 7.71,-5.356 3.307,-10.442 0,0 -4.804,-5.861 -15.089,-2.945 0.001,-0.003 -7.123,1.87 -9.865,5.086 z" />
        <ellipse
           d="m 186.561,643.78998 c 0,0.97644 -1.42732,1.768 -3.188,1.768 -1.76068,0 -3.188,-0.79156 -3.188,-1.768 0,-0.97644 1.42732,-1.768 3.188,-1.768 1.76068,0 3.188,0.79156 3.188,1.768 z"
           style="fill:#160b04"
           sodipodi:ry="1.768"
           sodipodi:rx="3.188"
           sodipodi:cy="643.78998"
           sodipodi:cx="183.373"
           transform="matrix(-0.0682,0.9977,-0.9977,-0.0682,838.1749,504.771)"
           cx="183.373"
           cy="643.78998"
           rx="3.188"
           ry="1.768"
           id="ellipse76" />
        <ellipse
           d="m 199.394,643.77197 c 0,1.52044 -0.64426,2.753 -1.439,2.753 -0.79474,0 -1.439,-1.23256 -1.439,-2.753 0,-1.52044 0.64426,-2.753 1.439,-2.753 0.79474,0 1.439,1.23256 1.439,2.753 z"
           style="fill:#160b04"
           sodipodi:ry="2.753"
           sodipodi:rx="1.439"
           sodipodi:cy="643.77197"
           sodipodi:cx="197.955"
           cx="197.955"
           cy="643.77197"
           rx="1.439"
           ry="2.753"
           id="ellipse78" />
        <path
           style="fill:#160b04"
           inkscape:connector-curvature="0"
           d="m 193.636,653.005 -4.559,-3.119 c 0,0 3.719,-6.114 7.439,0.278 l -2.88,2.841 z"
           id="path80" />
      </g>
      <g
         id="pied_devant">
        <path
           style="fill:#dd8158"
           inkscape:connector-curvature="0"
           id="jambe"
           d="m 170.599,694.039 c 0,0 5.229,2.877 6.335,5.277 1.105,2.398 10.944,2.64 10.944,2.64 0,0 14.617,-9.358 16.307,3.84 1.688,13.197 -0.96,15.116 -3.355,17.996 0,0 -7.915,7.919 -21.352,-3.361 0,0 -9.401,-11.518 -11.059,-14.153 0,0 -8.136,-6.72 -3.816,-12.236 -0.001,-0.003 3.335,-1.681 5.996,-0.003 z" />
        <ellipse
           d="m 209.744,712.92102 c 0,4.56463 -5.90761,8.265 -13.195,8.265 -7.2874,0 -13.195,-3.70037 -13.195,-8.265 0,-4.56463 5.9076,-8.265 13.195,-8.265 7.28739,0 13.195,3.70037 13.195,8.265 z"
           style="fill:#efa884"
           sodipodi:ry="8.2650003"
           sodipodi:rx="13.195"
           sodipodi:cy="712.92102"
           sodipodi:cx="196.549"
           id="pied"
           transform="matrix(-0.138,0.9904,-0.9904,-0.138,929.774,616.6427)"
           cx="196.549"
           cy="712.92102"
           rx="13.195"
           ry="8.2650003" />
      </g>
      <path
         style="fill:#cc7452"
         inkscape:connector-curvature="0"
         id="bras_devant_1_"
         d="m 173.784,679.852 c 0,0 2,-5.968 0.28,-9.692 0,0 -3.046,-9.472 -12.22,-4.602 0,0 -4.373,7.938 -6.777,13.382 0,0 -4.807,10.889 -3.379,15.734 0,0 3.341,11.526 9.704,12.207 0,0 9.465,1.625 12.705,-3.079 0,0 1.75,-8.185 -0.1,-13.444 -1.736,-4.938 -0.213,-10.506 -0.213,-10.506 z" />
    </g>
  </g>
</svg>
