<?xml version="1.0" encoding="utf-8"?>
<!-- Generator: Adobe Illustrator 16.0.0, SVG Export Plug-In . SVG Version: 6.00 Build 0)  -->
<!DOCTYPE svg PUBLIC "-//W3C//DTD SVG 1.1//EN" "http://www.w3.org/Graphics/SVG/1.1/DTD/svg11.dtd">
<svg version="1.1" id="Calque_1" xmlns="http://www.w3.org/2000/svg" xmlns:xlink="http://www.w3.org/1999/xlink" x="0px" y="0px"
	 width="440px" height="240px" viewBox="0 0 440 240" enable-background="new 0 0 440 240" xml:space="preserve">
<path id="rect3076_36_" fill="#594C8E" d="M10,0v5h5V0H10z M15,5v5h-5v5H5v5H0v15h5V25h5v10h5v-5h25v5h5V25h5v10h5V20h-5v-5h-5v-5
	h-5V5h-5v5H20V5H15z M40,5h5V0h-5V5z M40,35H30v5h10V35z M15,35v5h10v-5H15z M15,15h5v5h-5V15z M35,15h5v5h-5V15z"/>
<path id="rect3076_2_" fill="#594C8E" d="M120,0v5h5V0H120z M125,5v5h-5v5h-5v5h-5v15h5V25h5v10h5v-5h25v5h5V25h5v10h5V20h-5v-5h-5
	v-5h-5V5h-5v5h-15V5H125z M150,5h5V0h-5V5z M150,35h-10v5h10V35z M125,35v5h10v-5H125z M125,15h5v5h-5V15z M145,15h5v5h-5V15z"/>
<path id="rect3076_4_" fill="#594C8E" d="M230,0v5h5V0H230z M235,5v5h-5v5h-5v5h-5v15h5V25h5v10h5v-5h25v5h5V25h5v10h5V20h-5v-5h-5
	v-5h-5V5h-5v5h-15V5H235z M260,5h5V0h-5V5z M260,35h-10v5h10V35z M235,35v5h10v-5H235z M235,15h5v5h-5V15z M255,15h5v5h-5V15z"/>
<path id="rect3076_6_" fill="#594C8E" d="M340,0v5h5V0H340z M345,5v5h-5v5h-5v5h-5v15h5V25h5v10h5v-5h25v5h5V25h5v10h5V20h-5v-5h-5
	v-5h-5V5h-5v5h-15V5H345z M370,5h5V0h-5V5z M370,35h-10v5h10V35z M345,35v5h10v-5H345z M345,15h5v5h-5V15z M365,15h5v5h-5V15z"/>
<path id="rect3076_7_" fill="#594C8E" d="M65,60v5h5v-5H65z M70,65v5h-5v5h-5v5h-5v15h5V85h5v10h5v-5h25v5h5V85h5v10h5V80h-5v-5h-5
	v-5h-5v-5h-5v5H75v-5H70z M95,65h5v-5h-5V65z M95,95H85v5h10V95z M70,95v5h10v-5H70z M70,75h5v5h-5V75z M90,75h5v5h-5V75z"/>
<path id="rect3076_5_" fill="#594C8E" d="M175,60v5h5v-5H175z M180,65v5h-5v5h-5v5h-5v15h5V85h5v10h5v-5h25v5h5V85h5v10h5V80h-5v-5
	h-5v-5h-5v-5h-5v5h-15v-5H180z M205,65h5v-5h-5V65z M205,95h-10v5h10V95z M180,95v5h10v-5H180z M180,75h5v5h-5V75z M200,75h5v5h-5
	V75z"/>
<path id="rect3076_3_" fill="#594C8E" d="M285,60v5h5v-5H285z M290,65v5h-5v5h-5v5h-5v15h5V85h5v10h5v-5h25v5h5V85h5v10h5V80h-5v-5
	h-5v-5h-5v-5h-5v5h-15v-5H290z M315,65h5v-5h-5V65z M315,95h-10v5h10V95z M290,95v5h10v-5H290z M290,75h5v5h-5V75z M310,75h5v5h-5
	V75z"/>
<path id="rect3076_1_" fill="#594C8E" d="M395,60v5h5v-5H395z M400,65v5h-5v5h-5v5h-5v15h5V85h5v10h5v-5h25v5h5V85h5v10h5V80h-5v-5
	h-5v-5h-5v-5h-5v5h-15v-5H400z M425,65h5v-5h-5V65z M425,95h-10v5h10V95z M400,95v5h10v-5H400z M400,75h5v5h-5V75z M420,75h5v5h-5
	V75z"/>
<path id="rect3076_19_" fill="#594C8E" d="M10,120v5h5v-5H10z M15,125v5h-5v5H5v5H0v15h5v-10h5v10h5v-5h25v5h5v-10h5v10h5v-15h-5v-5
	h-5v-5h-5v-5h-5v5H20v-5H15z M40,125h5v-5h-5V125z M40,155H30v5h10V155z M15,155v5h10v-5H15z M15,135h5v5h-5V135z M35,135h5v5h-5
	V135z"/>
<path id="rect3076_18_" fill="#594C8E" d="M120,120v5h5v-5H120z M125,125v5h-5v5h-5v5h-5v15h5v-10h5v10h5v-5h25v5h5v-10h5v10h5v-15
	h-5v-5h-5v-5h-5v-5h-5v5h-15v-5H125z M150,125h5v-5h-5V125z M150,155h-10v5h10V155z M125,155v5h10v-5H125z M125,135h5v5h-5V135z
	 M145,135h5v5h-5V135z"/>
<path id="rect3076_17_" fill="#594C8E" d="M230,120v5h5v-5H230z M235,125v5h-5v5h-5v5h-5v15h5v-10h5v10h5v-5h25v5h5v-10h5v10h5v-15
	h-5v-5h-5v-5h-5v-5h-5v5h-15v-5H235z M260,125h5v-5h-5V125z M260,155h-10v5h10V155z M235,155v5h10v-5H235z M235,135h5v5h-5V135z
	 M255,135h5v5h-5V135z"/>
<path id="rect3076_16_" fill="#594C8E" d="M340,120v5h5v-5H340z M345,125v5h-5v5h-5v5h-5v15h5v-10h5v10h5v-5h25v5h5v-10h5v10h5v-15
	h-5v-5h-5v-5h-5v-5h-5v5h-15v-5H345z M370,125h5v-5h-5V125z M370,155h-10v5h10V155z M345,155v5h10v-5H345z M345,135h5v5h-5V135z
	 M365,135h5v5h-5V135z"/>
<path id="rect3076_23_" fill="#594C8E" d="M65,180v5h5v-5H65z M70,185v5h-5v5h-5v5h-5v15h5v-10h5v10h5v-5h25v5h5v-10h5v10h5v-15h-5
	v-5h-5v-5h-5v-5h-5v5H75v-5H70z M95,185h5v-5h-5V185z M95,215H85v5h10V215z M70,215v5h10v-5H70z M70,195h5v5h-5V195z M90,195h5v5h-5
	V195z"/>
<path id="rect3076_22_" fill="#594C8E" d="M175,180v5h5v-5H175z M180,185v5h-5v5h-5v5h-5v15h5v-10h5v10h5v-5h25v5h5v-10h5v10h5v-15
	h-5v-5h-5v-5h-5v-5h-5v5h-15v-5H180z M205,185h5v-5h-5V185z M205,215h-10v5h10V215z M180,215v5h10v-5H180z M180,195h5v5h-5V195z
	 M200,195h5v5h-5V195z"/>
<path id="rect3076_21_" fill="#594C8E" d="M285,180v5h5v-5H285z M290,185v5h-5v5h-5v5h-5v15h5v-10h5v10h5v-5h25v5h5v-10h5v10h5v-15
	h-5v-5h-5v-5h-5v-5h-5v5h-15v-5H290z M315,185h5v-5h-5V185z M315,215h-10v5h10V215z M290,215v5h10v-5H290z M290,195h5v5h-5V195z
	 M310,195h5v5h-5V195z"/>
<path id="rect3076_20_" fill="#594C8E" d="M395,180v5h5v-5H395z M400,185v5h-5v5h-5v5h-5v15h5v-10h5v10h5v-5h25v5h5v-10h5v10h5v-15
	h-5v-5h-5v-5h-5v-5h-5v5h-15v-5H400z M425,185h5v-5h-5V185z M425,215h-10v5h10V215z M400,215v5h10v-5H400z M400,195h5v5h-5V195z
	 M420,195h5v5h-5V195z"/>
</svg>
