<?xml version="1.0" encoding="utf-8"?>
<?xml-stylesheet type="text/css" href="/css/svg.css" charset="utf-8"?>


<!-- Generator: Adobe Illustrator 16.0.0, SVG Export Plug-In . SVG Version: 6.00 Build 0)  -->
<!DOCTYPE svg PUBLIC "-//W3C//DTD SVG 1.1//EN" "http://www.w3.org/Graphics/SVG/1.1/DTD/svg11.dtd">
<svg version="1.1" id="Calque_1" xmlns="http://www.w3.org/2000/svg" xmlns:xlink="http://www.w3.org/1999/xlink" x="0px" y="0px"
 viewBox="0 0 1280 748" enable-background="new 0 0 1280 748" xml:space="preserve">


<title>Site de Maylanie Mesnier</title>


<!--- ICI LE PROBLLEME ET MERDE !! ! -->


<defs>
        <!-- leftarrow -->
        <g id="leftarrow">
			<line stroke-linecap="round" transform="rotate(30,0,0)" x1="0" y1="0" x2="20" y2="0" style="stroke:#ddb9e8;stroke-width:7" />
			<line stroke-linecap="round" transform="rotate(-30,0,0)" x1="0" y1="0" x2="20" y2="0" style="stroke:#ddb9e8;stroke-width:7" />
		</g>
        <!-- right arrow -->
       <use  id = "rightarrow" transform="rotate(180,200,100)" x = "0" y = "0" xlink:href = "#leftarrow"/>

</defs>
    
    
    

<g id="Tableau">
	
		<rect id="Tableau_1_" x="150" y="190" fill="#fffeff" stroke="#666666" stroke-width="4" stroke-miterlimit="10" width="500" height="240.951"/>
	<g id="feutre">
		<rect id="feutre_1_" x="210.501" y="418.643" fill="#9E9E67" width="55.209" height="9.86"/>
		<rect id="bouchon" x="247.965" y="418.643" fill="#0000FF" width="23.661" height="9.86"/>
	</g>
	<rect id="pose-feutre_2_" x="150" y="423" fill="#666666" width="500" height="10.846"/>
	<g id="texte">
		<text transform="matrix(0.9925 -0.1219 0.1219 0.9925 223.9009 307.7612)" >En stage chez Beepeers jusque</text>
		<text transform="matrix(0.9925 -0.1219 0.1219 0.9925 223.9009 337.7612)" >mi-Mai ! (site en travaux)</text>

		<text id="signature" transform="matrix(1 0 0 1 536.667 392.667)" >~ Mayl' ~</text>
	</g>
</g>

<g id="Bureau">
	<polygon id="bureau" fill="#5096d1" points="1090.894,699.62 144.447,699.62 144.447,728.209 227.261,728.209 227.261,754.828 
		255.852,754.828 255.852,728.209 951.884,728.209 951.884,754.828 980.474,754.828 980.474,728.209 1090.894,728.209 	"/>
	<rect id="Etagère" x="727.103" y="397.938" fill="#5096d1" width="290.836" height="28.592"/>
	<rect x="223.637" y="726.01" fill="#5096d1" width="36.159" height="47.323"/>
<rect x="951.692" y="726.01" fill="#5096d1" width="36.156" height="47.323"/>

</g>


<g id="Ordinateur" >
	<g id="ordi_x5F_rose">
		<path id="rect4287" fill="#FFAAAA" d="M381.461,552.018h140.174c2.437,0,4.411,1.976,4.411,4.411v1.278
			c0,2.438-1.976,4.412-4.411,4.412H381.461c-2.438,0-4.412-1.977-4.412-4.412v-1.278
			C377.05,553.992,379.025,552.018,381.461,552.018z"/>
		<path id="rect4283" fill="#FFAAAA" d="M404.17,519.819h94.756c2.426,0,4.393,1.96,4.393,4.378v30.387
			c0,2.418-1.967,4.379-4.393,4.379H404.17c-2.427,0-4.393-1.961-4.393-4.379v-30.387
			C399.778,521.779,401.744,519.819,404.17,519.819z"/>
		<path id="rect4254" fill="#FFAAAA" d="M305.699,497.722h276.545c2.438,0,4.411,1.977,4.411,4.411v32.846
			c0,2.438-1.975,4.412-4.411,4.412H305.699c-2.437,0-4.412-1.976-4.412-4.412v-32.846
			C301.288,499.698,303.264,497.722,305.699,497.722z"/>
		<path fill="#2B0000" d="M582.244,354.84H305.7c-2.436,0-4.411,1.961-4.412,4.379v4.657v128.007v26.042h285.368v-26.042V363.876
			v-4.657C586.656,356.801,584.681,354.84,582.244,354.84z"/>
		<path id="rect4289" fill="#D7F4EE" d="M315.521,367.664h256.903c1.584,0,2.867,1.277,2.867,2.854v129.4
			c0,1.576-1.283,2.854-2.867,2.854H315.521c-1.584,0-2.869-1.277-2.869-2.854v-129.4
			C312.652,368.943,313.937,367.664,315.521,367.664z"/>
	</g>
	
	<g id="contenu_ecran">
		<image id="ecran_diapo_0" xlink:href="/img/svg/diapo/web.svg" x="271.059" y="468.901" height="169.733" width="330.321"/>
		<g class="nav"> 
				<use id="ecranGauche" x = "290" y = "490" xlink:href = "#leftarrow"/>
				<use id="ecranDroite" x = "183" y = "290" xlink:href = "#rightarrow"/>
		</g>
	</g>
</g>

<g id="portable">
	<g id="portable_x5F_neuf">
		<path id="rect4765" d="M628.24,368.992h209.153c5.704,0,10.328,4.617,10.328,10.314v163.725c0,5.694-4.624,10.313-10.328,10.313
		H628.24c-5.704,0-10.328-4.618-10.328-10.313V379.307C617.911,373.609,622.535,368.992,628.24,368.992z"/>
		
		<g id="base_1_">
			<path id="base_x5F_portable"  fill="#E3E2DB" d="M862.352,542.161
					c0,10.676-14.675,19.218-32.778,19.218H632.075c-18.104,0-32.778-8.542-32.778-19.218H862.352z"/>
			<path id="bouton" fill="#BAB9B6" d="M750.114,542.299c0,4.273-2.159,5.341-4.824,5.341h-29.063
					c-2.658,0-4.822-1.067-4.822-5.341H750.114z"/>
		</g>
		<path id="rect4784" fill="#D7F4EE" d="M631.875,380.738h200.584c2.969,0,5.375,2.811,5.375,6.279V525.5
				c0,3.468-2.406,6.28-5.375,6.28H631.875c-2.969,0-5.375-2.812-5.375-6.28V387.018C626.5,383.549,628.906,380.738,631.875,380.738z
				"/>
	</g>

	<g id="contenu_portable">
		<image id="ordi_portable_diapo_0" xlink:href="../cotesud.png" x="680.889" y="526.24" height="137" width="247"/>
					
		<rect fill="none" id ="zone_clicable" x="717" y ="526" height = "137" width="180"/> 

		<g class="nav"> 
			<use id="ordiGauche" x = "690" y = "545" xlink:href = "#leftarrow"/>
			<use id="ordiDroite" x = "521" y = "345" xlink:href = "#rightarrow"/>
		</g>
	</g>
</g>
	
<g id="Ours1">
	<path id="bras_arriere_1_" fill="#CC7452" d="M203.451,661.534c0,0-3.273-4.657-6.825-5.433c0,0-8.355-2.921-9.509,6.3
		c0,0,3.488,7.425,6.18,12.092c0,0,5.387,9.329,9.596,10.919c0,0,9.981,3.818,13.7-0.384c0,0,5.97-5.931,4.232-10.796
		c0,0-4.995-5.675-9.715-7.185C206.679,665.632,203.451,661.534,203.451,661.534z"/>
	<g id="pied_arriere">
		<path id="jambe_1_" fill="#BF6B51" d="M194.498,679.222c0,0,5.74,1.634,7.356,3.722c1.616,2.091,11.256,0.112,11.256,0.112
			s12.144-12.402,16.753,0.079c4.609,12.481,2.458,14.946,0.772,18.289c0,0-5.932,9.497-21.56,1.524c0,0-11.75-9.111-13.956-11.313
			c0,0-9.438-4.719-6.471-11.064C188.651,680.569,191.524,678.188,194.498,679.222z"/>
		
			<ellipse id="pied_1_" transform="matrix(-0.1676 0.9859 -0.9859 -0.1676 943.825 588.1558)" fill="#EFA884" cx="223.61" cy="692.533" rx="13.197" ry="8.266"/>
	</g>
	<path id="corps_1_" fill="#DD8158" d="M200.833,658.282c0,0,1.2,1.681,1.921,4.561c0.718,2.879,0.477,3.84,1.917,7.679
		c1.44,3.841,3.12,6.479,3.599,9.358c0.48,2.879,0.96,6,0,10.799s-3.12,6.716-5.76,8.398c-2.639,1.681-22.796,3.119-23.993,3.84
		c0,0-9.599,0.479-13.676,0c0,0-6.481,1.414-10.08-22.209c0,0-1.2-14.024,8.157-22.421l21.357-10.317L200.833,658.282z"/>
	<g id="tete">
		<path id="oreille_2_" fill="#CC7452" d="M200.352,636.449c0,0,6.868-1.439,8.475-8.158c0,0,1.125-11.038-8.475-11.998
			c0,0-7.917-0.241-6.958,10.079C193.395,626.371,193.395,633.089,200.352,636.449z"/>
		<path fill="#FFBDFF" d="M197.473,627.57c0,0,0.242-2.878,3.6-4.078c0,0,4.559,0.72,2.639,5.756c0,0-3.119,2.881-4.559,3.599
			L197.473,627.57z"/>
		<path id="tete_2_" fill="#DD8158" d="M178.998,663.804c0,0-15.596-4.318-18.956-8.159c0,0-9.837-22.795,7.918-34.312
			c0,0,16.556-8.639,25.914,1.681c0,0,12.957,13.195,9.597,29.273C203.473,652.285,202.273,666.441,178.998,663.804z"/>
		<path fill="#DD8158" d="M159.395,640.612c0,0-17.449-5.123-7.416-17.525c0,0,9.678-8.039,16.44,0.782
			C168.418,623.871,161.783,627.019,159.395,640.612z"/>
		<path fill="#FFBDFF" d="M164.602,629.011c0,0-3.12,7.68-4.8,6.238c0,0-6.719-2.401-1.44-9.117
			C158.363,626.132,164.602,622.532,164.602,629.011z"/>
		<path id="museau_1_" fill="#EFA884" d="M177.646,652.421c0,0-4.11,7.767,7.397,11.782c0,0,3.29,3.214,14.25-3.481
			c0,0,7.71-5.356,3.307-10.442c0,0-4.804-5.861-15.089-2.945C187.512,647.332,180.388,649.205,177.646,652.421z"/>
		
			<ellipse transform="matrix(-0.0682 0.9977 -0.9977 -0.0682 838.1749 504.771)" fill="#160B04" cx="183.373" cy="643.79" rx="3.188" ry="1.768"/>
		<ellipse fill="#160B04" cx="197.955" cy="643.772" rx="1.439" ry="2.753"/>
		<path fill="#160B04" d="M193.636,653.005l-4.559-3.119c0,0,3.719-6.114,7.439,0.278L193.636,653.005z"/>
	</g>
	<g id="pied_devant">
		<path id="jambe" fill="#DD8158" d="M170.599,694.039c0,0,5.229,2.877,6.335,5.277c1.105,2.398,10.944,2.64,10.944,2.64
			s14.617-9.358,16.307,3.84c1.688,13.197-0.96,15.116-3.355,17.996c0,0-7.915,7.919-21.352-3.361c0,0-9.401-11.518-11.059-14.153
			c0,0-8.136-6.72-3.816-12.236C164.602,694.039,167.938,692.361,170.599,694.039z"/>
		
			<ellipse id="pied" transform="matrix(-0.138 0.9904 -0.9904 -0.138 929.774 616.6427)" fill="#EFA884" cx="196.549" cy="712.921" rx="13.195" ry="8.265"/>
	</g>
	<path id="bras_devant_1_" fill="#CC7452" d="M173.784,679.852c0,0,2-5.968,0.28-9.692c0,0-3.046-9.472-12.22-4.602
		c0,0-4.373,7.938-6.777,13.382c0,0-4.807,10.889-3.379,15.734c0,0,3.341,11.526,9.704,12.207c0,0,9.465,1.625,12.705-3.079
		c0,0,1.75-8.185-0.1-13.444C172.261,685.42,173.784,679.852,173.784,679.852z"/>
</g>


<g id="Imprimante">
	<g id="base_2_">
		<path fill="#646D65" d="M995.56,363.636c0,7.498-8.99,14.107-20.084,14.107H773.113c-11.094,0-20.376-6.609-20.376-14.107V311.71
			c0-7.496,9.283-13.388,20.376-13.388h202.36c11.092,0,20.084,5.891,20.084,13.388v51.926H995.56z"/>
		<ellipse fill="#00CFFF" cx="979.682" cy="323.32" rx="3.285" ry="3.52"/>
		<ellipse fill="#FF0037" cx="979.132" cy="333.611" rx="3.287" ry="3.521"/>
		<ellipse fill="#00FF12" cx="970.921" cy="323.32" rx="3.284" ry="3.52"/>
		<rect x="752.736" y="352.25" fill="#313A32" width="242.82" height="46.084"/>
	</g>
	<g id="feuille_1_">
		
			<animateTransform  type="translate" fill="remove" dur="2s" begin="Imprimante.mouseenter" to="0,70" from="-0,0" attributeName="transform" repeatCount="1" accumulate="none" restart="always" additive="replace" calcMode="linear" end="Imprimante.mouseleave" attributeType="XML">
			</animateTransform>
		<rect id="feuille" x="814.185" y="226.744" fill="#FFFFFF" width="121.906" height="151"/>
		<text transform="matrix(1 0 0 1 820.667 345)" >Télécharger</text>
		<text transform="matrix(1 0 0 1 820.667 360)" >mon CV</text>


	</g>
	<g id="devant">
		<path id="cache_haut" fill="#646D65" d="M948.975,344.368c0,4.621-6.527,7.882-13.29,7.882H812.351
			c-6.762,0-12.041-3.26-12.041-7.882v-32.011c0-4.622,5.279-8.153,12.041-8.153h123.334c6.763,0,13.29,3.532,13.29,8.153V344.368z"
			/>
		<rect id="cache_bas" x="752.736" y="351.27" fill="#313A32" width="242.82" height="34.317"/>
		<rect id="vitre" x="855.812" y="317.932" fill="#92EAD9" width="35.681" height="18.629"/>
	</g>
</g>

<script type="text/javascript" xlink:href="../../js/animate.js"> window.onload = setup(); </script>

</svg>

