<?xml version="1.0" standalone="yes"?>

<svg version="1.1" viewBox="0.0 0.0 556.3595800524935 482.496062992126" fill="none" stroke="none" stroke-linecap="square" stroke-miterlimit="10" xmlns="http://www.w3.org/2000/svg" xmlns:xlink="http://www.w3.org/1999/xlink"><clipPath id="p.0"><path d="m0 0l556.35956 0l0 482.49606l-556.35956 0l0 -482.49606z" clip-rule="nonzero"></path></clipPath><g clip-path="url(#p.0)"><path fill="#000000" fill-opacity="0.0" d="m0 0l556.35956 0l0 482.49606l-556.35956 0z" fill-rule="nonzero"></path><path fill="#1c0728" d="m-0.85564303 -1.9133859l558.07874 0l0 482.70868l-558.07874 0z" fill-rule="nonzero"></path><path fill="#1c0728" d="m328.0 183.06036l47.527557 -82.20472l47.527557 82.20472z" fill-rule="nonzero"></path><path fill="#e69138" d="m-0.85564303 206.79527c93.01312 -38.280838 186.02625 38.280838 279.03937 0c93.01312 -38.280838 186.02625 38.280838 279.03937 0l0 68.9055c-93.01312 38.280853 -186.02625 -38.280823 -279.03937 0c-93.01311 38.280853 -186.02625 -38.280823 -279.03937 0z" fill-rule="nonzero"></path></g></svg>

