<?xml version="1.0" standalone="yes"?>

<svg version="1.1" viewBox="0.0 0.0 333.0 173.0" fill="none" stroke="none" stroke-linecap="square" stroke-miterlimit="10" xmlns="http://www.w3.org/2000/svg" xmlns:xlink="http://www.w3.org/1999/xlink"><clipPath id="p.0"><path d="m0 0l333.0 0l0 173.0l-333.0 0l0 -173.0z" clip-rule="nonzero"></path></clipPath><g clip-path="url(#p.0)"><path fill="#000000" fill-opacity="0.0" d="m0 0l333.0 0l0 173.0l-333.0 0z" fill-rule="nonzero"></path><path fill="#ffffff" d="m-0.005249344 -0.44356954l333.00787 0l0 173.00787l-333.00787 0z" fill-rule="nonzero"></path><path fill="#000000" fill-opacity="0.0" d="m63.361298 7.368518l206.26773 0l0 18.992126l-206.26773 0z" fill-rule="nonzero"></path><path fill="#594c8e" d="m96.277115 23.168516q-0.15625 -0.46875 -0.328125 -0.953125q-0.171875 -0.5 -0.34375 -1.0l-3.5 0q-0.171875 0.5 -0.359375 1.0q-0.171875 0.484375 -0.3125 0.953125l-2.109375 0q0.515625 -1.453125 0.96875 -2.6875q0.453125 -1.234375 0.890625 -2.328125q0.4375 -1.09375 0.859375 -2.078125q0.421875 -0.98437405 0.875 -1.921874l1.9375 0q0.4375 0.9375 0.859375 1.921874q0.4375 0.984375 0.875 2.078125q0.4375 1.09375 0.890625 2.328125q0.453125 1.234375 0.96875 2.6875l-2.171875 0zm-2.4375 -6.96875q-0.0625 0.203125 -0.203125 0.546875q-0.125 0.328125 -0.296875 0.765625q-0.15625 0.4375 -0.359375 0.984375q-0.203125 0.53125 -0.421875 1.109375l2.5625 0q-0.203125 -0.578125 -0.40625 -1.109375q-0.1875 -0.546875 -0.359375 -0.984375q-0.171875 -0.4375 -0.3125 -0.765625q-0.125 -0.34375 -0.203125 -0.546875zm11.718918 6.734375q-0.5 0.140625 -1.28125 0.265625q-0.78125 0.125 -1.640625 0.125q-0.859375 0 -1.4375 -0.234375q-0.578125 -0.234375 -0.921875 -0.65625q-0.34375 -0.421875 -0.484375 -1.0q-0.140625 -0.59375 -0.140625 -1.296875l0 -3.8125l1.9375 0l0 3.578125q0 0.9375 0.25 1.359375q0.25 0.40625 0.921875 0.40625q0.203125 0 0.4375 -0.015625q0.234375 -0.015625 0.421875 -0.046875l0 -5.28125l1.9375 0l0 6.609375zm1.943985 -8.312499l1.9375 -0.3125l0 2.015624l2.328125 0l0 1.625l-2.328125 0l0 2.390625q0 0.625 0.21875 0.984375q0.21875 0.359375 0.859375 0.359375q0.3125 0 0.640625 -0.046875q0.34375 -0.0625 0.609375 -0.171875l0.265625 1.515625q-0.34375 0.140625 -0.78125 0.234375q-0.421875 0.109375 -1.046875 0.109375q-0.796875 0 -1.3125 -0.203125q-0.515625 -0.21875 -0.828125 -0.609375q-0.3125 -0.390625 -0.4375 -0.921875q-0.125 -0.546875 -0.125 -1.21875l0 -5.749999zm10.105164 3.421874q-0.265625 -0.0625 -0.625 -0.125q-0.34375 -0.078125 -0.734375 -0.078125q-0.1875 0 -0.4375 0.03125q-0.25 0.03125 -0.390625 0.078125l0 5.21875l-1.9375 0l0 -6.46875q0.53125 -0.1875 1.234375 -0.34375q0.703125 -0.171875 1.578125 -0.171875q0.15625 0 0.375 0.03125q0.21875 0.015625 0.4375 0.046875q0.234375 0.03125 0.453125 0.078125q0.21875 0.046875 0.375 0.109375l-0.328125 1.59375zm1.1713257 1.765625q0 -0.921875 0.28125 -1.59375q0.28125 -0.6875 0.734375 -1.140625q0.453125 -0.453125 1.046875 -0.6875q0.59375 -0.234375 1.21875 -0.234375q1.453125 0 2.296875 0.890625q0.84375 0.890625 0.84375 2.609375q0 0.171875 -0.015625 0.375q0 0.203125 -0.015625 0.359375l-4.390625 0q0.0625 0.59375 0.546875 0.953125q0.5 0.34375 1.328125 0.34375q0.53125 0 1.046875 -0.09375q0.515625 -0.09375 0.84375 -0.234375l0.265625 1.5625q-0.15625 0.078125 -0.421875 0.15625q-0.265625 0.078125 -0.578125 0.140625q-0.3125 0.0625 -0.6875 0.09375q-0.359375 0.046875 -0.71875 0.046875q-0.921875 0 -1.609375 -0.265625q-0.6875 -0.28125 -1.140625 -0.75q-0.4375 -0.484375 -0.65625 -1.125q-0.21875 -0.65625 -0.21875 -1.40625zm4.5625 -0.75q-0.015625 -0.25 -0.09375 -0.484375q-0.0625 -0.234375 -0.21875 -0.40625q-0.140625 -0.1875 -0.375 -0.296875q-0.234375 -0.125 -0.5625 -0.125q-0.328125 0 -0.5625 0.109375q-0.234375 0.109375 -0.390625 0.296875q-0.15625 0.171875 -0.25 0.421875q-0.078125 0.234375 -0.109375 0.484375l2.5625 0zm5.517975 2.71875q0.53125 0 0.75 -0.09375q0.21875 -0.109375 0.21875 -0.40625q0 -0.234375 -0.28125 -0.40625q-0.28125 -0.1875 -0.875 -0.40625q-0.453125 -0.171875 -0.828125 -0.34375q-0.359375 -0.1875 -0.625 -0.4375q-0.265625 -0.265625 -0.40625 -0.609375q-0.140625 -0.359375 -0.140625 -0.84375q0 -0.96875 0.71875 -1.515625q0.71875 -0.5625 1.953125 -0.5625q0.625 0 1.203125 0.109375q0.578125 0.109375 0.90625 0.234375l-0.328125 1.515625q-0.34375 -0.125 -0.75 -0.203125q-0.390625 -0.09375 -0.875 -0.09375q-0.921875 0 -0.921875 0.5q0 0.109375 0.03125 0.203125q0.046875 0.09375 0.15625 0.1875q0.125 0.078125 0.328125 0.171875q0.203125 0.09375 0.515625 0.21875q0.640625 0.234375 1.046875 0.46875q0.421875 0.21875 0.65625 0.484375q0.25 0.265625 0.34375 0.59375q0.09375 0.328125 0.09375 0.75q0 1.015625 -0.765625 1.546875q-0.75 0.515625 -2.140625 0.515625q-0.90625 0 -1.515625 -0.15625q-0.609375 -0.15625 -0.84375 -0.265625l0.328125 -1.578125q0.5 0.203125 1.015625 0.3125q0.515625 0.109375 1.03125 0.109375zm13.850357 -0.34375l0 1.734375l-6.015625 0l0 -9.015624l2.015625 0l0 7.281249l4.0 0zm3.956833 0.375q0.296875 0 0.546875 0q0.265625 -0.015625 0.421875 -0.046875l0 -1.46875q-0.109375 -0.03125 -0.34375 -0.046875q-0.234375 -0.03125 -0.4375 -0.03125q-0.265625 0 -0.515625 0.03125q-0.234375 0.03125 -0.421875 0.125q-0.171875 0.09375 -0.28125 0.25q-0.109375 0.15625 -0.109375 0.390625q0 0.453125 0.296875 0.625q0.3125 0.171875 0.84375 0.171875zm-0.15625 -5.65625q0.859375 0 1.4375 0.203125q0.578125 0.1875 0.921875 0.546875q0.34375 0.359375 0.484375 0.890625q0.140625 0.515625 0.140625 1.15625l0 4.03125q-0.421875 0.078125 -1.15625 0.203125q-0.734375 0.125 -1.796875 0.125q-0.65625 0 -1.203125 -0.125q-0.53125 -0.109375 -0.921875 -0.375q-0.390625 -0.265625 -0.609375 -0.6875q-0.203125 -0.4375 -0.203125 -1.0625q0 -0.59375 0.234375 -1.0q0.25 -0.421875 0.640625 -0.671875q0.40625 -0.25 0.921875 -0.359375q0.53125 -0.109375 1.09375 -0.109375q0.375 0 0.65625 0.03125q0.296875 0.03125 0.484375 0.078125l0 -0.171875q0 -0.5 -0.296875 -0.796875q-0.296875 -0.296875 -1.046875 -0.296875q-0.484375 0 -0.96875 0.078125q-0.484375 0.0625 -0.828125 0.1875l-0.25 -1.546875q0.171875 -0.0625 0.421875 -0.109375q0.25 -0.0625 0.546875 -0.109375q0.296875 -0.046875 0.625 -0.078125q0.34375 -0.03125 0.671875 -0.03125zm4.9172974 0.40625q0.5 -0.140625 1.28125 -0.265625q0.78125 -0.125 1.640625 -0.125q0.859375 0 1.4375 0.234375q0.578125 0.234375 0.921875 0.65625q0.34375 0.40625 0.484375 0.984375q0.140625 0.5625 0.140625 1.265625l0 3.859375l-1.9375 0l0 -3.625q0 -0.9375 -0.25 -1.328125q-0.25 -0.390625 -0.921875 -0.390625q-0.203125 0 -0.4375 0.03125q-0.234375 0.015625 -0.421875 0.03125l0 5.28125l-1.9375 0l0 -6.609375zm9.506485 2.96875q0 1.625 1.3125 1.625q0.296875 0 0.546875 -0.078125q0.265625 -0.078125 0.453125 -0.1875l0 -3.09375q-0.140625 -0.015625 -0.34375 -0.03125q-0.1875 -0.03125 -0.453125 -0.03125q-0.765625 0 -1.140625 0.515625q-0.375 0.5 -0.375 1.28125zm4.25 2.78125q0 1.671875 -0.859375 2.484375q-0.84375 0.8125 -2.625 0.8125q-0.625 0 -1.25 -0.109375q-0.625 -0.109375 -1.15625 -0.28125l0.34375 -1.625q0.453125 0.171875 0.953125 0.28125q0.5 0.109375 1.140625 0.109375q0.828125 0 1.171875 -0.375q0.34375 -0.359375 0.34375 -0.9375l0 -0.234375q-0.3125 0.140625 -0.640625 0.21875q-0.328125 0.0625 -0.71875 0.0625q-1.421875 0 -2.1875 -0.828125q-0.75 -0.84375 -0.75 -2.359375q0 -0.75 0.234375 -1.359375q0.234375 -0.625 0.6875 -1.0625q0.453125 -0.453125 1.09375 -0.6875q0.65625 -0.25 1.46875 -0.25q0.359375 0 0.71875 0.046875q0.375 0.03125 0.734375 0.078125q0.375 0.046875 0.703125 0.125q0.328125 0.0625 0.59375 0.140625l0 5.75zm4.619995 -0.5q0.296875 0 0.546875 0q0.265625 -0.015625 0.421875 -0.046875l0 -1.46875q-0.109375 -0.03125 -0.34375 -0.046875q-0.234375 -0.03125 -0.4375 -0.03125q-0.265625 0 -0.515625 0.03125q-0.234375 0.03125 -0.421875 0.125q-0.171875 0.09375 -0.28125 0.25q-0.109375 0.15625 -0.109375 0.390625q0 0.453125 0.296875 0.625q0.3125 0.171875 0.84375 0.171875zm-0.15625 -5.65625q0.859375 0 1.4375 0.203125q0.578125 0.1875 0.921875 0.546875q0.34375 0.359375 0.484375 0.890625q0.140625 0.515625 0.140625 1.15625l0 4.03125q-0.421875 0.078125 -1.15625 0.203125q-0.734375 0.125 -1.796875 0.125q-0.65625 0 -1.203125 -0.125q-0.53125 -0.109375 -0.921875 -0.375q-0.390625 -0.265625 -0.609375 -0.6875q-0.203125 -0.4375 -0.203125 -1.0625q0 -0.59375 0.234375 -1.0q0.25 -0.421875 0.640625 -0.671875q0.40625 -0.25 0.921875 -0.359375q0.53125 -0.109375 1.09375 -0.109375q0.375 0 0.65625 0.03125q0.296875 0.03125 0.484375 0.078125l0 -0.171875q0 -0.5 -0.296875 -0.796875q-0.296875 -0.296875 -1.046875 -0.296875q-0.484375 0 -0.96875 0.078125q-0.484375 0.0625 -0.828125 0.1875l-0.25 -1.546875q0.171875 -0.0625 0.421875 -0.109375q0.25 -0.0625 0.546875 -0.109375q0.296875 -0.046875 0.625 -0.078125q0.34375 -0.03125 0.671875 -0.03125zm6.5735474 3.375q0 1.625 1.3125 1.625q0.296875 0 0.546875 -0.078125q0.265625 -0.078125 0.453125 -0.1875l0 -3.09375q-0.140625 -0.015625 -0.34375 -0.03125q-0.1875 -0.03125 -0.453125 -0.03125q-0.765625 0 -1.140625 0.515625q-0.375 0.5 -0.375 1.28125zm4.25 2.78125q0 1.671875 -0.859375 2.484375q-0.84375 0.8125 -2.625 0.8125q-0.625 0 -1.25 -0.109375q-0.625 -0.109375 -1.15625 -0.28125l0.34375 -1.625q0.453125 0.171875 0.953125 0.28125q0.5 0.109375 1.140625 0.109375q0.828125 0 1.171875 -0.375q0.34375 -0.359375 0.34375 -0.9375l0 -0.234375q-0.3125 0.140625 -0.640625 0.21875q-0.328125 0.0625 -0.71875 0.0625q-1.421875 0 -2.1875 -0.828125q-0.75 -0.84375 -0.75 -2.359375q0 -0.75 0.234375 -1.359375q0.234375 -0.625 0.6875 -1.0625q0.453125 -0.453125 1.09375 -0.6875q0.65625 -0.25 1.46875 -0.25q0.359375 0 0.71875 0.046875q0.375 0.03125 0.734375 0.078125q0.375 0.046875 0.703125 0.125q0.328125 0.0625 0.59375 0.140625l0 5.75zm1.6824951 -2.5q0 -0.921875 0.28125 -1.59375q0.28125 -0.6875 0.734375 -1.140625q0.453125 -0.453125 1.046875 -0.6875q0.59375 -0.234375 1.21875 -0.234375q1.453125 0 2.296875 0.890625q0.84375 0.890625 0.84375 2.609375q0 0.171875 -0.015625 0.375q0 0.203125 -0.015625 0.359375l-4.390625 0q0.0625 0.59375 0.546875 0.953125q0.5 0.34375 1.328125 0.34375q0.53125 0 1.046875 -0.09375q0.515625 -0.09375 0.84375 -0.234375l0.265625 1.5625q-0.15625 0.078125 -0.421875 0.15625q-0.265625 0.078125 -0.578125 0.140625q-0.3125 0.0625 -0.6875 0.09375q-0.359375 0.046875 -0.71875 0.046875q-0.921875 0 -1.609375 -0.265625q-0.6875 -0.28125 -1.140625 -0.75q-0.4375 -0.484375 -0.65625 -1.125q-0.21875 -0.65625 -0.21875 -1.40625zm4.5625 -0.75q-0.015625 -0.25 -0.09375 -0.484375q-0.0625 -0.234375 -0.21875 -0.40625q-0.140625 -0.1875 -0.375 -0.296875q-0.234375 -0.125 -0.5625 -0.125q-0.328125 0 -0.5625 0.109375q-0.234375 0.109375 -0.390625 0.296875q-0.15625 0.171875 -0.25 0.421875q-0.078125 0.234375 -0.109375 0.484375l2.5625 0zm5.517975 2.71875q0.53125 0 0.75 -0.09375q0.21875 -0.109375 0.21875 -0.40625q0 -0.234375 -0.28125 -0.40625q-0.28125 -0.1875 -0.875 -0.40625q-0.453125 -0.171875 -0.828125 -0.34375q-0.359375 -0.1875 -0.625 -0.4375q-0.265625 -0.265625 -0.40625 -0.609375q-0.140625 -0.359375 -0.140625 -0.84375q0 -0.96875 0.71875 -1.515625q0.71875 -0.5625 1.953125 -0.5625q0.625 0 1.203125 0.109375q0.578125 0.109375 0.90625 0.234375l-0.328125 1.515625q-0.34375 -0.125 -0.75 -0.203125q-0.390625 -0.09375 -0.875 -0.09375q-0.921875 0 -0.921875 0.5q0 0.109375 0.03125 0.203125q0.046875 0.09375 0.15625 0.1875q0.125 0.078125 0.328125 0.171875q0.203125 0.09375 0.515625 0.21875q0.640625 0.234375 1.046875 0.46875q0.421875 0.21875 0.65625 0.484375q0.25 0.265625 0.34375 0.59375q0.09375 0.328125 0.09375 0.75q0 1.015625 -0.765625 1.546875q-0.75 0.515625 -2.140625 0.515625q-0.90625 0 -1.515625 -0.15625q-0.609375 -0.15625 -0.84375 -0.265625l0.328125 -1.578125q0.5 0.203125 1.015625 0.3125q0.515625 0.109375 1.03125 0.109375zm7.365982 -2.03125q0 -0.734375 0.234375 -1.390625q0.25 -0.65625 0.703125 -1.140625q0.453125 -0.5 1.109375 -0.78125q0.65625 -0.28125 1.484375 -0.28125q0.546875 0 1.0 0.09375q0.453125 0.09375 0.890625 0.28125l-0.40625 1.546875q-0.28125 -0.109375 -0.609375 -0.1875q-0.3125 -0.078125 -0.71875 -0.078125q-0.859375 0 -1.28125 0.53125q-0.421875 0.53125 -0.421875 1.40625q0 0.921875 0.390625 1.4375q0.40625 0.5 1.390625 0.5q0.34375 0 0.75 -0.0625q0.40625 -0.0625 0.75 -0.203125l0.265625 1.578125q-0.34375 0.140625 -0.84375 0.25q-0.5 0.109375 -1.125 0.109375q-0.921875 0 -1.609375 -0.28125q-0.671875 -0.28125 -1.109375 -0.765625q-0.4375 -0.484375 -0.640625 -1.140625q-0.203125 -0.65625 -0.203125 -1.421875zm13.398407 -0.015625q0 0.8125 -0.234375 1.484375q-0.234375 0.671875 -0.6875 1.140625q-0.4375 0.46875 -1.0625 0.734375q-0.609375 0.265625 -1.375 0.265625q-0.75 0 -1.375 -0.265625q-0.609375 -0.265625 -1.0625 -0.734375q-0.4375 -0.46875 -0.6875 -1.140625q-0.25 -0.671875 -0.25 -1.484375q0 -0.796875 0.25 -1.453125q0.265625 -0.671875 0.703125 -1.140625q0.453125 -0.46875 1.0625 -0.71875q0.625 -0.265625 1.359375 -0.265625q0.734375 0 1.34375 0.265625q0.625 0.25 1.0625 0.71875q0.453125 0.46875 0.703125 1.140625q0.25 0.65625 0.25 1.453125zm-1.984375 0q0 -0.890625 -0.359375 -1.40625q-0.359375 -0.515625 -1.015625 -0.515625q-0.671875 0 -1.03125 0.515625q-0.359375 0.515625 -0.359375 1.40625q0 0.90625 0.359375 1.4375q0.359375 0.515625 1.03125 0.515625q0.65625 0 1.015625 -0.515625q0.359375 -0.53125 0.359375 -1.4375zm3.668274 -3.171875q0.5 -0.140625 1.28125 -0.265625q0.78125 -0.125 1.640625 -0.125q0.859375 0 1.4375 0.234375q0.578125 0.234375 0.921875 0.65625q0.34375 0.40625 0.484375 0.984375q0.140625 0.5625 0.140625 1.265625l0 3.859375l-1.9375 0l0 -3.625q0 -0.9375 -0.25 -1.328125q-0.25 -0.390625 -0.921875 -0.390625q-0.203125 0 -0.4375 0.03125q-0.234375 0.015625 -0.421875 0.03125l0 5.28125l-1.9375 0l0 -6.609375zm7.850235 0q0.5 -0.140625 1.28125 -0.265625q0.78125 -0.125 1.640625 -0.125q0.859375 0 1.4375 0.234375q0.578125 0.234375 0.921875 0.65625q0.34375 0.40625 0.484375 0.984375q0.140625 0.5625 0.140625 1.265625l0 3.859375l-1.9375 0l0 -3.625q0 -0.9375 -0.25 -1.328125q-0.25 -0.390625 -0.921875 -0.390625q-0.203125 0 -0.4375 0.03125q-0.234375 0.015625 -0.421875 0.03125l0 5.28125l-1.9375 0l0 -6.609375zm13.693985 6.375q-0.5 0.140625 -1.28125 0.265625q-0.78125 0.125 -1.640625 0.125q-0.859375 0 -1.4375 -0.234375q-0.578125 -0.234375 -0.921875 -0.65625q-0.34375 -0.421875 -0.484375 -1.0q-0.140625 -0.59375 -0.140625 -1.296875l0 -3.8125l1.9375 0l0 3.578125q0 0.9375 0.25 1.359375q0.25 0.40625 0.921875 0.40625q0.203125 0 0.4375 -0.015625q0.234375 -0.015625 0.421875 -0.046875l0 -5.28125l1.9375 0l0 6.609375zm3.975235 -1.15625q0.53125 0 0.75 -0.09375q0.21875 -0.109375 0.21875 -0.40625q0 -0.234375 -0.28125 -0.40625q-0.28125 -0.1875 -0.875 -0.40625q-0.453125 -0.171875 -0.828125 -0.34375q-0.359375 -0.1875 -0.625 -0.4375q-0.265625 -0.265625 -0.40625 -0.609375q-0.140625 -0.359375 -0.140625 -0.84375q0 -0.96875 0.71875 -1.515625q0.71875 -0.5625 1.953125 -0.5625q0.625 0 1.203125 0.109375q0.578125 0.109375 0.90625 0.234375l-0.328125 1.515625q-0.34375 -0.125 -0.75 -0.203125q-0.390625 -0.09375 -0.875 -0.09375q-0.921875 0 -0.921875 0.5q0 0.109375 0.03125 0.203125q0.046875 0.09375 0.15625 0.1875q0.125 0.078125 0.328125 0.171875q0.203125 0.09375 0.515625 0.21875q0.640625 0.234375 1.046875 0.46875q0.421875 0.21875 0.65625 0.484375q0.25 0.265625 0.34375 0.59375q0.09375 0.328125 0.09375 0.75q0 1.015625 -0.765625 1.546875q-0.75 0.515625 -2.140625 0.515625q-0.90625 0 -1.515625 -0.15625q-0.609375 -0.15625 -0.84375 -0.265625l0.328125 -1.578125q0.5 0.203125 1.015625 0.3125q0.515625 0.109375 1.03125 0.109375z" fill-rule="nonzero"></path><path fill="#000000" fill-opacity="0.0" d="m6.572308 43.45983l63.086613 0l0 23.11811l-63.086613 0z" fill-rule="nonzero"></path><path fill="#594c8e" d="m48.421677 55.19639q0 0.5625 -0.125 1.0625q-0.125 0.484375 -0.4375 0.859375q-0.3125 0.359375 -0.84375 0.578125q-0.53125 0.21875 -1.359375 0.21875q-0.734375 0 -1.28125 -0.171875q-0.53125 -0.1875 -0.890625 -0.4375l0.578125 -1.328125q0.3125 0.1875 0.671875 0.328125q0.375 0.140625 0.796875 0.140625q0.625 0 0.890625 -0.296875q0.28125 -0.3125 0.28125 -1.046875l0 -4.96875l1.71875 0l0 5.0625zm3.574707 1.421875q0.234375 0 0.453125 -0.015625q0.21875 -0.015625 0.359375 -0.03125l0 -1.25q-0.09375 -0.015625 -0.296875 -0.03125q-0.203125 -0.03125 -0.359375 -0.03125q-0.234375 0 -0.4375 0.03125q-0.203125 0.03125 -0.359375 0.109375q-0.15625 0.078125 -0.25 0.203125q-0.078125 0.125 -0.078125 0.328125q0 0.390625 0.25 0.546875q0.265625 0.140625 0.71875 0.140625zm-0.140625 -4.796875q0.734375 0 1.21875 0.171875q0.484375 0.15625 0.765625 0.46875q0.296875 0.296875 0.421875 0.75q0.125 0.4375 0.125 0.96875l0 3.40625q-0.359375 0.078125 -0.984375 0.1875q-0.625 0.109375 -1.515625 0.109375q-0.5625 0 -1.03125 -0.109375q-0.453125 -0.09375 -0.78125 -0.3125q-0.328125 -0.234375 -0.5 -0.59375q-0.171875 -0.359375 -0.171875 -0.890625q0 -0.5 0.203125 -0.84375q0.203125 -0.359375 0.53125 -0.5625q0.34375 -0.21875 0.78125 -0.3125q0.453125 -0.09375 0.921875 -0.09375q0.3125 0 0.5625 0.03125q0.25 0.015625 0.40625 0.0625l0 -0.15625q0 -0.40625 -0.265625 -0.65625q-0.25 -0.265625 -0.875 -0.265625q-0.40625 0 -0.8125 0.0625q-0.40625 0.0625 -0.703125 0.171875l-0.21875 -1.328125q0.140625 -0.03125 0.359375 -0.078125q0.21875 -0.0625 0.46875 -0.09375q0.25 -0.046875 0.53125 -0.0625q0.28125 -0.03125 0.5625 -0.03125zm5.3929596 5.9375q-0.5625 -1.09375 -1.140625 -2.5625q-0.578125 -1.484375 -1.09375 -3.21875l1.734375 0q0.109375 0.421875 0.25 0.921875q0.15625 0.5 0.3125 1.015625q0.171875 0.515625 0.328125 1.0q0.15625 0.484375 0.3125 0.875q0.140625 -0.390625 0.296875 -0.875q0.171875 -0.484375 0.328125 -1.0q0.171875 -0.515625 0.3125 -1.015625q0.15625 -0.5 0.265625 -0.921875l1.6875 0q-0.515625 1.734375 -1.09375 3.21875q-0.578125 1.46875 -1.140625 2.5625l-1.359375 0zm6.5016174 -1.140625q0.234375 0 0.453125 -0.015625q0.21875 -0.015625 0.359375 -0.03125l0 -1.25q-0.09375 -0.015625 -0.296875 -0.03125q-0.203125 -0.03125 -0.359375 -0.03125q-0.234375 0 -0.4375 0.03125q-0.203125 0.03125 -0.359375 0.109375q-0.15625 0.078125 -0.25 0.203125q-0.078125 0.125 -0.078125 0.328125q0 0.390625 0.25 0.546875q0.265625 0.140625 0.71875 0.140625zm-0.140625 -4.796875q0.734375 0 1.21875 0.171875q0.484375 0.15625 0.765625 0.46875q0.296875 0.296875 0.421875 0.75q0.125 0.4375 0.125 0.96875l0 3.40625q-0.359375 0.078125 -0.984375 0.1875q-0.625 0.109375 -1.515625 0.109375q-0.5625 0 -1.03125 -0.109375q-0.453125 -0.09375 -0.78125 -0.3125q-0.328125 -0.234375 -0.5 -0.59375q-0.171875 -0.359375 -0.171875 -0.890625q0 -0.5 0.203125 -0.84375q0.203125 -0.359375 0.53125 -0.5625q0.34375 -0.21875 0.78125 -0.3125q0.453125 -0.09375 0.921875 -0.09375q0.3125 0 0.5625 0.03125q0.25 0.015625 0.40625 0.0625l0 -0.15625q0 -0.40625 -0.265625 -0.65625q-0.25 -0.265625 -0.875 -0.265625q-0.40625 0 -0.8125 0.0625q-0.40625 0.0625 -0.703125 0.171875l-0.21875 -1.328125q0.140625 -0.03125 0.359375 -0.078125q0.21875 -0.0625 0.46875 -0.09375q0.25 -0.046875 0.53125 -0.0625q0.28125 -0.03125 0.5625 -0.03125z" fill-rule="nonzero"></path><path fill="#000000" fill-opacity="0.0" d="m6.572308 66.23513l63.086613 0l0 23.11811l-63.086613 0z" fill-rule="nonzero"></path><path fill="#594c8e" d="m32.948654 77.97169q0 0.5625 -0.125 1.0625q-0.125 0.484375 -0.4375 0.859375q-0.3125 0.359375 -0.84375 0.578125q-0.53125 0.21875 -1.359375 0.21875q-0.734375 0 -1.28125 -0.171875q-0.53125 -0.1875 -0.890625 -0.4375l0.578125 -1.328125q0.3125 0.1875 0.671875 0.328125q0.375 0.140625 0.796875 0.140625q0.625 0 0.890625 -0.296875q0.28125 -0.3125 0.28125 -1.046875l0 -4.96875l1.71875 0l0 5.0625zm3.574707 1.421875q0.234375 0 0.453125 -0.015625q0.21875 -0.015625 0.359375 -0.03125l0 -1.25q-0.09375 -0.015625 -0.296875 -0.03125q-0.203125 -0.03125 -0.359375 -0.03125q-0.234375 0 -0.4375 0.03125q-0.203125 0.03125 -0.359375 0.109375q-0.15625 0.078125 -0.25 0.203125q-0.078125 0.125 -0.078125 0.328125q0 0.390625 0.25 0.546875q0.265625 0.140625 0.71875 0.140625zm-0.140625 -4.796875q0.734375 0 1.21875 0.171875q0.484375 0.15625 0.765625 0.46875q0.296875 0.296875 0.421875 0.75q0.125 0.4375 0.125 0.96875l0 3.40625q-0.359375 0.078125 -0.984375 0.1875q-0.625 0.109375 -1.515625 0.109375q-0.5625 0 -1.03125 -0.109375q-0.453125 -0.09375 -0.78125 -0.3125q-0.328125 -0.234375 -0.5 -0.59375q-0.171875 -0.359375 -0.171875 -0.890625q0 -0.5 0.203125 -0.84375q0.203125 -0.359375 0.53125 -0.5625q0.34375 -0.21875 0.78125 -0.3125q0.453125 -0.09375 0.921875 -0.09375q0.3125 0 0.5625 0.03125q0.25 0.015625 0.40625 0.0625l0 -0.15625q0 -0.40625 -0.265625 -0.65625q-0.25 -0.265625 -0.875 -0.265625q-0.40625 0 -0.8125 0.0625q-0.40625 0.0625 -0.703125 0.171875l-0.21875 -1.328125q0.140625 -0.03125 0.359375 -0.078125q0.21875 -0.0625 0.46875 -0.09375q0.25 -0.046875 0.53125 -0.0625q0.28125 -0.03125 0.5625 -0.03125zm5.3929596 5.9375q-0.5625 -1.09375 -1.140625 -2.5625q-0.578125 -1.484375 -1.09375 -3.21875l1.734375 0q0.109375 0.421875 0.25 0.921875q0.15625 0.5 0.3125 1.015625q0.171875 0.515625 0.328125 1.0q0.15625 0.484375 0.3125 0.875q0.140625 -0.390625 0.296875 -0.875q0.171875 -0.484375 0.328125 -1.0q0.171875 -0.515625 0.3125 -1.015625q0.15625 -0.5 0.265625 -0.921875l1.6875 0q-0.515625 1.734375 -1.09375 3.21875q-0.578125 1.46875 -1.140625 2.5625l-1.359375 0zm6.5016174 -1.140625q0.234375 0 0.453125 -0.015625q0.21875 -0.015625 0.359375 -0.03125l0 -1.25q-0.09375 -0.015625 -0.296875 -0.03125q-0.203125 -0.03125 -0.359375 -0.03125q-0.234375 0 -0.4375 0.03125q-0.203125 0.03125 -0.359375 0.109375q-0.15625 0.078125 -0.25 0.203125q-0.078125 0.125 -0.078125 0.328125q0 0.390625 0.25 0.546875q0.265625 0.140625 0.71875 0.140625zm-0.140625 -4.796875q0.734375 0 1.21875 0.171875q0.484375 0.15625 0.765625 0.46875q0.296875 0.296875 0.421875 0.75q0.125 0.4375 0.125 0.96875l0 3.40625q-0.359375 0.078125 -0.984375 0.1875q-0.625 0.109375 -1.515625 0.109375q-0.5625 0 -1.03125 -0.109375q-0.453125 -0.09375 -0.78125 -0.3125q-0.328125 -0.234375 -0.5 -0.59375q-0.171875 -0.359375 -0.171875 -0.890625q0 -0.5 0.203125 -0.84375q0.203125 -0.359375 0.53125 -0.5625q0.34375 -0.21875 0.78125 -0.3125q0.453125 -0.09375 0.921875 -0.09375q0.3125 0 0.5625 0.03125q0.25 0.015625 0.40625 0.0625l0 -0.15625q0 -0.40625 -0.265625 -0.65625q-0.25 -0.265625 -0.875 -0.265625q-0.40625 0 -0.8125 0.0625q-0.40625 0.0625 -0.703125 0.171875l-0.21875 -1.328125q0.140625 -0.03125 0.359375 -0.078125q0.21875 -0.0625 0.46875 -0.09375q0.25 -0.046875 0.53125 -0.0625q0.28125 -0.03125 0.5625 -0.03125zm6.481735 5.9375l0 -7.625l5.15625 0l0 1.4375l-3.4375 0l0 1.5l3.046875 0l0 1.40625l-3.046875 0l0 1.84375l3.6875 0l0 1.4375l-5.40625 0zm6.4577484 0l0 -7.625l5.15625 0l0 1.4375l-3.4375 0l0 1.5l3.046875 0l0 1.40625l-3.046875 0l0 1.84375l3.6875 0l0 1.4375l-5.40625 0z" fill-rule="nonzero"></path><path fill="#000000" fill-opacity="0.0" d="m6.572308 89.01043l63.086613 0l0 23.11811l-63.086613 0z" fill-rule="nonzero"></path><path fill="#594c8e" d="m25.249237 103.46573q-1.859375 0 -2.84375 -1.03125q-0.96875 -1.03125 -0.96875 -2.9375q0 -0.953125 0.296875 -1.6875q0.296875 -0.75 0.8125 -1.25q0.515625 -0.515625 1.234375 -0.78125q0.71875 -0.265625 1.546875 -0.265625q0.484375 0 0.875 0.078125q0.40625 0.0625 0.703125 0.15625q0.296875 0.09375 0.484375 0.203125q0.203125 0.09375 0.296875 0.140625l-0.5 1.390625q-0.34375 -0.1875 -0.8125 -0.3125q-0.46875 -0.140625 -1.0625 -0.140625q-0.390625 0 -0.78125 0.140625q-0.375 0.125 -0.671875 0.421875q-0.28125 0.28125 -0.46875 0.75q-0.171875 0.453125 -0.171875 1.125q0 0.515625 0.109375 0.984375q0.125 0.453125 0.375 0.78125q0.265625 0.328125 0.6875 0.53125q0.421875 0.1875 1.015625 0.1875q0.375 0 0.671875 -0.046875q0.296875 -0.046875 0.515625 -0.109375q0.234375 -0.0625 0.40625 -0.140625q0.1875 -0.078125 0.328125 -0.140625l0.46875 1.375q-0.359375 0.21875 -1.03125 0.40625q-0.65625 0.171875 -1.515625 0.171875zm7.54097 -1.328125q0.4375 0 0.625 -0.09375q0.1875 -0.09375 0.1875 -0.34375q0 -0.1875 -0.25 -0.328125q-0.234375 -0.15625 -0.71875 -0.34375q-0.390625 -0.15625 -0.703125 -0.296875q-0.3125 -0.15625 -0.53125 -0.375q-0.21875 -0.21875 -0.34375 -0.515625q-0.125 -0.296875 -0.125 -0.71875q0 -0.8125 0.609375 -1.28125q0.609375 -0.46875 1.65625 -0.46875q0.53125 0 1.015625 0.09375q0.484375 0.09375 0.765625 0.203125l-0.28125 1.28125q-0.28125 -0.109375 -0.625 -0.1875q-0.328125 -0.078125 -0.75 -0.078125q-0.765625 0 -0.765625 0.4375q0 0.09375 0.03125 0.171875q0.03125 0.078125 0.125 0.15625q0.109375 0.0625 0.28125 0.15625q0.171875 0.078125 0.421875 0.171875q0.546875 0.203125 0.890625 0.390625q0.359375 0.1875 0.5625 0.421875q0.203125 0.21875 0.28125 0.5q0.09375 0.265625 0.09375 0.640625q0 0.859375 -0.65625 1.296875q-0.640625 0.4375 -1.8125 0.4375q-0.765625 0 -1.28125 -0.140625q-0.515625 -0.125 -0.71875 -0.21875l0.28125 -1.328125q0.421875 0.171875 0.859375 0.265625q0.4375 0.09375 0.875 0.09375zm8.637085 -4.609375q-0.5 1.671875 -1.046875 3.140625q-0.53125 1.453125 -1.15625 2.828125q-0.234375 0.5 -0.46875 0.84375q-0.234375 0.34375 -0.515625 0.5625q-0.265625 0.234375 -0.609375 0.328125q-0.34375 0.109375 -0.8125 0.109375q-0.390625 0 -0.71875 -0.078125q-0.3125 -0.0625 -0.515625 -0.15625l0.28125 -1.296875q0.25 0.078125 0.4375 0.109375q0.203125 0.046875 0.421875 0.046875q0.453125 0 0.6875 -0.25q0.234375 -0.234375 0.390625 -0.640625q-0.546875 -1.109375 -1.109375 -2.46875q-0.5625 -1.375 -1.0625 -3.078125l1.734375 0q0.109375 0.421875 0.25 0.921875q0.15625 0.5 0.3125 1.015625q0.171875 0.515625 0.34375 1.0q0.171875 0.484375 0.328125 0.875q0.140625 -0.390625 0.296875 -0.875q0.15625 -0.484375 0.296875 -1.0q0.15625 -0.515625 0.296875 -1.015625q0.140625 -0.5 0.25 -0.921875l1.6875 0zm2.3602753 4.609375q0.4375 0 0.625 -0.09375q0.1875 -0.09375 0.1875 -0.34375q0 -0.1875 -0.25 -0.328125q-0.234375 -0.15625 -0.71875 -0.34375q-0.390625 -0.15625 -0.703125 -0.296875q-0.3125 -0.15625 -0.53125 -0.375q-0.21875 -0.21875 -0.34375 -0.515625q-0.125 -0.296875 -0.125 -0.71875q0 -0.8125 0.609375 -1.28125q0.609375 -0.46875 1.65625 -0.46875q0.53125 0 1.015625 0.09375q0.484375 0.09375 0.765625 0.203125l-0.28125 1.28125q-0.28125 -0.109375 -0.625 -0.1875q-0.328125 -0.078125 -0.75 -0.078125q-0.765625 0 -0.765625 0.4375q0 0.09375 0.03125 0.171875q0.03125 0.078125 0.125 0.15625q0.109375 0.0625 0.28125 0.15625q0.171875 0.078125 0.421875 0.171875q0.546875 0.203125 0.890625 0.390625q0.359375 0.1875 0.5625 0.421875q0.203125 0.21875 0.28125 0.5q0.09375 0.265625 0.09375 0.640625q0 0.859375 -0.65625 1.296875q-0.640625 0.4375 -1.8125 0.4375q-0.765625 0 -1.28125 -0.140625q-0.515625 -0.125 -0.71875 -0.21875l0.28125 -1.328125q0.421875 0.171875 0.859375 0.265625q0.4375 0.09375 0.875 0.09375zm3.449585 -6.0625l1.640625 -0.25l0 1.703125l1.96875 0l0 1.359375l-1.96875 0l0 2.03125q0 0.515625 0.171875 0.828125q0.1875 0.3125 0.734375 0.3125q0.265625 0 0.546875 -0.046875q0.28125 -0.0625 0.515625 -0.140625l0.21875 1.265625q-0.296875 0.125 -0.65625 0.203125q-0.359375 0.09375 -0.890625 0.09375q-0.671875 0 -1.109375 -0.171875q-0.4375 -0.1875 -0.703125 -0.5q-0.265625 -0.328125 -0.375 -0.78125q-0.09375 -0.46875 -0.09375 -1.03125l0 -4.875zm4.51268 4.390625q0 -0.78125 0.234375 -1.359375q0.234375 -0.578125 0.609375 -0.953125q0.390625 -0.390625 0.890625 -0.578125q0.5 -0.203125 1.03125 -0.203125q1.234375 0 1.9375 0.75q0.71875 0.75 0.71875 2.21875q0 0.140625 -0.015625 0.3125q0 0.171875 -0.015625 0.296875l-3.71875 0q0.0625 0.515625 0.46875 0.8125q0.421875 0.296875 1.125 0.296875q0.453125 0 0.890625 -0.078125q0.4375 -0.09375 0.71875 -0.21875l0.21875 1.34375q-0.140625 0.0625 -0.359375 0.125q-0.21875 0.0625 -0.484375 0.109375q-0.265625 0.0625 -0.578125 0.09375q-0.3125 0.03125 -0.625 0.03125q-0.78125 0 -1.359375 -0.234375q-0.578125 -0.234375 -0.953125 -0.625q-0.375 -0.40625 -0.5625 -0.953125q-0.171875 -0.5625 -0.171875 -1.1875zm3.84375 -0.625q-0.015625 -0.21875 -0.078125 -0.40625q-0.046875 -0.203125 -0.1875 -0.359375q-0.125 -0.15625 -0.3125 -0.25q-0.1875 -0.109375 -0.484375 -0.109375q-0.265625 0 -0.46875 0.09375q-0.1875 0.09375 -0.328125 0.25q-0.125 0.15625 -0.203125 0.359375q-0.0625 0.203125 -0.109375 0.421875l2.171875 0zm5.8326874 0.40625q0 -0.796875 -0.203125 -1.125q-0.203125 -0.328125 -0.703125 -0.328125q-0.15625 0 -0.328125 0.015625q-0.15625 0.015625 -0.3125 0.03125l0 4.46875l-1.640625 0l0 -5.59375q0.21875 -0.046875 0.5 -0.109375q0.28125 -0.0625 0.59375 -0.109375q0.3125 -0.046875 0.640625 -0.078125q0.328125 -0.03125 0.640625 -0.03125q0.625 0 1.015625 0.171875q0.390625 0.15625 0.65625 0.375q0.34375 -0.25 0.796875 -0.390625q0.46875 -0.15625 0.84375 -0.15625q0.703125 0 1.140625 0.203125q0.453125 0.1875 0.703125 0.546875q0.265625 0.34375 0.359375 0.828125q0.109375 0.484375 0.109375 1.078125l0 3.265625l-1.640625 0l0 -3.0625q0 -0.796875 -0.203125 -1.125q-0.203125 -0.328125 -0.703125 -0.328125q-0.125 0 -0.359375 0.0625q-0.234375 0.0625 -0.390625 0.15625q0.078125 0.265625 0.09375 0.546875q0.03125 0.28125 0.03125 0.59375l0 3.15625l-1.640625 0l0 -3.0625z" fill-rule="nonzero"></path><path fill="#000000" fill-opacity="0.0" d="m6.575954 111.7857l63.086613 0l0 23.11811l-63.086613 0z" fill-rule="nonzero"></path><path fill="#594c8e" d="m52.011 126.241005q-1.859375 0 -2.84375 -1.03125q-0.96875 -1.03125 -0.96875 -2.9375q0 -0.953125 0.296875 -1.6875q0.296875 -0.75 0.8125 -1.25q0.515625 -0.515625 1.234375 -0.78125q0.71875 -0.265625 1.546875 -0.265625q0.484375 0 0.875 0.078125q0.40625 0.0625 0.703125 0.15625q0.296875 0.09375 0.484375 0.203125q0.203125 0.09375 0.296875 0.140625l-0.5 1.390625q-0.34375 -0.1875 -0.8125 -0.3125q-0.46875 -0.140625 -1.0625 -0.140625q-0.390625 0 -0.78125 0.140625q-0.375 0.125 -0.671875 0.421875q-0.28125 0.28125 -0.46875 0.75q-0.171875 0.453125 -0.171875 1.125q0 0.515625 0.109375 0.984375q0.125 0.453125 0.375 0.78125q0.265625 0.328125 0.6875 0.53125q0.421875 0.1875 1.015625 0.1875q0.375 0 0.671875 -0.046875q0.296875 -0.046875 0.515625 -0.109375q0.234375 -0.0625 0.40625 -0.140625q0.1875 -0.078125 0.328125 -0.140625l0.46875 1.375q-0.359375 0.21875 -1.03125 0.40625q-0.65625 0.171875 -1.515625 0.171875zm3.0771942 -4.125l1.84375 0l0 -2.03125l1.5 0l0 2.03125l1.828125 0l0 1.375l-1.828125 0l0 2.03125l-1.5 0l0 -2.03125l-1.84375 0l0 -1.375zm6.0528107 0l1.84375 0l0 -2.03125l1.5 0l0 2.03125l1.828125 0l0 1.375l-1.828125 0l0 2.03125l-1.5 0l0 -2.03125l-1.84375 0l0 -1.375z" fill-rule="nonzero"></path><path fill="#5c5299" d="m108.34605 54.1799l0 0c0 -2.8962326 2.6016846 -5.244091 5.8110275 -5.244091l0 0c3.2093353 0 5.81102 2.3478584 5.81102 5.244091l0 0c0 2.8962364 -2.6016846 5.244095 -5.81102 5.244095l0 0c-3.209343 0 -5.8110275 -2.3478584 -5.8110275 -5.244095z" fill-rule="nonzero"></path><path stroke="#5c5299" stroke-width="2.0" stroke-linejoin="round" stroke-linecap="butt" d="m108.34605 54.1799l0 0c0 -2.8962326 2.6016846 -5.244091 5.8110275 -5.244091l0 0c3.2093353 0 5.81102 2.3478584 5.81102 5.244091l0 0c0 2.8962364 -2.6016846 5.244095 -5.81102 5.244095l0 0c-3.209343 0 -5.8110275 -2.3478584 -5.8110275 -5.244095z" fill-rule="nonzero"></path><path fill="#5c5299" d="m123.644356 54.1799l0 0c0 -2.8962326 2.6016846 -5.244091 5.8110275 -5.244091l0 0c3.2093353 0 5.81102 2.3478584 5.81102 5.244091l0 0c0 2.8962364 -2.6016846 5.244095 -5.81102 5.244095l0 0c-3.209343 0 -5.8110275 -2.3478584 -5.8110275 -5.244095z" fill-rule="nonzero"></path><path stroke="#5c5299" stroke-width="2.0" stroke-linejoin="round" stroke-linecap="butt" d="m123.644356 54.1799l0 0c0 -2.8962326 2.6016846 -5.244091 5.8110275 -5.244091l0 0c3.2093353 0 5.81102 2.3478584 5.81102 5.244091l0 0c0 2.8962364 -2.6016846 5.244095 -5.81102 5.244095l0 0c-3.209343 0 -5.8110275 -2.3478584 -5.8110275 -5.244095z" fill-rule="nonzero"></path><path fill="#5c5299" d="m77.74943 54.1799l0 0c0 -2.8962326 2.6016846 -5.244091 5.81102 -5.244091l0 0c3.209343 0 5.8110275 2.3478584 5.8110275 5.244091l0 0c0 2.8962364 -2.6016846 5.244095 -5.8110275 5.244095l0 0c-3.2093353 0 -5.81102 -2.3478584 -5.81102 -5.244095z" fill-rule="nonzero"></path><path stroke="#5c5299" stroke-width="2.0" stroke-linejoin="round" stroke-linecap="butt" d="m77.74943 54.1799l0 0c0 -2.8962326 2.6016846 -5.244091 5.81102 -5.244091l0 0c3.209343 0 5.8110275 2.3478584 5.8110275 5.244091l0 0c0 2.8962364 -2.6016846 5.244095 -5.8110275 5.244095l0 0c-3.2093353 0 -5.81102 -2.3478584 -5.81102 -5.244095z" fill-rule="nonzero"></path><path fill="#5c5299" d="m93.04774 54.1799l0 0c0 -2.8962326 2.6016846 -5.244091 5.81102 -5.244091l0 0c3.209343 0 5.8110275 2.3478584 5.8110275 5.244091l0 0c0 2.8962364 -2.6016846 5.244095 -5.8110275 5.244095l0 0c-3.2093353 0 -5.81102 -2.3478584 -5.81102 -5.244095z" fill-rule="nonzero"></path><path stroke="#5c5299" stroke-width="2.0" stroke-linejoin="round" stroke-linecap="butt" d="m93.04774 54.1799l0 0c0 -2.8962326 2.6016846 -5.244091 5.81102 -5.244091l0 0c3.209343 0 5.8110275 2.3478584 5.8110275 5.244091l0 0c0 2.8962364 -2.6016846 5.244095 -5.8110275 5.244095l0 0c-3.2093353 0 -5.81102 -2.3478584 -5.81102 -5.244095z" fill-rule="nonzero"></path><path fill="#000000" fill-opacity="0.0" d="m163.39102 43.459316l69.25984 0l0 23.118114l-69.25984 0z" fill-rule="nonzero"></path><path fill="#594c8e" d="m191.32088 57.914623q-1.859375 0 -2.84375 -1.03125q-0.96875 -1.03125 -0.96875 -2.9375q0 -0.953125 0.296875 -1.6875q0.296875 -0.75 0.8125 -1.25q0.515625 -0.515625 1.234375 -0.78125q0.71875 -0.265625 1.546875 -0.265625q0.484375 0 0.875 0.078125q0.40625 0.0625 0.703125 0.15625q0.296875 0.09375 0.484375 0.203125q0.203125 0.09375 0.296875 0.140625l-0.5 1.390625q-0.34375 -0.1875 -0.8125 -0.3125q-0.46875 -0.140625 -1.0625 -0.140625q-0.390625 0 -0.78125 0.140625q-0.375 0.125 -0.671875 0.421875q-0.28125 0.28125 -0.46875 0.75q-0.171875 0.453125 -0.171875 1.125q0 0.515625 0.109375 0.984375q0.125 0.453125 0.375 0.78125q0.265625 0.328125 0.6875 0.53125q0.421875 0.1875 1.015625 0.1875q0.375 0 0.671875 -0.046875q0.296875 -0.046875 0.515625 -0.109375q0.234375 -0.0625 0.40625 -0.140625q0.1875 -0.078125 0.328125 -0.140625l0.46875 1.375q-0.359375 0.21875 -1.03125 0.40625q-0.65625 0.171875 -1.515625 0.171875zm6.124069 -5.90625l1.265625 0l0.375 -1.875l1.421875 0l-0.359375 1.875l0.796875 0l0 1.265625l-1.046875 0l-0.25 1.34375l1.296875 0l0 1.265625l-1.546875 0l-0.34375 1.875l-1.4375 0l0.359375 -1.875l-1.28125 0l-0.359375 1.875l-1.421875 0l0.34375 -1.875l-0.78125 0l0 -1.265625l1.03125 0l0.265625 -1.34375l-1.296875 0l0 -1.265625l1.53125 0l0.375 -1.875l1.421875 0l-0.359375 1.875zm-0.515625 2.609375l1.28125 0l0.265625 -1.34375l-1.28125 0l-0.265625 1.34375zm5.7925415 5.171875l-1.6875 0l3.703125 -10.640625l1.65625 0l-3.671875 10.640625zm5.62558 -2.90625q0 0.5 -0.3125 0.765625q-0.3125 0.25 -0.703125 0.25q-0.40625 0 -0.71875 -0.25q-0.3125 -0.265625 -0.3125 -0.765625q0 -0.484375 0.3125 -0.734375q0.3125 -0.265625 0.71875 -0.265625q0.390625 0 0.703125 0.265625q0.3125 0.25 0.3125 0.734375zm6.24646 0.875q-0.734375 -1.3125 -1.59375 -2.578125q-0.859375 -1.28125 -1.828125 -2.421875l0 5.0l-1.703125 0l0 -7.625l1.40625 0q0.359375 0.359375 0.796875 0.890625q0.4375 0.53125 0.890625 1.140625q0.46875 0.59375 0.90625 1.234375q0.453125 0.640625 0.859375 1.234375l0 -4.5l1.703125 0l0 7.625l-1.4375 0zm2.9312134 0l0 -7.625l5.15625 0l0 1.4375l-3.4375 0l0 1.5l3.046875 0l0 1.40625l-3.046875 0l0 1.84375l3.6875 0l0 1.4375l-5.40625 0zm12.113998 -7.625l0 1.46875l-2.296875 0l0 6.15625l-1.71875 0l0 -6.15625l-2.296875 0l0 -1.46875l6.3125 0z" fill-rule="nonzero"></path><path fill="#000000" fill-opacity="0.0" d="m166.04721 66.23622l66.61417 0l0 23.11811l-66.61417 0z" fill-rule="nonzero"></path><path fill="#594c8e" d="m175.3792 79.22278q0.375 0 0.609375 -0.0625q0.234375 -0.0625 0.375 -0.15625q0.140625 -0.109375 0.1875 -0.25q0.0625 -0.140625 0.0625 -0.3125q0 -0.375 -0.359375 -0.625q-0.34375 -0.25 -1.203125 -0.53125q-0.375 -0.140625 -0.75 -0.3125q-0.375 -0.171875 -0.671875 -0.421875q-0.296875 -0.265625 -0.484375 -0.625q-0.1875 -0.375 -0.1875 -0.90625q0 -0.515625 0.203125 -0.9375q0.203125 -0.4375 0.5625 -0.734375q0.359375 -0.296875 0.875 -0.453125q0.515625 -0.15625 1.171875 -0.15625q0.765625 0 1.328125 0.171875q0.5625 0.15625 0.921875 0.359375l-0.484375 1.34375q-0.328125 -0.15625 -0.71875 -0.28125q-0.390625 -0.140625 -0.9375 -0.140625q-0.609375 0 -0.890625 0.171875q-0.265625 0.171875 -0.265625 0.53125q0 0.203125 0.09375 0.359375q0.109375 0.140625 0.28125 0.25q0.1875 0.109375 0.421875 0.203125q0.234375 0.09375 0.53125 0.203125q0.59375 0.21875 1.03125 0.4375q0.4375 0.203125 0.71875 0.5q0.296875 0.28125 0.4375 0.671875q0.15625 0.375 0.15625 0.921875q0 1.078125 -0.75 1.671875q-0.75 0.578125 -2.265625 0.578125q-0.5 0 -0.90625 -0.0625q-0.40625 -0.0625 -0.71875 -0.140625q-0.3125 -0.09375 -0.546875 -0.1875q-0.21875 -0.109375 -0.375 -0.1875l0.484375 -1.375q0.34375 0.1875 0.84375 0.34375q0.5 0.140625 1.21875 0.140625zm3.7488708 -1.578125q0 -0.625 0.203125 -1.171875q0.203125 -0.5625 0.578125 -0.96875q0.390625 -0.421875 0.9375 -0.65625q0.546875 -0.25 1.25 -0.25q0.46875 0 0.84375 0.078125q0.390625 0.078125 0.765625 0.234375l-0.34375 1.3125q-0.234375 -0.09375 -0.515625 -0.15625q-0.265625 -0.0625 -0.609375 -0.0625q-0.734375 0 -1.09375 0.453125q-0.34375 0.453125 -0.34375 1.1875q0 0.78125 0.328125 1.21875q0.34375 0.421875 1.171875 0.421875q0.296875 0 0.640625 -0.046875q0.34375 -0.0625 0.625 -0.1875l0.234375 1.34375q-0.28125 0.125 -0.71875 0.203125q-0.421875 0.09375 -0.9375 0.09375q-0.796875 0 -1.375 -0.234375q-0.5625 -0.234375 -0.9375 -0.640625q-0.359375 -0.421875 -0.53125 -0.96875q-0.171875 -0.5625 -0.171875 -1.203125zm9.078186 -1.4375q-0.21875 -0.0625 -0.515625 -0.125q-0.296875 -0.0625 -0.625 -0.0625q-0.15625 0 -0.375 0.03125q-0.21875 0.03125 -0.328125 0.0625l0 4.421875l-1.640625 0l0 -5.484375q0.4375 -0.140625 1.03125 -0.28125q0.609375 -0.140625 1.34375 -0.140625q0.140625 0 0.328125 0.015625q0.1875 0.015625 0.375 0.046875q0.1875 0.03125 0.375 0.078125q0.1875 0.03125 0.3125 0.078125l-0.28125 1.359375zm2.6532288 4.328125l-1.640625 0l0 -5.78125l1.640625 0l0 5.78125zm0.15625 -7.453125q0 0.453125 -0.296875 0.71875q-0.28125 0.25 -0.6875 0.25q-0.390625 0 -0.6875 -0.25q-0.28125 -0.265625 -0.28125 -0.71875q0 -0.453125 0.28125 -0.703125q0.296875 -0.265625 0.6875 -0.265625q0.40625 0 0.6875 0.265625q0.296875 0.25 0.296875 0.703125zm5.0015564 4.609375q0 -0.765625 -0.34375 -1.21875q-0.34375 -0.453125 -1.015625 -0.453125q-0.21875 0 -0.40625 0.015625q-0.1875 0.015625 -0.3125 0.03125l0 2.96875q0.15625 0.09375 0.40625 0.15625q0.25 0.0625 0.5 0.0625q1.171875 0 1.171875 -1.5625zm1.671875 -0.046875q0 0.671875 -0.171875 1.21875q-0.171875 0.546875 -0.484375 0.953125q-0.3125 0.390625 -0.796875 0.609375q-0.46875 0.21875 -1.078125 0.21875q-0.34375 0 -0.640625 -0.0625q-0.296875 -0.0625 -0.578125 -0.1875l0 2.171875l-1.640625 0l0 -7.625q0.21875 -0.0625 0.5 -0.125q0.296875 -0.0625 0.609375 -0.09375q0.3125 -0.046875 0.640625 -0.078125q0.328125 -0.03125 0.625 -0.03125q0.703125 0 1.265625 0.21875q0.5625 0.21875 0.9375 0.609375q0.390625 0.390625 0.59375 0.953125q0.21875 0.546875 0.21875 1.25zm0.99894714 -4.34375l1.640625 -0.25l0 1.703125l1.96875 0l0 1.359375l-1.96875 0l0 2.03125q0 0.515625 0.171875 0.828125q0.1875 0.3125 0.734375 0.3125q0.265625 0 0.546875 -0.046875q0.28125 -0.0625 0.515625 -0.140625l0.21875 1.265625q-0.296875 0.125 -0.65625 0.203125q-0.359375 0.09375 -0.890625 0.09375q-0.671875 0 -1.109375 -0.171875q-0.4375 -0.1875 -0.703125 -0.5q-0.265625 -0.328125 -0.375 -0.78125q-0.09375 -0.46875 -0.09375 -1.03125l0 -4.875zm9.007706 6.0625q0.4375 0 0.625 -0.09375q0.1875 -0.09375 0.1875 -0.34375q0 -0.1875 -0.25 -0.328125q-0.234375 -0.15625 -0.71875 -0.34375q-0.390625 -0.15625 -0.703125 -0.296875q-0.3125 -0.15625 -0.53125 -0.375q-0.21875 -0.21875 -0.34375 -0.515625q-0.125 -0.296875 -0.125 -0.71875q0 -0.8125 0.609375 -1.28125q0.609375 -0.46875 1.65625 -0.46875q0.53125 0 1.015625 0.09375q0.484375 0.09375 0.765625 0.203125l-0.28125 1.28125q-0.28125 -0.109375 -0.625 -0.1875q-0.328125 -0.078125 -0.75 -0.078125q-0.765625 0 -0.765625 0.4375q0 0.09375 0.03125 0.171875q0.03125 0.078125 0.125 0.15625q0.109375 0.0625 0.28125 0.15625q0.171875 0.078125 0.421875 0.171875q0.546875 0.203125 0.890625 0.390625q0.359375 0.1875 0.5625 0.421875q0.203125 0.21875 0.28125 0.5q0.09375 0.265625 0.09375 0.640625q0 0.859375 -0.65625 1.296875q-0.640625 0.4375 -1.8125 0.4375q-0.765625 0 -1.28125 -0.140625q-0.515625 -0.125 -0.71875 -0.21875l0.28125 -1.328125q0.421875 0.171875 0.859375 0.265625q0.4375 0.09375 0.875 0.09375zm3.49646 1.171875l0 -8.265625l1.640625 -0.265625l0 2.765625q0.171875 -0.046875 0.421875 -0.09375q0.265625 -0.0625 0.5 -0.0625q0.703125 0 1.171875 0.203125q0.46875 0.1875 0.75 0.546875q0.28125 0.34375 0.390625 0.828125q0.125 0.484375 0.125 1.078125l0 3.265625l-1.640625 0l0 -3.0625q0 -0.796875 -0.203125 -1.125q-0.203125 -0.328125 -0.75 -0.328125q-0.21875 0 -0.421875 0.046875q-0.1875 0.03125 -0.34375 0.0625l0 4.40625l-1.640625 0zm6.010971 -2.84375q0 -0.78125 0.234375 -1.359375q0.234375 -0.578125 0.609375 -0.953125q0.390625 -0.390625 0.890625 -0.578125q0.5 -0.203125 1.03125 -0.203125q1.234375 0 1.9375 0.75q0.71875 0.75 0.71875 2.21875q0 0.140625 -0.015625 0.3125q0 0.171875 -0.015625 0.296875l-3.71875 0q0.0625 0.515625 0.46875 0.8125q0.421875 0.296875 1.125 0.296875q0.453125 0 0.890625 -0.078125q0.4375 -0.09375 0.71875 -0.21875l0.21875 1.34375q-0.140625 0.0625 -0.359375 0.125q-0.21875 0.0625 -0.484375 0.109375q-0.265625 0.0625 -0.578125 0.09375q-0.3125 0.03125 -0.625 0.03125q-0.78125 0 -1.359375 -0.234375q-0.578125 -0.234375 -0.953125 -0.625q-0.375 -0.40625 -0.5625 -0.953125q-0.171875 -0.5625 -0.171875 -1.1875zm3.84375 -0.625q-0.015625 -0.21875 -0.078125 -0.40625q-0.046875 -0.203125 -0.1875 -0.359375q-0.125 -0.15625 -0.3125 -0.25q-0.1875 -0.109375 -0.484375 -0.109375q-0.265625 0 -0.46875 0.09375q-0.1875 0.09375 -0.328125 0.25q-0.125 0.15625 -0.203125 0.359375q-0.0625 0.203125 -0.109375 0.421875l2.171875 0zm4.9576874 3.578125q-0.71875 -0.015625 -1.171875 -0.15625q-0.4375 -0.140625 -0.703125 -0.390625q-0.25 -0.265625 -0.34375 -0.625q-0.09375 -0.375 -0.09375 -0.84375l0 -6.359375l1.640625 -0.265625l0 6.296875q0 0.21875 0.03125 0.40625q0.03125 0.171875 0.125 0.296875q0.09375 0.109375 0.265625 0.1875q0.1875 0.078125 0.484375 0.09375l-0.234375 1.359375zm3.3674164 0q-0.71875 -0.015625 -1.171875 -0.15625q-0.4375 -0.140625 -0.703125 -0.390625q-0.25 -0.265625 -0.34375 -0.625q-0.09375 -0.375 -0.09375 -0.84375l0 -6.359375l1.640625 -0.265625l0 6.296875q0 0.21875 0.03125 0.40625q0.03125 0.171875 0.125 0.296875q0.09375 0.109375 0.265625 0.1875q0.1875 0.078125 0.484375 0.09375l-0.234375 1.359375z" fill-rule="nonzero"></path><path fill="#5c5299" d="m138.94267 54.1799l0 0c0 -2.8962326 2.6016846 -5.244091 5.81102 -5.244091l0 0c3.2093353 0 5.81102 2.3478584 5.81102 5.244091l0 0c0 2.8962364 -2.6016846 5.244095 -5.81102 5.244095l0 0c-3.2093353 0 -5.81102 -2.3478584 -5.81102 -5.244095z" fill-rule="nonzero"></path><path stroke="#5c5299" stroke-width="2.0" stroke-linejoin="round" stroke-linecap="butt" d="m138.94267 54.1799l0 0c0 -2.8962326 2.6016846 -5.244091 5.81102 -5.244091l0 0c3.2093353 0 5.81102 2.3478584 5.81102 5.244091l0 0c0 2.8962364 -2.6016846 5.244095 -5.81102 5.244095l0 0c-3.2093353 0 -5.81102 -2.3478584 -5.81102 -5.244095z" fill-rule="nonzero"></path><path fill="#000000" fill-opacity="0.0" d="m108.344734 77.794075l0 0c0 -2.8962326 2.6016846 -5.244095 5.8110275 -5.244095l0 0c3.2093353 0 5.81102 2.3478622 5.81102 5.244095l0 0c0 2.8962326 -2.6016846 5.244095 -5.81102 5.244095l0 0c-3.209343 0 -5.8110275 -2.3478622 -5.8110275 -5.244095z" fill-rule="nonzero"></path><path stroke="#5c5299" stroke-width="2.0" stroke-linejoin="round" stroke-linecap="butt" d="m108.344734 77.794075l0 0c0 -2.8962326 2.6016846 -5.244095 5.8110275 -5.244095l0 0c3.2093353 0 5.81102 2.3478622 5.81102 5.244095l0 0c0 2.8962326 -2.6016846 5.244095 -5.81102 5.244095l0 0c-3.209343 0 -5.8110275 -2.3478622 -5.8110275 -5.244095z" fill-rule="nonzero"></path><path fill="#000000" fill-opacity="0.0" d="m123.64304 77.794075l0 0c0 -2.8962326 2.6016846 -5.244095 5.8110275 -5.244095l0 0c3.2093353 0 5.81102 2.3478622 5.81102 5.244095l0 0c0 2.8962326 -2.6016846 5.244095 -5.81102 5.244095l0 0c-3.209343 0 -5.8110275 -2.3478622 -5.8110275 -5.244095z" fill-rule="nonzero"></path><path stroke="#5c5299" stroke-width="2.0" stroke-linejoin="round" stroke-linecap="butt" d="m123.64304 77.794075l0 0c0 -2.8962326 2.6016846 -5.244095 5.8110275 -5.244095l0 0c3.2093353 0 5.81102 2.3478622 5.81102 5.244095l0 0c0 2.8962326 -2.6016846 5.244095 -5.81102 5.244095l0 0c-3.209343 0 -5.8110275 -2.3478622 -5.8110275 -5.244095z" fill-rule="nonzero"></path><path fill="#5c5299" d="m77.748116 77.794075l0 0c0 -2.8962326 2.6016846 -5.244095 5.81102 -5.244095l0 0c3.209343 0 5.8110275 2.3478622 5.8110275 5.244095l0 0c0 2.8962326 -2.6016846 5.244095 -5.8110275 5.244095l0 0c-3.2093353 0 -5.81102 -2.3478622 -5.81102 -5.244095z" fill-rule="nonzero"></path><path stroke="#5c5299" stroke-width="2.0" stroke-linejoin="round" stroke-linecap="butt" d="m77.748116 77.794075l0 0c0 -2.8962326 2.6016846 -5.244095 5.81102 -5.244095l0 0c3.209343 0 5.8110275 2.3478622 5.8110275 5.244095l0 0c0 2.8962326 -2.6016846 5.244095 -5.8110275 5.244095l0 0c-3.2093353 0 -5.81102 -2.3478622 -5.81102 -5.244095z" fill-rule="nonzero"></path><path fill="#5c5299" d="m93.046425 77.794075l0 0c0 -2.8962326 2.6016846 -5.244095 5.81102 -5.244095l0 0c3.209343 0 5.8110275 2.3478622 5.8110275 5.244095l0 0c0 2.8962326 -2.6016846 5.244095 -5.8110275 5.244095l0 0c-3.2093353 0 -5.81102 -2.3478622 -5.81102 -5.244095z" fill-rule="nonzero"></path><path stroke="#5c5299" stroke-width="2.0" stroke-linejoin="round" stroke-linecap="butt" d="m93.046425 77.794075l0 0c0 -2.8962326 2.6016846 -5.244095 5.81102 -5.244095l0 0c3.209343 0 5.8110275 2.3478622 5.8110275 5.244095l0 0c0 2.8962326 -2.6016846 5.244095 -5.8110275 5.244095l0 0c-3.2093353 0 -5.81102 -2.3478622 -5.81102 -5.244095z" fill-rule="nonzero"></path><path fill="#000000" fill-opacity="0.0" d="m138.94136 77.794075l0 0c0 -2.8962326 2.6016846 -5.244095 5.81102 -5.244095l0 0c3.2093353 0 5.81102 2.3478622 5.81102 5.244095l0 0c0 2.8962326 -2.6016846 5.244095 -5.81102 5.244095l0 0c-3.2093353 0 -5.81102 -2.3478622 -5.81102 -5.244095z" fill-rule="nonzero"></path><path stroke="#5c5299" stroke-width="2.0" stroke-linejoin="round" stroke-linecap="butt" d="m138.94136 77.794075l0 0c0 -2.8962326 2.6016846 -5.244095 5.81102 -5.244095l0 0c3.2093353 0 5.81102 2.3478622 5.81102 5.244095l0 0c0 2.8962326 -2.6016846 5.244095 -5.81102 5.244095l0 0c-3.2093353 0 -5.81102 -2.3478622 -5.81102 -5.244095z" fill-rule="nonzero"></path><path fill="#5c5299" d="m108.344734 100.5631l0 0c0 -2.8962326 2.6016846 -5.244095 5.8110275 -5.244095l0 0c3.2093353 0 5.81102 2.3478622 5.81102 5.244095l0 0c0 2.8962326 -2.6016846 5.244095 -5.81102 5.244095l0 0c-3.209343 0 -5.8110275 -2.3478622 -5.8110275 -5.244095z" fill-rule="nonzero"></path><path stroke="#5c5299" stroke-width="2.0" stroke-linejoin="round" stroke-linecap="butt" d="m108.344734 100.5631l0 0c0 -2.8962326 2.6016846 -5.244095 5.8110275 -5.244095l0 0c3.2093353 0 5.81102 2.3478622 5.81102 5.244095l0 0c0 2.8962326 -2.6016846 5.244095 -5.81102 5.244095l0 0c-3.209343 0 -5.8110275 -2.3478622 -5.8110275 -5.244095z" fill-rule="nonzero"></path><path fill="#5c5299" d="m123.64304 100.5631l0 0c0 -2.8962326 2.6016846 -5.244095 5.8110275 -5.244095l0 0c3.2093353 0 5.81102 2.3478622 5.81102 5.244095l0 0c0 2.8962326 -2.6016846 5.244095 -5.81102 5.244095l0 0c-3.209343 0 -5.8110275 -2.3478622 -5.8110275 -5.244095z" fill-rule="nonzero"></path><path stroke="#5c5299" stroke-width="2.0" stroke-linejoin="round" stroke-linecap="butt" d="m123.64304 100.5631l0 0c0 -2.8962326 2.6016846 -5.244095 5.8110275 -5.244095l0 0c3.2093353 0 5.81102 2.3478622 5.81102 5.244095l0 0c0 2.8962326 -2.6016846 5.244095 -5.81102 5.244095l0 0c-3.209343 0 -5.8110275 -2.3478622 -5.8110275 -5.244095z" fill-rule="nonzero"></path><path fill="#5c5299" d="m77.748116 100.5631l0 0c0 -2.8962326 2.6016846 -5.244095 5.81102 -5.244095l0 0c3.209343 0 5.8110275 2.3478622 5.8110275 5.244095l0 0c0 2.8962326 -2.6016846 5.244095 -5.8110275 5.244095l0 0c-3.2093353 0 -5.81102 -2.3478622 -5.81102 -5.244095z" fill-rule="nonzero"></path><path stroke="#5c5299" stroke-width="2.0" stroke-linejoin="round" stroke-linecap="butt" d="m77.748116 100.5631l0 0c0 -2.8962326 2.6016846 -5.244095 5.81102 -5.244095l0 0c3.209343 0 5.8110275 2.3478622 5.8110275 5.244095l0 0c0 2.8962326 -2.6016846 5.244095 -5.8110275 5.244095l0 0c-3.2093353 0 -5.81102 -2.3478622 -5.81102 -5.244095z" fill-rule="nonzero"></path><path fill="#5c5299" d="m93.046425 100.5631l0 0c0 -2.8962326 2.6016846 -5.244095 5.81102 -5.244095l0 0c3.209343 0 5.8110275 2.3478622 5.8110275 5.244095l0 0c0 2.8962326 -2.6016846 5.244095 -5.8110275 5.244095l0 0c-3.2093353 0 -5.81102 -2.3478622 -5.81102 -5.244095z" fill-rule="nonzero"></path><path stroke="#5c5299" stroke-width="2.0" stroke-linejoin="round" stroke-linecap="butt" d="m93.046425 100.5631l0 0c0 -2.8962326 2.6016846 -5.244095 5.81102 -5.244095l0 0c3.209343 0 5.8110275 2.3478622 5.8110275 5.244095l0 0c0 2.8962326 -2.6016846 5.244095 -5.8110275 5.244095l0 0c-3.2093353 0 -5.81102 -2.3478622 -5.81102 -5.244095z" fill-rule="nonzero"></path><path fill="#000000" fill-opacity="0.0" d="m138.94136 100.5631l0 0c0 -2.8962326 2.6016846 -5.244095 5.81102 -5.244095l0 0c3.2093353 0 5.81102 2.3478622 5.81102 5.244095l0 0c0 2.8962326 -2.6016846 5.244095 -5.81102 5.244095l0 0c-3.2093353 0 -5.81102 -2.3478622 -5.81102 -5.244095z" fill-rule="nonzero"></path><path stroke="#5c5299" stroke-width="2.0" stroke-linejoin="round" stroke-linecap="butt" d="m138.94136 100.5631l0 0c0 -2.8962326 2.6016846 -5.244095 5.81102 -5.244095l0 0c3.2093353 0 5.81102 2.3478622 5.81102 5.244095l0 0c0 2.8962326 -2.6016846 5.244095 -5.81102 5.244095l0 0c-3.2093353 0 -5.81102 -2.3478622 -5.81102 -5.244095z" fill-rule="nonzero"></path><path fill="#5c5299" d="m108.344734 123.33213l0 0c0 -2.8962326 2.6016846 -5.244095 5.8110275 -5.244095l0 0c3.2093353 0 5.81102 2.3478622 5.81102 5.244095l0 0c0 2.8962402 -2.6016846 5.2441025 -5.81102 5.2441025l0 0c-3.209343 0 -5.8110275 -2.3478622 -5.8110275 -5.2441025z" fill-rule="nonzero"></path><path stroke="#5c5299" stroke-width="2.0" stroke-linejoin="round" stroke-linecap="butt" d="m108.344734 123.33213l0 0c0 -2.8962326 2.6016846 -5.244095 5.8110275 -5.244095l0 0c3.2093353 0 5.81102 2.3478622 5.81102 5.244095l0 0c0 2.8962402 -2.6016846 5.2441025 -5.81102 5.2441025l0 0c-3.209343 0 -5.8110275 -2.3478622 -5.8110275 -5.2441025z" fill-rule="nonzero"></path><path fill="#5c5299" d="m123.64304 123.33213l0 0c0 -2.8962326 2.6016846 -5.244095 5.8110275 -5.244095l0 0c3.2093353 0 5.81102 2.3478622 5.81102 5.244095l0 0c0 2.8962402 -2.6016846 5.2441025 -5.81102 5.2441025l0 0c-3.209343 0 -5.8110275 -2.3478622 -5.8110275 -5.2441025z" fill-rule="nonzero"></path><path stroke="#5c5299" stroke-width="2.0" stroke-linejoin="round" stroke-linecap="butt" d="m123.64304 123.33213l0 0c0 -2.8962326 2.6016846 -5.244095 5.8110275 -5.244095l0 0c3.2093353 0 5.81102 2.3478622 5.81102 5.244095l0 0c0 2.8962402 -2.6016846 5.2441025 -5.81102 5.2441025l0 0c-3.209343 0 -5.8110275 -2.3478622 -5.8110275 -5.2441025z" fill-rule="nonzero"></path><path fill="#5c5299" d="m77.748116 123.33213l0 0c0 -2.8962326 2.6016846 -5.244095 5.81102 -5.244095l0 0c3.209343 0 5.8110275 2.3478622 5.8110275 5.244095l0 0c0 2.8962402 -2.6016846 5.2441025 -5.8110275 5.2441025l0 0c-3.2093353 0 -5.81102 -2.3478622 -5.81102 -5.2441025z" fill-rule="nonzero"></path><path stroke="#5c5299" stroke-width="2.0" stroke-linejoin="round" stroke-linecap="butt" d="m77.748116 123.33213l0 0c0 -2.8962326 2.6016846 -5.244095 5.81102 -5.244095l0 0c3.209343 0 5.8110275 2.3478622 5.8110275 5.244095l0 0c0 2.8962402 -2.6016846 5.2441025 -5.8110275 5.2441025l0 0c-3.2093353 0 -5.81102 -2.3478622 -5.81102 -5.2441025z" fill-rule="nonzero"></path><path fill="#5c5299" d="m93.046425 123.33213l0 0c0 -2.8962326 2.6016846 -5.244095 5.81102 -5.244095l0 0c3.209343 0 5.8110275 2.3478622 5.8110275 5.244095l0 0c0 2.8962402 -2.6016846 5.2441025 -5.8110275 5.2441025l0 0c-3.2093353 0 -5.81102 -2.3478622 -5.81102 -5.2441025z" fill-rule="nonzero"></path><path stroke="#5c5299" stroke-width="2.0" stroke-linejoin="round" stroke-linecap="butt" d="m93.046425 123.33213l0 0c0 -2.8962326 2.6016846 -5.244095 5.81102 -5.244095l0 0c3.209343 0 5.8110275 2.3478622 5.8110275 5.244095l0 0c0 2.8962402 -2.6016846 5.2441025 -5.8110275 5.2441025l0 0c-3.2093353 0 -5.81102 -2.3478622 -5.81102 -5.2441025z" fill-rule="nonzero"></path><path fill="#000000" fill-opacity="0.0" d="m138.94136 123.33213l0 0c0 -2.8962326 2.6016846 -5.244095 5.81102 -5.244095l0 0c3.2093353 0 5.81102 2.3478622 5.81102 5.244095l0 0c0 2.8962402 -2.6016846 5.2441025 -5.81102 5.2441025l0 0c-3.2093353 0 -5.81102 -2.3478622 -5.81102 -5.2441025z" fill-rule="nonzero"></path><path stroke="#5c5299" stroke-width="2.0" stroke-linejoin="round" stroke-linecap="butt" d="m138.94136 123.33213l0 0c0 -2.8962326 2.6016846 -5.244095 5.81102 -5.244095l0 0c3.2093353 0 5.81102 2.3478622 5.81102 5.244095l0 0c0 2.8962402 -2.6016846 5.2441025 -5.81102 5.2441025l0 0c-3.2093353 0 -5.81102 -2.3478622 -5.81102 -5.2441025z" fill-rule="nonzero"></path><path fill="#5c5299" d="m268.2017 55.017174l0 0c0 -2.8962326 2.6016846 -5.244095 5.811035 -5.244095l0 0c3.20932 0 5.8110046 2.3478622 5.8110046 5.244095l0 0c0 2.8962326 -2.6016846 5.244095 -5.8110046 5.244095l0 0c-3.2093506 0 -5.811035 -2.3478622 -5.811035 -5.244095z" fill-rule="nonzero"></path><path stroke="#5c5299" stroke-width="2.0" stroke-linejoin="round" stroke-linecap="butt" d="m268.2017 55.017174l0 0c0 -2.8962326 2.6016846 -5.244095 5.811035 -5.244095l0 0c3.20932 0 5.8110046 2.3478622 5.8110046 5.244095l0 0c0 2.8962326 -2.6016846 5.244095 -5.8110046 5.244095l0 0c-3.2093506 0 -5.811035 -2.3478622 -5.811035 -5.244095z" fill-rule="nonzero"></path><path fill="#000000" fill-opacity="0.0" d="m283.5 55.017174l0 0c0 -2.8962326 2.6016846 -5.244095 5.811035 -5.244095l0 0c3.20932 0 5.8110046 2.3478622 5.8110046 5.244095l0 0c0 2.8962326 -2.6016846 5.244095 -5.8110046 5.244095l0 0c-3.2093506 0 -5.811035 -2.3478622 -5.811035 -5.244095z" fill-rule="nonzero"></path><path stroke="#5c5299" stroke-width="2.0" stroke-linejoin="round" stroke-linecap="butt" d="m283.5 55.017174l0 0c0 -2.8962326 2.6016846 -5.244095 5.811035 -5.244095l0 0c3.20932 0 5.8110046 2.3478622 5.8110046 5.244095l0 0c0 2.8962326 -2.6016846 5.244095 -5.8110046 5.244095l0 0c-3.2093506 0 -5.811035 -2.3478622 -5.811035 -5.244095z" fill-rule="nonzero"></path><path fill="#5c5299" d="m237.60507 55.017174l0 0c0 -2.8962326 2.6016846 -5.244095 5.81102 -5.244095l0 0c3.2093353 0 5.81102 2.3478622 5.81102 5.244095l0 0c0 2.8962326 -2.6016846 5.244095 -5.81102 5.244095l0 0c-3.2093353 0 -5.81102 -2.3478622 -5.81102 -5.244095z" fill-rule="nonzero"></path><path stroke="#5c5299" stroke-width="2.0" stroke-linejoin="round" stroke-linecap="butt" d="m237.60507 55.017174l0 0c0 -2.8962326 2.6016846 -5.244095 5.81102 -5.244095l0 0c3.2093353 0 5.81102 2.3478622 5.81102 5.244095l0 0c0 2.8962326 -2.6016846 5.244095 -5.81102 5.244095l0 0c-3.2093353 0 -5.81102 -2.3478622 -5.81102 -5.244095z" fill-rule="nonzero"></path><path fill="#5c5299" d="m252.90338 55.017174l0 0c0 -2.8962326 2.6016846 -5.244095 5.811035 -5.244095l0 0c3.20932 0 5.8110046 2.3478622 5.8110046 5.244095l0 0c0 2.8962326 -2.6016846 5.244095 -5.8110046 5.244095l0 0c-3.2093506 0 -5.811035 -2.3478622 -5.811035 -5.244095z" fill-rule="nonzero"></path><path stroke="#5c5299" stroke-width="2.0" stroke-linejoin="round" stroke-linecap="butt" d="m252.90338 55.017174l0 0c0 -2.8962326 2.6016846 -5.244095 5.811035 -5.244095l0 0c3.20932 0 5.8110046 2.3478622 5.8110046 5.244095l0 0c0 2.8962326 -2.6016846 5.244095 -5.8110046 5.244095l0 0c-3.2093506 0 -5.811035 -2.3478622 -5.811035 -5.244095z" fill-rule="nonzero"></path><path fill="#000000" fill-opacity="0.0" d="m298.7983 55.017174l0 0c0 -2.8962326 2.6016846 -5.244095 5.811035 -5.244095l0 0c3.20932 0 5.8110046 2.3478622 5.8110046 5.244095l0 0c0 2.8962326 -2.6016846 5.244095 -5.8110046 5.244095l0 0c-3.2093506 0 -5.811035 -2.3478622 -5.811035 -5.244095z" fill-rule="nonzero"></path><path stroke="#5c5299" stroke-width="2.0" stroke-linejoin="round" stroke-linecap="butt" d="m298.7983 55.017174l0 0c0 -2.8962326 2.6016846 -5.244095 5.811035 -5.244095l0 0c3.20932 0 5.8110046 2.3478622 5.8110046 5.244095l0 0c0 2.8962326 -2.6016846 5.244095 -5.8110046 5.244095l0 0c-3.2093506 0 -5.811035 -2.3478622 -5.811035 -5.244095z" fill-rule="nonzero"></path><path fill="#000000" fill-opacity="0.0" d="m268.20038 77.794075l0 0c0 -2.8962326 2.6016846 -5.244095 5.811035 -5.244095l0 0c3.20932 0 5.8110046 2.3478622 5.8110046 5.244095l0 0c0 2.8962326 -2.6016846 5.244095 -5.8110046 5.244095l0 0c-3.2093506 0 -5.811035 -2.3478622 -5.811035 -5.244095z" fill-rule="nonzero"></path><path stroke="#5c5299" stroke-width="2.0" stroke-linejoin="round" stroke-linecap="butt" d="m268.20038 77.794075l0 0c0 -2.8962326 2.6016846 -5.244095 5.811035 -5.244095l0 0c3.20932 0 5.8110046 2.3478622 5.8110046 5.244095l0 0c0 2.8962326 -2.6016846 5.244095 -5.8110046 5.244095l0 0c-3.2093506 0 -5.811035 -2.3478622 -5.811035 -5.244095z" fill-rule="nonzero"></path><path fill="#000000" fill-opacity="0.0" d="m283.4987 77.794075l0 0c0 -2.8962326 2.6016846 -5.244095 5.811035 -5.244095l0 0c3.20932 0 5.8110046 2.3478622 5.8110046 5.244095l0 0c0 2.8962326 -2.6016846 5.244095 -5.8110046 5.244095l0 0c-3.2093506 0 -5.811035 -2.3478622 -5.811035 -5.244095z" fill-rule="nonzero"></path><path stroke="#5c5299" stroke-width="2.0" stroke-linejoin="round" stroke-linecap="butt" d="m283.4987 77.794075l0 0c0 -2.8962326 2.6016846 -5.244095 5.811035 -5.244095l0 0c3.20932 0 5.8110046 2.3478622 5.8110046 5.244095l0 0c0 2.8962326 -2.6016846 5.244095 -5.8110046 5.244095l0 0c-3.2093506 0 -5.811035 -2.3478622 -5.811035 -5.244095z" fill-rule="nonzero"></path><path fill="#5c5299" d="m237.60376 77.794075l0 0c0 -2.8962326 2.6016846 -5.244095 5.81102 -5.244095l0 0c3.2093353 0 5.81102 2.3478622 5.81102 5.244095l0 0c0 2.8962326 -2.6016846 5.244095 -5.81102 5.244095l0 0c-3.2093353 0 -5.81102 -2.3478622 -5.81102 -5.244095z" fill-rule="nonzero"></path><path stroke="#5c5299" stroke-width="2.0" stroke-linejoin="round" stroke-linecap="butt" d="m237.60376 77.794075l0 0c0 -2.8962326 2.6016846 -5.244095 5.81102 -5.244095l0 0c3.2093353 0 5.81102 2.3478622 5.81102 5.244095l0 0c0 2.8962326 -2.6016846 5.244095 -5.81102 5.244095l0 0c-3.2093353 0 -5.81102 -2.3478622 -5.81102 -5.244095z" fill-rule="nonzero"></path><path fill="#5c5299" d="m252.90207 77.794075l0 0c0 -2.8962326 2.6016846 -5.244095 5.811035 -5.244095l0 0c3.20932 0 5.8110046 2.3478622 5.8110046 5.244095l0 0c0 2.8962326 -2.6016846 5.244095 -5.8110046 5.244095l0 0c-3.2093506 0 -5.811035 -2.3478622 -5.811035 -5.244095z" fill-rule="nonzero"></path><path stroke="#5c5299" stroke-width="2.0" stroke-linejoin="round" stroke-linecap="butt" d="m252.90207 77.794075l0 0c0 -2.8962326 2.6016846 -5.244095 5.811035 -5.244095l0 0c3.20932 0 5.8110046 2.3478622 5.8110046 5.244095l0 0c0 2.8962326 -2.6016846 5.244095 -5.8110046 5.244095l0 0c-3.2093506 0 -5.811035 -2.3478622 -5.811035 -5.244095z" fill-rule="nonzero"></path><path fill="#000000" fill-opacity="0.0" d="m298.797 77.794075l0 0c0 -2.8962326 2.6016846 -5.244095 5.811035 -5.244095l0 0c3.20932 0 5.8110046 2.3478622 5.8110046 5.244095l0 0c0 2.8962326 -2.6016846 5.244095 -5.8110046 5.244095l0 0c-3.2093506 0 -5.811035 -2.3478622 -5.811035 -5.244095z" fill-rule="nonzero"></path><path stroke="#5c5299" stroke-width="2.0" stroke-linejoin="round" stroke-linecap="butt" d="m298.797 77.794075l0 0c0 -2.8962326 2.6016846 -5.244095 5.811035 -5.244095l0 0c3.20932 0 5.8110046 2.3478622 5.8110046 5.244095l0 0c0 2.8962326 -2.6016846 5.244095 -5.8110046 5.244095l0 0c-3.2093506 0 -5.811035 -2.3478622 -5.811035 -5.244095z" fill-rule="nonzero"></path></g></svg>

