<?xml version="1.0" standalone="yes"?>

<svg version="1.1" viewBox="0.0 0.0 333.0 173.0" fill="none" stroke="none" stroke-linecap="square" stroke-miterlimit="10" xmlns="http://www.w3.org/2000/svg" xmlns:xlink="http://www.w3.org/1999/xlink"><clipPath id="p.0"><path d="m0 0l333.0 0l0 173.0l-333.0 0l0 -173.0z" clip-rule="nonzero"></path></clipPath><g clip-path="url(#p.0)"><path fill="#000000" fill-opacity="0.0" d="m0 0l333.0 0l0 173.0l-333.0 0z" fill-rule="nonzero"></path><path fill="#ffffff" d="m-0.005249344 -0.44356954l333.00787 0l0 173.00787l-333.00787 0z" fill-rule="nonzero"></path><path fill="#000000" fill-opacity="0.0" d="m63.361298 7.368518l206.26773 0l0 18.992126l-206.26773 0z" fill-rule="nonzero"></path><path fill="#594c8e" d="m118.58443 21.512266q0.15625 0.015625 0.34375 0.03125q0.1875 0 0.4375 0q1.53125 0 2.265625 -0.765625q0.734375 -0.765625 0.734375 -2.125q0 -1.40625 -0.703125 -2.140625q-0.703125 -0.73437405 -2.234375 -0.73437405q-0.203125 0 -0.421875 0.015625q-0.21875 0 -0.421875 0.03125l0 5.687499zm5.875 -2.859375q0 1.171875 -0.375 2.046875q-0.359375 0.875 -1.03125 1.453125q-0.671875 0.5625 -1.640625 0.84375q-0.953125 0.28125 -2.140625 0.28125q-0.546875 0 -1.28125 -0.046875q-0.734375 -0.03125 -1.421875 -0.171875l0 -8.781249q0.6875 -0.125 1.453125 -0.171875q0.765625 -0.046875 1.3125 -0.046875q1.15625 0 2.09375 0.265625q0.9375 0.25 1.609375 0.8125q0.6875 0.5625 1.046875 1.437499q0.375 0.859375 0.375 2.078125zm1.4634094 1.15625q0 -0.921875 0.28125 -1.59375q0.28125 -0.6875 0.734375 -1.140625q0.453125 -0.453125 1.046875 -0.6875q0.59375 -0.234375 1.21875 -0.234375q1.453125 0 2.296875 0.890625q0.84375 0.890625 0.84375 2.609375q0 0.171875 -0.015625 0.375q0 0.203125 -0.015625 0.359375l-4.390625 0q0.0625 0.59375 0.546875 0.953125q0.5 0.34375 1.328125 0.34375q0.53125 0 1.046875 -0.09375q0.515625 -0.09375 0.84375 -0.234375l0.265625 1.5625q-0.15625 0.078125 -0.421875 0.15625q-0.265625 0.078125 -0.578125 0.140625q-0.3125 0.0625 -0.6875 0.09375q-0.359375 0.046875 -0.71875 0.046875q-0.921875 0 -1.609375 -0.265625q-0.6875 -0.28125 -1.140625 -0.75q-0.4375 -0.484375 -0.65625 -1.125q-0.21875 -0.65625 -0.21875 -1.40625zm4.5625 -0.75q-0.015625 -0.25 -0.09375 -0.484375q-0.0625 -0.234375 -0.21875 -0.40625q-0.140625 -0.1875 -0.375 -0.296875q-0.234375 -0.125 -0.5625 -0.125q-0.328125 0 -0.5625 0.109375q-0.234375 0.109375 -0.390625 0.296875q-0.15625 0.171875 -0.25 0.421875q-0.078125 0.234375 -0.109375 0.484375l2.5625 0zm0.21875 -5.187499l-2.140625 1.8125l-0.875 -0.796875l1.84375 -2.109375l1.171875 1.09375zm5.18985 9.296874q-0.65625 -1.296875 -1.34375 -3.03125q-0.6875 -1.75 -1.296875 -3.8125l2.0625 0q0.125 0.515625 0.296875 1.109375q0.1875 0.59375 0.375 1.203125q0.1875 0.59375 0.375 1.171875q0.1875 0.5625 0.359375 1.03125q0.171875 -0.46875 0.359375 -1.03125q0.203125 -0.578125 0.390625 -1.171875q0.1875 -0.609375 0.359375 -1.203125q0.1875 -0.59375 0.3125 -1.109375l2.0 0q-0.609375 2.0625 -1.296875 3.8125q-0.671875 1.734375 -1.34375 3.03125l-1.609375 0zm5.1429443 -3.359375q0 -0.921875 0.28125 -1.59375q0.28125 -0.6875 0.734375 -1.140625q0.453125 -0.453125 1.046875 -0.6875q0.59375 -0.234375 1.21875 -0.234375q1.453125 0 2.296875 0.890625q0.84375 0.890625 0.84375 2.609375q0 0.171875 -0.015625 0.375q0 0.203125 -0.015625 0.359375l-4.390625 0q0.0625 0.59375 0.546875 0.953125q0.5 0.34375 1.328125 0.34375q0.53125 0 1.046875 -0.09375q0.515625 -0.09375 0.84375 -0.234375l0.265625 1.5625q-0.15625 0.078125 -0.421875 0.15625q-0.265625 0.078125 -0.578125 0.140625q-0.3125 0.0625 -0.6875 0.09375q-0.359375 0.046875 -0.71875 0.046875q-0.921875 0 -1.609375 -0.265625q-0.6875 -0.28125 -1.140625 -0.75q-0.4375 -0.484375 -0.65625 -1.125q-0.21875 -0.65625 -0.21875 -1.40625zm4.5625 -0.75q-0.015625 -0.25 -0.09375 -0.484375q-0.0625 -0.234375 -0.21875 -0.40625q-0.140625 -0.1875 -0.375 -0.296875q-0.234375 -0.125 -0.5625 -0.125q-0.328125 0 -0.5625 0.109375q-0.234375 0.109375 -0.390625 0.296875q-0.15625 0.171875 -0.25 0.421875q-0.078125 0.234375 -0.109375 0.484375l2.5625 0zm6.2836 4.234375q-0.84375 -0.015625 -1.375 -0.171875q-0.53125 -0.171875 -0.84375 -0.46875q-0.296875 -0.3125 -0.40625 -0.75q-0.109375 -0.4375 -0.109375 -0.984375l0 -7.531249l1.9375 -0.3125l0 7.453124q0 0.265625 0.03125 0.46875q0.046875 0.203125 0.15625 0.359375q0.109375 0.140625 0.3125 0.234375q0.21875 0.078125 0.5625 0.109375l-0.265625 1.59375zm7.883545 -3.5625q0 0.8125 -0.234375 1.484375q-0.234375 0.671875 -0.6875 1.140625q-0.4375 0.46875 -1.0625 0.734375q-0.609375 0.265625 -1.375 0.265625q-0.75 0 -1.375 -0.265625q-0.609375 -0.265625 -1.0625 -0.734375q-0.4375 -0.46875 -0.6875 -1.140625q-0.25 -0.671875 -0.25 -1.484375q0 -0.796875 0.25 -1.453125q0.265625 -0.671875 0.703125 -1.140625q0.453125 -0.46875 1.0625 -0.71875q0.625 -0.265625 1.359375 -0.265625q0.734375 0 1.34375 0.265625q0.625 0.25 1.0625 0.71875q0.453125 0.46875 0.703125 1.140625q0.25 0.65625 0.25 1.453125zm-1.984375 0q0 -0.890625 -0.359375 -1.40625q-0.359375 -0.515625 -1.015625 -0.515625q-0.671875 0 -1.03125 0.515625q-0.359375 0.515625 -0.359375 1.40625q0 0.90625 0.359375 1.4375q0.359375 0.515625 1.03125 0.515625q0.65625 0 1.015625 -0.515625q0.359375 -0.53125 0.359375 -1.4375zm8.058899 0.078125q0 -0.90625 -0.40625 -1.4375q-0.40625 -0.546875 -1.203125 -0.546875q-0.25 0 -0.484375 0.03125q-0.21875 0.015625 -0.359375 0.03125l0 3.5q0.1875 0.125 0.46875 0.203125q0.296875 0.0625 0.59375 0.0625q1.390625 0 1.390625 -1.84375zm1.96875 -0.0625q0 0.796875 -0.203125 1.453125q-0.1875 0.640625 -0.5625 1.109375q-0.375 0.46875 -0.9375 0.734375q-0.5625 0.25 -1.28125 0.25q-0.40625 0 -0.765625 -0.078125q-0.34375 -0.078125 -0.671875 -0.21875l0 2.578125l-1.9375 0l0 -9.015625q0.265625 -0.078125 0.59375 -0.140625q0.34375 -0.078125 0.71875 -0.125q0.375 -0.046875 0.75 -0.078125q0.390625 -0.046875 0.734375 -0.046875q0.84375 0 1.5 0.265625q0.671875 0.25 1.125 0.71875q0.453125 0.453125 0.6875 1.125q0.25 0.65625 0.25 1.46875zm6.0814056 0.0625q0 -0.90625 -0.40625 -1.4375q-0.40625 -0.546875 -1.203125 -0.546875q-0.25 0 -0.484375 0.03125q-0.21875 0.015625 -0.359375 0.03125l0 3.5q0.1875 0.125 0.46875 0.203125q0.296875 0.0625 0.59375 0.0625q1.390625 0 1.390625 -1.84375zm1.96875 -0.0625q0 0.796875 -0.203125 1.453125q-0.1875 0.640625 -0.5625 1.109375q-0.375 0.46875 -0.9375 0.734375q-0.5625 0.25 -1.28125 0.25q-0.40625 0 -0.765625 -0.078125q-0.34375 -0.078125 -0.671875 -0.21875l0 2.578125l-1.9375 0l0 -9.015625q0.265625 -0.078125 0.59375 -0.140625q0.34375 -0.078125 0.71875 -0.125q0.375 -0.046875 0.75 -0.078125q0.390625 -0.046875 0.734375 -0.046875q0.84375 0 1.5 0.265625q0.671875 0.25 1.125 0.71875q0.453125 0.453125 0.6875 1.125q0.25 0.65625 0.25 1.46875zm1.3626556 0.0625q0 -0.921875 0.28125 -1.59375q0.28125 -0.6875 0.734375 -1.140625q0.453125 -0.453125 1.046875 -0.6875q0.59375 -0.234375 1.21875 -0.234375q1.453125 0 2.296875 0.890625q0.84375 0.890625 0.84375 2.609375q0 0.171875 -0.015625 0.375q0 0.203125 -0.015625 0.359375l-4.390625 0q0.0625 0.59375 0.546875 0.953125q0.5 0.34375 1.328125 0.34375q0.53125 0 1.046875 -0.09375q0.515625 -0.09375 0.84375 -0.234375l0.265625 1.5625q-0.15625 0.078125 -0.421875 0.15625q-0.265625 0.078125 -0.578125 0.140625q-0.3125 0.0625 -0.6875 0.09375q-0.359375 0.046875 -0.71875 0.046875q-0.921875 0 -1.609375 -0.265625q-0.6875 -0.28125 -1.140625 -0.75q-0.4375 -0.484375 -0.65625 -1.125q-0.21875 -0.65625 -0.21875 -1.40625zm4.5625 -0.75q-0.015625 -0.25 -0.09375 -0.484375q-0.0625 -0.234375 -0.21875 -0.40625q-0.140625 -0.1875 -0.375 -0.296875q-0.234375 -0.125 -0.5625 -0.125q-0.328125 0 -0.5625 0.109375q-0.234375 0.109375 -0.390625 0.296875q-0.15625 0.171875 -0.25 0.421875q-0.078125 0.234375 -0.109375 0.484375l2.5625 0zm7.31485 0.484375q0 -0.9375 -0.25 -1.328125q-0.234375 -0.390625 -0.828125 -0.390625q-0.171875 0 -0.375 0.03125q-0.1875 0.015625 -0.375 0.03125l0 5.28125l-1.9375 0l0 -6.609375q0.25 -0.0625 0.578125 -0.125q0.328125 -0.078125 0.703125 -0.125q0.375 -0.0625 0.765625 -0.09375q0.390625 -0.046875 0.765625 -0.046875q0.734375 0 1.1875 0.203125q0.46875 0.1875 0.78125 0.4375q0.40625 -0.296875 0.9375 -0.46875q0.546875 -0.171875 1.0 -0.171875q0.828125 0 1.34375 0.234375q0.53125 0.234375 0.84375 0.65625q0.3125 0.40625 0.421875 0.984375q0.125 0.5625 0.125 1.265625l0 3.859375l-1.9375 0l0 -3.625q0 -0.9375 -0.25 -1.328125q-0.234375 -0.390625 -0.8125 -0.390625q-0.15625 0 -0.4375 0.078125q-0.28125 0.078125 -0.453125 0.203125q0.078125 0.296875 0.109375 0.625q0.03125 0.328125 0.03125 0.703125l0 3.734375l-1.9375 0l0 -3.625zm7.39505 0.265625q0 -0.921875 0.28125 -1.59375q0.28125 -0.6875 0.734375 -1.140625q0.453125 -0.453125 1.046875 -0.6875q0.59375 -0.234375 1.21875 -0.234375q1.453125 0 2.296875 0.890625q0.84375 0.890625 0.84375 2.609375q0 0.171875 -0.015625 0.375q0 0.203125 -0.015625 0.359375l-4.390625 0q0.0625 0.59375 0.546875 0.953125q0.5 0.34375 1.328125 0.34375q0.53125 0 1.046875 -0.09375q0.515625 -0.09375 0.84375 -0.234375l0.265625 1.5625q-0.15625 0.078125 -0.421875 0.15625q-0.265625 0.078125 -0.578125 0.140625q-0.3125 0.0625 -0.6875 0.09375q-0.359375 0.046875 -0.71875 0.046875q-0.921875 0 -1.609375 -0.265625q-0.6875 -0.28125 -1.140625 -0.75q-0.4375 -0.484375 -0.65625 -1.125q-0.21875 -0.65625 -0.21875 -1.40625zm4.5625 -0.75q-0.015625 -0.25 -0.09375 -0.484375q-0.0625 -0.234375 -0.21875 -0.40625q-0.140625 -0.1875 -0.375 -0.296875q-0.234375 -0.125 -0.5625 -0.125q-0.328125 0 -0.5625 0.109375q-0.234375 0.109375 -0.390625 0.296875q-0.15625 0.171875 -0.25 0.421875q-0.078125 0.234375 -0.109375 0.484375l2.5625 0zm3.5492249 -2.5q0.5 -0.140625 1.28125 -0.265625q0.78125 -0.125 1.640625 -0.125q0.859375 0 1.4375 0.234375q0.578125 0.234375 0.921875 0.65625q0.34375 0.40625 0.484375 0.984375q0.140625 0.5625 0.140625 1.265625l0 3.859375l-1.9375 0l0 -3.625q0 -0.9375 -0.25 -1.328125q-0.25 -0.390625 -0.921875 -0.390625q-0.203125 0 -0.4375 0.03125q-0.234375 0.015625 -0.421875 0.03125l0 5.28125l-1.9375 0l0 -6.609375zm7.787735 -1.937499l1.9375 -0.3125l0 2.015624l2.328125 0l0 1.625l-2.328125 0l0 2.390625q0 0.625 0.21875 0.984375q0.21875 0.359375 0.859375 0.359375q0.3125 0 0.640625 -0.046875q0.34375 -0.0625 0.609375 -0.171875l0.265625 1.515625q-0.34375 0.140625 -0.78125 0.234375q-0.421875 0.109375 -1.046875 0.109375q-0.796875 0 -1.3125 -0.203125q-0.515625 -0.21875 -0.828125 -0.609375q-0.3125 -0.390625 -0.4375 -0.921875q-0.125 -0.546875 -0.125 -1.21875l0 -5.749999z" fill-rule="nonzero"></path><path fill="#000000" fill-opacity="0.0" d="m6.572308 43.45983l63.086613 0l0 23.11811l-63.086613 0z" fill-rule="nonzero"></path><path fill="#594c8e" d="m47.42598 57.91514q-0.796875 0 -1.390625 -0.21875q-0.578125 -0.234375 -0.953125 -0.625q-0.375 -0.40625 -0.5625 -0.96875q-0.1875 -0.5625 -0.1875 -1.21875l0 -4.75l1.71875 0l0 4.59375q0 0.46875 0.09375 0.796875q0.109375 0.328125 0.296875 0.53125q0.1875 0.203125 0.4375 0.296875q0.265625 0.078125 0.578125 0.078125q0.625 0 1.015625 -0.375q0.390625 -0.390625 0.390625 -1.328125l0 -4.59375l1.703125 0l0 4.75q0 0.65625 -0.1875 1.21875q-0.171875 0.5625 -0.5625 0.96875q-0.390625 0.40625 -0.984375 0.625q-0.59375 0.21875 -1.40625 0.21875zm6.5809174 -7.78125q0.203125 0.359375 0.453125 0.90625q0.265625 0.53125 0.546875 1.15625q0.28125 0.609375 0.546875 1.265625q0.28125 0.640625 0.515625 1.21875q0.25 -0.578125 0.515625 -1.21875q0.28125 -0.65625 0.5625 -1.265625q0.28125 -0.625 0.53125 -1.15625q0.265625 -0.546875 0.46875 -0.90625l1.5625 0q0.109375 0.765625 0.203125 1.703125q0.09375 0.9375 0.15625 1.953125q0.078125 1.015625 0.125 2.046875q0.0625 1.015625 0.109375 1.921875l-1.671875 0q-0.03125 -1.109375 -0.09375 -2.421875q-0.046875 -1.3125 -0.15625 -2.640625q-0.203125 0.46875 -0.453125 1.03125q-0.234375 0.5625 -0.46875 1.125q-0.234375 0.546875 -0.453125 1.0625q-0.21875 0.515625 -0.375 0.875l-1.203125 0q-0.140625 -0.359375 -0.375 -0.875q-0.21875 -0.515625 -0.453125 -1.0625q-0.234375 -0.5625 -0.484375 -1.125q-0.234375 -0.5625 -0.4375 -1.03125q-0.109375 1.328125 -0.171875 2.640625q-0.046875 1.3125 -0.078125 2.421875l-1.671875 0q0.046875 -0.90625 0.109375 -1.921875q0.0625 -1.03125 0.125 -2.046875q0.078125 -1.015625 0.171875 -1.953125q0.09375 -0.9375 0.203125 -1.703125l1.640625 0zm12.621246 6.15625l0 1.46875l-5.09375 0l0 -7.625l1.71875 0l0 6.15625l3.375 0z" fill-rule="nonzero"></path><path fill="#000000" fill-opacity="0.0" d="m6.572308 66.23513l63.086613 0l0 23.11811l-63.086613 0z" fill-rule="nonzero"></path><path fill="#594c8e" d="m45.959778 80.53419q-0.125 -0.390625 -0.28125 -0.8125q-0.140625 -0.421875 -0.28125 -0.84375l-2.96875 0q-0.140625 0.421875 -0.296875 0.84375q-0.140625 0.421875 -0.265625 0.8125l-1.78125 0q0.421875 -1.234375 0.8125 -2.28125q0.390625 -1.046875 0.75 -1.96875q0.375 -0.921875 0.734375 -1.75q0.359375 -0.828125 0.734375 -1.625l1.640625 0q0.375 0.796875 0.734375 1.625q0.375 0.828125 0.734375 1.75q0.375 0.921875 0.75 1.96875q0.390625 1.046875 0.828125 2.28125l-1.84375 0zm-2.0625 -5.890625q-0.046875 0.15625 -0.15625 0.453125q-0.109375 0.28125 -0.265625 0.65625q-0.140625 0.375 -0.3125 0.828125q-0.15625 0.4375 -0.34375 0.9375l2.171875 0q-0.171875 -0.5 -0.34375 -0.9375q-0.15625 -0.453125 -0.3125 -0.828125q-0.140625 -0.375 -0.25 -0.65625q-0.109375 -0.296875 -0.1875 -0.453125zm5.9332275 2.8125q0 1.375 1.109375 1.375q0.25 0 0.46875 -0.0625q0.21875 -0.078125 0.375 -0.15625l0 -2.625q-0.125 -0.015625 -0.296875 -0.03125q-0.15625 -0.015625 -0.375 -0.015625q-0.640625 0 -0.96875 0.4375q-0.3125 0.421875 -0.3125 1.078125zm3.59375 2.359375q0 1.40625 -0.71875 2.09375q-0.71875 0.6875 -2.234375 0.6875q-0.53125 0 -1.0625 -0.09375q-0.515625 -0.09375 -0.96875 -0.234375l0.28125 -1.375q0.390625 0.140625 0.8125 0.234375q0.421875 0.09375 0.96875 0.09375q0.703125 0 0.984375 -0.3125q0.296875 -0.3125 0.296875 -0.796875l0 -0.203125q-0.265625 0.125 -0.546875 0.1875q-0.28125 0.046875 -0.609375 0.046875q-1.203125 0 -1.84375 -0.703125q-0.625 -0.703125 -0.625 -1.984375q0 -0.640625 0.1875 -1.15625q0.203125 -0.53125 0.578125 -0.90625q0.390625 -0.375 0.9375 -0.578125q0.546875 -0.203125 1.234375 -0.203125q0.296875 0 0.609375 0.03125q0.3125 0.03125 0.625 0.078125q0.3125 0.03125 0.59375 0.09375q0.28125 0.0625 0.5 0.125l0 4.875zm2.9705048 0.71875l-1.640625 0l0 -5.78125l1.640625 0l0 5.78125zm0.15625 -7.453125q0 0.453125 -0.296875 0.71875q-0.28125 0.25 -0.6875 0.25q-0.390625 0 -0.6875 -0.25q-0.28125 -0.265625 -0.28125 -0.71875q0 -0.453125 0.28125 -0.703125q0.296875 -0.265625 0.6875 -0.265625q0.40625 0 0.6875 0.265625q0.296875 0.25 0.296875 0.703125zm3.5953064 7.5625q-0.71875 -0.015625 -1.171875 -0.15625q-0.4375 -0.140625 -0.703125 -0.390625q-0.25 -0.265625 -0.34375 -0.625q-0.09375 -0.375 -0.09375 -0.84375l0 -6.359375l1.640625 -0.265625l0 6.296875q0 0.21875 0.03125 0.40625q0.03125 0.171875 0.125 0.296875q0.09375 0.109375 0.265625 0.1875q0.1875 0.078125 0.484375 0.09375l-0.234375 1.359375zm0.7892914 -2.953125q0 -0.78125 0.234375 -1.359375q0.234375 -0.578125 0.609375 -0.953125q0.390625 -0.390625 0.890625 -0.578125q0.5 -0.203125 1.03125 -0.203125q1.234375 0 1.9375 0.75q0.71875 0.75 0.71875 2.21875q0 0.140625 -0.015625 0.3125q0 0.171875 -0.015625 0.296875l-3.71875 0q0.0625 0.515625 0.46875 0.8125q0.421875 0.296875 1.125 0.296875q0.453125 0 0.890625 -0.078125q0.4375 -0.09375 0.71875 -0.21875l0.21875 1.34375q-0.140625 0.0625 -0.359375 0.125q-0.21875 0.0625 -0.484375 0.109375q-0.265625 0.0625 -0.578125 0.09375q-0.3125 0.03125 -0.625 0.03125q-0.78125 0 -1.359375 -0.234375q-0.578125 -0.234375 -0.953125 -0.625q-0.375 -0.40625 -0.5625 -0.953125q-0.171875 -0.5625 -0.171875 -1.1875zm3.84375 -0.625q-0.015625 -0.21875 -0.078125 -0.40625q-0.046875 -0.203125 -0.1875 -0.359375q-0.125 -0.15625 -0.3125 -0.25q-0.1875 -0.109375 -0.484375 -0.109375q-0.265625 0 -0.46875 0.09375q-0.1875 0.09375 -0.328125 0.25q-0.125 0.15625 -0.203125 0.359375q-0.0625 0.203125 -0.109375 0.421875l2.171875 0z" fill-rule="nonzero"></path><path fill="#000000" fill-opacity="0.0" d="m6.572308 89.01043l63.086613 0l0 23.11811l-63.086613 0z" fill-rule="nonzero"></path><path fill="#594c8e" d="m55.9608 97.0126q-1.1875 0 -1.734375 0.671875q-0.53125 0.65625 -0.53125 1.8125q0 0.5625 0.125 1.015625q0.140625 0.453125 0.40625 0.78125q0.265625 0.328125 0.65625 0.515625q0.40625 0.1875 0.921875 0.1875q0.296875 0 0.5 -0.015625q0.203125 -0.015625 0.359375 -0.046875l0 -2.65625l1.703125 0l0 3.78125q-0.296875 0.125 -0.984375 0.25q-0.6875 0.140625 -1.6875 0.140625q-0.859375 0 -1.5625 -0.265625q-0.6875 -0.265625 -1.1875 -0.765625q-0.484375 -0.5 -0.765625 -1.234375q-0.265625 -0.75 -0.265625 -1.6875q0 -0.96875 0.296875 -1.703125q0.296875 -0.734375 0.8125 -1.234375q0.515625 -0.515625 1.21875 -0.78125q0.703125 -0.265625 1.484375 -0.265625q0.546875 0 0.984375 0.078125q0.4375 0.0625 0.75 0.15625q0.3125 0.09375 0.515625 0.203125q0.203125 0.09375 0.28125 0.140625l-0.484375 1.375q-0.359375 -0.1875 -0.8125 -0.3125q-0.453125 -0.140625 -1.0 -0.140625zm5.2932587 6.296875l-1.640625 0l0 -5.78125l1.640625 0l0 5.78125zm0.15625 -7.453125q0 0.453125 -0.296875 0.71875q-0.28125 0.25 -0.6875 0.25q-0.390625 0 -0.6875 -0.25q-0.28125 -0.265625 -0.28125 -0.71875q0 -0.453125 0.28125 -0.703125q0.296875 -0.265625 0.6875 -0.265625q0.40625 0 0.6875 0.265625q0.296875 0.25 0.296875 0.703125zm1.2359314 0.21875l1.640625 -0.25l0 1.703125l1.96875 0l0 1.359375l-1.96875 0l0 2.03125q0 0.515625 0.171875 0.828125q0.1875 0.3125 0.734375 0.3125q0.265625 0 0.546875 -0.046875q0.28125 -0.0625 0.515625 -0.140625l0.21875 1.265625q-0.296875 0.125 -0.65625 0.203125q-0.359375 0.09375 -0.890625 0.09375q-0.671875 0 -1.109375 -0.171875q-0.4375 -0.1875 -0.703125 -0.5q-0.265625 -0.328125 -0.375 -0.78125q-0.09375 -0.46875 -0.09375 -1.03125l0 -4.875z" fill-rule="nonzero"></path><path fill="#000000" fill-opacity="0.0" d="m6.575954 111.7857l63.086613 0l0 23.11811l-63.086613 0z" fill-rule="nonzero"></path><path fill="#594c8e" d="m52.602615 123.522255q0 0.5625 -0.125 1.0625q-0.125 0.484375 -0.4375 0.859375q-0.3125 0.359375 -0.84375 0.578125q-0.53125 0.21875 -1.359375 0.21875q-0.734375 0 -1.28125 -0.171875q-0.53125 -0.1875 -0.890625 -0.4375l0.578125 -1.328125q0.3125 0.1875 0.671875 0.328125q0.375 0.140625 0.796875 0.140625q0.625 0 0.890625 -0.296875q0.28125 -0.3125 0.28125 -1.046875l0 -4.96875l1.71875 0l0 5.0625zm2.996582 2.5625l-1.640625 0l0 -5.78125l1.640625 0l0 5.78125zm0.15625 -7.453125q0 0.453125 -0.296875 0.71875q-0.28125 0.25 -0.6875 0.25q-0.390625 0 -0.6875 -0.25q-0.28125 -0.265625 -0.28125 -0.71875q0 -0.453125 0.28125 -0.703125q0.296875 -0.265625 0.6875 -0.265625q0.40625 0 0.6875 0.265625q0.296875 0.25 0.296875 0.703125zm4.7671814 3.125q-0.21875 -0.0625 -0.515625 -0.125q-0.296875 -0.0625 -0.625 -0.0625q-0.15625 0 -0.375 0.03125q-0.21875 0.03125 -0.328125 0.0625l0 4.421875l-1.640625 0l0 -5.484375q0.4375 -0.140625 1.03125 -0.28125q0.609375 -0.140625 1.34375 -0.140625q0.140625 0 0.328125 0.015625q0.1875 0.015625 0.375 0.046875q0.1875 0.03125 0.375 0.078125q0.1875 0.03125 0.3125 0.078125l-0.28125 1.359375zm3.2313538 3.1875q0.234375 0 0.453125 -0.015625q0.21875 -0.015625 0.359375 -0.03125l0 -1.25q-0.09375 -0.015625 -0.296875 -0.03125q-0.203125 -0.03125 -0.359375 -0.03125q-0.234375 0 -0.4375 0.03125q-0.203125 0.03125 -0.359375 0.109375q-0.15625 0.078125 -0.25 0.203125q-0.078125 0.125 -0.078125 0.328125q0 0.390625 0.25 0.546875q0.265625 0.140625 0.71875 0.140625zm-0.140625 -4.796875q0.734375 0 1.21875 0.171875q0.484375 0.15625 0.765625 0.46875q0.296875 0.296875 0.421875 0.75q0.125 0.4375 0.125 0.96875l0 3.40625q-0.359375 0.078125 -0.984375 0.1875q-0.625 0.109375 -1.515625 0.109375q-0.5625 0 -1.03125 -0.109375q-0.453125 -0.09375 -0.78125 -0.3125q-0.328125 -0.234375 -0.5 -0.59375q-0.171875 -0.359375 -0.171875 -0.890625q0 -0.5 0.203125 -0.84375q0.203125 -0.359375 0.53125 -0.5625q0.34375 -0.21875 0.78125 -0.3125q0.453125 -0.09375 0.921875 -0.09375q0.3125 0 0.5625 0.03125q0.25 0.015625 0.40625 0.0625l0 -0.15625q0 -0.40625 -0.265625 -0.65625q-0.25 -0.265625 -0.875 -0.265625q-0.40625 0 -0.8125 0.0625q-0.40625 0.0625 -0.703125 0.171875l-0.21875 -1.328125q0.140625 -0.03125 0.359375 -0.078125q0.21875 -0.0625 0.46875 -0.09375q0.25 -0.046875 0.53125 -0.0625q0.28125 -0.03125 0.5625 -0.03125z" fill-rule="nonzero"></path><path fill="#000000" fill-opacity="0.0" d="m108.34605 54.1799l0 0c0 -2.8962326 2.6016846 -5.244091 5.8110275 -5.244091l0 0c3.2093353 0 5.81102 2.3478584 5.81102 5.244091l0 0c0 2.8962364 -2.6016846 5.244095 -5.81102 5.244095l0 0c-3.209343 0 -5.8110275 -2.3478584 -5.8110275 -5.244095z" fill-rule="nonzero"></path><path stroke="#5c5299" stroke-width="2.0" stroke-linejoin="round" stroke-linecap="butt" d="m108.34605 54.1799l0 0c0 -2.8962326 2.6016846 -5.244091 5.8110275 -5.244091l0 0c3.2093353 0 5.81102 2.3478584 5.81102 5.244091l0 0c0 2.8962364 -2.6016846 5.244095 -5.81102 5.244095l0 0c-3.209343 0 -5.8110275 -2.3478584 -5.8110275 -5.244095z" fill-rule="nonzero"></path><path fill="#000000" fill-opacity="0.0" d="m123.644356 54.1799l0 0c0 -2.8962326 2.6016846 -5.244091 5.8110275 -5.244091l0 0c3.2093353 0 5.81102 2.3478584 5.81102 5.244091l0 0c0 2.8962364 -2.6016846 5.244095 -5.81102 5.244095l0 0c-3.209343 0 -5.8110275 -2.3478584 -5.8110275 -5.244095z" fill-rule="nonzero"></path><path stroke="#5c5299" stroke-width="2.0" stroke-linejoin="round" stroke-linecap="butt" d="m123.644356 54.1799l0 0c0 -2.8962326 2.6016846 -5.244091 5.8110275 -5.244091l0 0c3.2093353 0 5.81102 2.3478584 5.81102 5.244091l0 0c0 2.8962364 -2.6016846 5.244095 -5.81102 5.244095l0 0c-3.209343 0 -5.8110275 -2.3478584 -5.8110275 -5.244095z" fill-rule="nonzero"></path><path fill="#5c5299" d="m77.74943 54.1799l0 0c0 -2.8962326 2.6016846 -5.244091 5.81102 -5.244091l0 0c3.209343 0 5.8110275 2.3478584 5.8110275 5.244091l0 0c0 2.8962364 -2.6016846 5.244095 -5.8110275 5.244095l0 0c-3.2093353 0 -5.81102 -2.3478584 -5.81102 -5.244095z" fill-rule="nonzero"></path><path stroke="#5c5299" stroke-width="2.0" stroke-linejoin="round" stroke-linecap="butt" d="m77.74943 54.1799l0 0c0 -2.8962326 2.6016846 -5.244091 5.81102 -5.244091l0 0c3.209343 0 5.8110275 2.3478584 5.8110275 5.244091l0 0c0 2.8962364 -2.6016846 5.244095 -5.8110275 5.244095l0 0c-3.2093353 0 -5.81102 -2.3478584 -5.81102 -5.244095z" fill-rule="nonzero"></path><path fill="#5c5299" d="m93.04774 54.1799l0 0c0 -2.8962326 2.6016846 -5.244091 5.81102 -5.244091l0 0c3.209343 0 5.8110275 2.3478584 5.8110275 5.244091l0 0c0 2.8962364 -2.6016846 5.244095 -5.8110275 5.244095l0 0c-3.2093353 0 -5.81102 -2.3478584 -5.81102 -5.244095z" fill-rule="nonzero"></path><path stroke="#5c5299" stroke-width="2.0" stroke-linejoin="round" stroke-linecap="butt" d="m93.04774 54.1799l0 0c0 -2.8962326 2.6016846 -5.244091 5.81102 -5.244091l0 0c3.209343 0 5.8110275 2.3478584 5.8110275 5.244091l0 0c0 2.8962364 -2.6016846 5.244095 -5.8110275 5.244095l0 0c-3.2093353 0 -5.81102 -2.3478584 -5.81102 -5.244095z" fill-rule="nonzero"></path><path fill="#000000" fill-opacity="0.0" d="m163.39102 43.459316l69.25984 0l0 23.118114l-69.25984 0z" fill-rule="nonzero"></path><path fill="#594c8e" d="m210.6834 51.4615q-1.1875 0 -1.734375 0.671875q-0.53125 0.65625 -0.53125 1.8125q0 0.5625 0.125 1.015625q0.140625 0.453125 0.40625 0.78125q0.265625 0.328125 0.65625 0.515625q0.40625 0.1875 0.921875 0.1875q0.296875 0 0.5 -0.015625q0.203125 -0.015625 0.359375 -0.046875l0 -2.65625l1.703125 0l0 3.78125q-0.296875 0.125 -0.984375 0.25q-0.6875 0.140625 -1.6875 0.140625q-0.859375 0 -1.5625 -0.265625q-0.6875 -0.265625 -1.1875 -0.765625q-0.484375 -0.5 -0.765625 -1.234375q-0.265625 -0.75 -0.265625 -1.6875q0 -0.96875 0.296875 -1.703125q0.296875 -0.734375 0.8125 -1.234375q0.515625 -0.515625 1.21875 -0.78125q0.703125 -0.265625 1.484375 -0.265625q0.546875 0 0.984375 0.078125q0.4375 0.0625 0.75 0.15625q0.3125 0.09375 0.515625 0.203125q0.203125 0.09375 0.28125 0.140625l-0.484375 1.375q-0.359375 -0.1875 -0.8125 -0.3125q-0.453125 -0.140625 -1.0 -0.140625zm8.590134 6.09375q-0.40625 0.125 -1.078125 0.21875q-0.65625 0.109375 -1.375 0.109375q-0.734375 0 -1.234375 -0.1875q-0.484375 -0.203125 -0.78125 -0.5625q-0.28125 -0.359375 -0.40625 -0.84375q-0.109375 -0.5 -0.109375 -1.09375l0 -3.21875l1.640625 0l0 3.015625q0 0.796875 0.203125 1.15625q0.203125 0.34375 0.78125 0.34375q0.171875 0 0.375 -0.015625q0.203125 -0.015625 0.34375 -0.03125l0 -4.46875l1.640625 0l0 5.578125zm3.651596 0.3125q-0.71875 -0.015625 -1.171875 -0.15625q-0.4375 -0.140625 -0.703125 -0.390625q-0.25 -0.265625 -0.34375 -0.625q-0.09375 -0.375 -0.09375 -0.84375l0 -6.359375l1.640625 -0.265625l0 6.296875q0 0.21875 0.03125 0.40625q0.03125 0.171875 0.125 0.296875q0.09375 0.109375 0.265625 0.1875q0.1875 0.078125 0.484375 0.09375l-0.234375 1.359375zm4.7736664 -2.953125q0 -0.765625 -0.34375 -1.21875q-0.34375 -0.453125 -1.015625 -0.453125q-0.21875 0 -0.40625 0.015625q-0.1875 0.015625 -0.3125 0.03125l0 2.96875q0.15625 0.09375 0.40625 0.15625q0.25 0.0625 0.5 0.0625q1.171875 0 1.171875 -1.5625zm1.671875 -0.046875q0 0.671875 -0.171875 1.21875q-0.171875 0.546875 -0.484375 0.953125q-0.3125 0.390625 -0.796875 0.609375q-0.46875 0.21875 -1.078125 0.21875q-0.34375 0 -0.640625 -0.0625q-0.296875 -0.0625 -0.578125 -0.1875l0 2.171875l-1.640625 0l0 -7.625q0.21875 -0.0625 0.5 -0.125q0.296875 -0.0625 0.609375 -0.09375q0.3125 -0.046875 0.640625 -0.078125q0.328125 -0.03125 0.625 -0.03125q0.703125 0 1.265625 0.21875q0.5625 0.21875 0.9375 0.609375q0.390625 0.390625 0.59375 0.953125q0.21875 0.546875 0.21875 1.25z" fill-rule="nonzero"></path><path fill="#000000" fill-opacity="0.0" d="m166.04721 66.23622l66.61417 0l0 23.11811l-66.61417 0z" fill-rule="nonzero"></path><path fill="#594c8e" d="m192.24236 76.0509q0.46875 -0.78125 0.875 -1.5625q0.421875 -0.78125 0.78125 -1.578125l1.890625 0q-0.625 1.234375 -1.296875 2.390625q-0.671875 1.15625 -1.421875 2.3125l0 2.921875l-1.71875 0l0 -2.890625q-0.75 -1.171875 -1.421875 -2.328125q-0.671875 -1.171875 -1.296875 -2.40625l1.984375 0q0.34375 0.796875 0.75 1.578125q0.421875 0.78125 0.875 1.5625zm3.8719788 1.640625q0 -0.78125 0.234375 -1.359375q0.234375 -0.578125 0.609375 -0.953125q0.390625 -0.390625 0.890625 -0.578125q0.5 -0.203125 1.03125 -0.203125q1.234375 0 1.9375 0.75q0.71875 0.75 0.71875 2.21875q0 0.140625 -0.015625 0.3125q0 0.171875 -0.015625 0.296875l-3.71875 0q0.0625 0.515625 0.46875 0.8125q0.421875 0.296875 1.125 0.296875q0.453125 0 0.890625 -0.078125q0.4375 -0.09375 0.71875 -0.21875l0.21875 1.34375q-0.140625 0.0625 -0.359375 0.125q-0.21875 0.0625 -0.484375 0.109375q-0.265625 0.0625 -0.578125 0.09375q-0.3125 0.03125 -0.625 0.03125q-0.78125 0 -1.359375 -0.234375q-0.578125 -0.234375 -0.953125 -0.625q-0.375 -0.40625 -0.5625 -0.953125q-0.171875 -0.5625 -0.171875 -1.1875zm3.84375 -0.625q-0.015625 -0.21875 -0.078125 -0.40625q-0.046875 -0.203125 -0.1875 -0.359375q-0.125 -0.15625 -0.3125 -0.25q-0.1875 -0.109375 -0.484375 -0.109375q-0.265625 0 -0.46875 0.09375q-0.1875 0.09375 -0.328125 0.25q-0.125 0.15625 -0.203125 0.359375q-0.0625 0.203125 -0.109375 0.421875l2.171875 0zm8.067062 0.5625q0 0.6875 -0.203125 1.25q-0.203125 0.5625 -0.578125 0.96875q-0.375 0.40625 -0.890625 0.625q-0.515625 0.21875 -1.171875 0.21875q-0.640625 0 -1.171875 -0.21875q-0.515625 -0.21875 -0.890625 -0.625q-0.375 -0.40625 -0.578125 -0.96875q-0.203125 -0.5625 -0.203125 -1.25q0 -0.6875 0.203125 -1.234375q0.21875 -0.5625 0.59375 -0.953125q0.390625 -0.40625 0.90625 -0.625q0.53125 -0.21875 1.140625 -0.21875q0.625 0 1.140625 0.21875q0.53125 0.21875 0.90625 0.625q0.375 0.390625 0.578125 0.953125q0.21875 0.546875 0.21875 1.234375zm-1.671875 0q0 -0.75 -0.3125 -1.1875q-0.296875 -0.4375 -0.859375 -0.4375q-0.5625 0 -0.875 0.4375q-0.296875 0.4375 -0.296875 1.1875q0 0.765625 0.296875 1.21875q0.3125 0.4375 0.875 0.4375q0.5625 0 0.859375 -0.4375q0.3125 -0.453125 0.3125 -1.21875zm5.9059143 -0.15625q0 -0.796875 -0.203125 -1.125q-0.203125 -0.328125 -0.703125 -0.328125q-0.15625 0 -0.328125 0.015625q-0.15625 0.015625 -0.3125 0.03125l0 4.46875l-1.640625 0l0 -5.59375q0.21875 -0.046875 0.5 -0.109375q0.28125 -0.0625 0.59375 -0.109375q0.3125 -0.046875 0.640625 -0.078125q0.328125 -0.03125 0.640625 -0.03125q0.625 0 1.015625 0.171875q0.390625 0.15625 0.65625 0.375q0.34375 -0.25 0.796875 -0.390625q0.46875 -0.15625 0.84375 -0.15625q0.703125 0 1.140625 0.203125q0.453125 0.1875 0.703125 0.546875q0.265625 0.34375 0.359375 0.828125q0.109375 0.484375 0.109375 1.078125l0 3.265625l-1.640625 0l0 -3.0625q0 -0.796875 -0.203125 -1.125q-0.203125 -0.328125 -0.703125 -0.328125q-0.125 0 -0.359375 0.0625q-0.234375 0.0625 -0.390625 0.15625q0.078125 0.265625 0.09375 0.546875q0.03125 0.28125 0.03125 0.59375l0 3.15625l-1.640625 0l0 -3.0625zm8.217026 1.921875q0.234375 0 0.453125 -0.015625q0.21875 -0.015625 0.359375 -0.03125l0 -1.25q-0.09375 -0.015625 -0.296875 -0.03125q-0.203125 -0.03125 -0.359375 -0.03125q-0.234375 0 -0.4375 0.03125q-0.203125 0.03125 -0.359375 0.109375q-0.15625 0.078125 -0.25 0.203125q-0.078125 0.125 -0.078125 0.328125q0 0.390625 0.25 0.546875q0.265625 0.140625 0.71875 0.140625zm-0.140625 -4.796875q0.734375 0 1.21875 0.171875q0.484375 0.15625 0.765625 0.46875q0.296875 0.296875 0.421875 0.75q0.125 0.4375 0.125 0.96875l0 3.40625q-0.359375 0.078125 -0.984375 0.1875q-0.625 0.109375 -1.515625 0.109375q-0.5625 0 -1.03125 -0.109375q-0.453125 -0.09375 -0.78125 -0.3125q-0.328125 -0.234375 -0.5 -0.59375q-0.171875 -0.359375 -0.171875 -0.890625q0 -0.5 0.203125 -0.84375q0.203125 -0.359375 0.53125 -0.5625q0.34375 -0.21875 0.78125 -0.3125q0.453125 -0.09375 0.921875 -0.09375q0.3125 0 0.5625 0.03125q0.25 0.015625 0.40625 0.0625l0 -0.15625q0 -0.40625 -0.265625 -0.65625q-0.25 -0.265625 -0.875 -0.265625q-0.40625 0 -0.8125 0.0625q-0.40625 0.0625 -0.703125 0.171875l-0.21875 -1.328125q0.140625 -0.03125 0.359375 -0.078125q0.21875 -0.0625 0.46875 -0.09375q0.25 -0.046875 0.53125 -0.0625q0.28125 -0.03125 0.5625 -0.03125zm3.8148346 0.34375q0.421875 -0.109375 1.078125 -0.21875q0.671875 -0.109375 1.390625 -0.109375q0.734375 0 1.21875 0.203125q0.5 0.1875 0.78125 0.546875q0.28125 0.34375 0.40625 0.828125q0.125 0.484375 0.125 1.078125l0 3.265625l-1.640625 0l0 -3.0625q0 -0.796875 -0.21875 -1.125q-0.203125 -0.328125 -0.765625 -0.328125q-0.1875 0 -0.390625 0.015625q-0.1875 0.015625 -0.34375 0.03125l0 4.46875l-1.640625 0l0 -5.59375z" fill-rule="nonzero"></path><path fill="#000000" fill-opacity="0.0" d="m138.94267 54.1799l0 0c0 -2.8962326 2.6016846 -5.244091 5.81102 -5.244091l0 0c3.2093353 0 5.81102 2.3478584 5.81102 5.244091l0 0c0 2.8962364 -2.6016846 5.244095 -5.81102 5.244095l0 0c-3.2093353 0 -5.81102 -2.3478584 -5.81102 -5.244095z" fill-rule="nonzero"></path><path stroke="#5c5299" stroke-width="2.0" stroke-linejoin="round" stroke-linecap="butt" d="m138.94267 54.1799l0 0c0 -2.8962326 2.6016846 -5.244091 5.81102 -5.244091l0 0c3.2093353 0 5.81102 2.3478584 5.81102 5.244091l0 0c0 2.8962364 -2.6016846 5.244095 -5.81102 5.244095l0 0c-3.2093353 0 -5.81102 -2.3478584 -5.81102 -5.244095z" fill-rule="nonzero"></path><path fill="#5c5299" d="m108.344734 77.794075l0 0c0 -2.8962326 2.6016846 -5.244095 5.8110275 -5.244095l0 0c3.2093353 0 5.81102 2.3478622 5.81102 5.244095l0 0c0 2.8962326 -2.6016846 5.244095 -5.81102 5.244095l0 0c-3.209343 0 -5.8110275 -2.3478622 -5.8110275 -5.244095z" fill-rule="nonzero"></path><path stroke="#5c5299" stroke-width="2.0" stroke-linejoin="round" stroke-linecap="butt" d="m108.344734 77.794075l0 0c0 -2.8962326 2.6016846 -5.244095 5.8110275 -5.244095l0 0c3.2093353 0 5.81102 2.3478622 5.81102 5.244095l0 0c0 2.8962326 -2.6016846 5.244095 -5.81102 5.244095l0 0c-3.209343 0 -5.8110275 -2.3478622 -5.8110275 -5.244095z" fill-rule="nonzero"></path><path fill="#5c5299" d="m123.64304 77.794075l0 0c0 -2.8962326 2.6016846 -5.244095 5.8110275 -5.244095l0 0c3.2093353 0 5.81102 2.3478622 5.81102 5.244095l0 0c0 2.8962326 -2.6016846 5.244095 -5.81102 5.244095l0 0c-3.209343 0 -5.8110275 -2.3478622 -5.8110275 -5.244095z" fill-rule="nonzero"></path><path stroke="#5c5299" stroke-width="2.0" stroke-linejoin="round" stroke-linecap="butt" d="m123.64304 77.794075l0 0c0 -2.8962326 2.6016846 -5.244095 5.8110275 -5.244095l0 0c3.2093353 0 5.81102 2.3478622 5.81102 5.244095l0 0c0 2.8962326 -2.6016846 5.244095 -5.81102 5.244095l0 0c-3.209343 0 -5.8110275 -2.3478622 -5.8110275 -5.244095z" fill-rule="nonzero"></path><path fill="#5c5299" d="m77.748116 77.794075l0 0c0 -2.8962326 2.6016846 -5.244095 5.81102 -5.244095l0 0c3.209343 0 5.8110275 2.3478622 5.8110275 5.244095l0 0c0 2.8962326 -2.6016846 5.244095 -5.8110275 5.244095l0 0c-3.2093353 0 -5.81102 -2.3478622 -5.81102 -5.244095z" fill-rule="nonzero"></path><path stroke="#5c5299" stroke-width="2.0" stroke-linejoin="round" stroke-linecap="butt" d="m77.748116 77.794075l0 0c0 -2.8962326 2.6016846 -5.244095 5.81102 -5.244095l0 0c3.209343 0 5.8110275 2.3478622 5.8110275 5.244095l0 0c0 2.8962326 -2.6016846 5.244095 -5.8110275 5.244095l0 0c-3.2093353 0 -5.81102 -2.3478622 -5.81102 -5.244095z" fill-rule="nonzero"></path><path fill="#5c5299" d="m93.046425 77.794075l0 0c0 -2.8962326 2.6016846 -5.244095 5.81102 -5.244095l0 0c3.209343 0 5.8110275 2.3478622 5.8110275 5.244095l0 0c0 2.8962326 -2.6016846 5.244095 -5.8110275 5.244095l0 0c-3.2093353 0 -5.81102 -2.3478622 -5.81102 -5.244095z" fill-rule="nonzero"></path><path stroke="#5c5299" stroke-width="2.0" stroke-linejoin="round" stroke-linecap="butt" d="m93.046425 77.794075l0 0c0 -2.8962326 2.6016846 -5.244095 5.81102 -5.244095l0 0c3.209343 0 5.8110275 2.3478622 5.8110275 5.244095l0 0c0 2.8962326 -2.6016846 5.244095 -5.8110275 5.244095l0 0c-3.2093353 0 -5.81102 -2.3478622 -5.81102 -5.244095z" fill-rule="nonzero"></path><path fill="#000000" fill-opacity="0.0" d="m138.94136 77.794075l0 0c0 -2.8962326 2.6016846 -5.244095 5.81102 -5.244095l0 0c3.2093353 0 5.81102 2.3478622 5.81102 5.244095l0 0c0 2.8962326 -2.6016846 5.244095 -5.81102 5.244095l0 0c-3.2093353 0 -5.81102 -2.3478622 -5.81102 -5.244095z" fill-rule="nonzero"></path><path stroke="#5c5299" stroke-width="2.0" stroke-linejoin="round" stroke-linecap="butt" d="m138.94136 77.794075l0 0c0 -2.8962326 2.6016846 -5.244095 5.81102 -5.244095l0 0c3.2093353 0 5.81102 2.3478622 5.81102 5.244095l0 0c0 2.8962326 -2.6016846 5.244095 -5.81102 5.244095l0 0c-3.2093353 0 -5.81102 -2.3478622 -5.81102 -5.244095z" fill-rule="nonzero"></path><path fill="#5c5299" d="m108.344734 100.5631l0 0c0 -2.8962326 2.6016846 -5.244095 5.8110275 -5.244095l0 0c3.2093353 0 5.81102 2.3478622 5.81102 5.244095l0 0c0 2.8962326 -2.6016846 5.244095 -5.81102 5.244095l0 0c-3.209343 0 -5.8110275 -2.3478622 -5.8110275 -5.244095z" fill-rule="nonzero"></path><path stroke="#5c5299" stroke-width="2.0" stroke-linejoin="round" stroke-linecap="butt" d="m108.344734 100.5631l0 0c0 -2.8962326 2.6016846 -5.244095 5.8110275 -5.244095l0 0c3.2093353 0 5.81102 2.3478622 5.81102 5.244095l0 0c0 2.8962326 -2.6016846 5.244095 -5.81102 5.244095l0 0c-3.209343 0 -5.8110275 -2.3478622 -5.8110275 -5.244095z" fill-rule="nonzero"></path><path fill="#000000" fill-opacity="0.0" d="m123.64304 100.5631l0 0c0 -2.8962326 2.6016846 -5.244095 5.8110275 -5.244095l0 0c3.2093353 0 5.81102 2.3478622 5.81102 5.244095l0 0c0 2.8962326 -2.6016846 5.244095 -5.81102 5.244095l0 0c-3.209343 0 -5.8110275 -2.3478622 -5.8110275 -5.244095z" fill-rule="nonzero"></path><path stroke="#5c5299" stroke-width="2.0" stroke-linejoin="round" stroke-linecap="butt" d="m123.64304 100.5631l0 0c0 -2.8962326 2.6016846 -5.244095 5.8110275 -5.244095l0 0c3.2093353 0 5.81102 2.3478622 5.81102 5.244095l0 0c0 2.8962326 -2.6016846 5.244095 -5.81102 5.244095l0 0c-3.209343 0 -5.8110275 -2.3478622 -5.8110275 -5.244095z" fill-rule="nonzero"></path><path fill="#5c5299" d="m77.748116 100.5631l0 0c0 -2.8962326 2.6016846 -5.244095 5.81102 -5.244095l0 0c3.209343 0 5.8110275 2.3478622 5.8110275 5.244095l0 0c0 2.8962326 -2.6016846 5.244095 -5.8110275 5.244095l0 0c-3.2093353 0 -5.81102 -2.3478622 -5.81102 -5.244095z" fill-rule="nonzero"></path><path stroke="#5c5299" stroke-width="2.0" stroke-linejoin="round" stroke-linecap="butt" d="m77.748116 100.5631l0 0c0 -2.8962326 2.6016846 -5.244095 5.81102 -5.244095l0 0c3.209343 0 5.8110275 2.3478622 5.8110275 5.244095l0 0c0 2.8962326 -2.6016846 5.244095 -5.8110275 5.244095l0 0c-3.2093353 0 -5.81102 -2.3478622 -5.81102 -5.244095z" fill-rule="nonzero"></path><path fill="#5c5299" d="m93.046425 100.5631l0 0c0 -2.8962326 2.6016846 -5.244095 5.81102 -5.244095l0 0c3.209343 0 5.8110275 2.3478622 5.8110275 5.244095l0 0c0 2.8962326 -2.6016846 5.244095 -5.8110275 5.244095l0 0c-3.2093353 0 -5.81102 -2.3478622 -5.81102 -5.244095z" fill-rule="nonzero"></path><path stroke="#5c5299" stroke-width="2.0" stroke-linejoin="round" stroke-linecap="butt" d="m93.046425 100.5631l0 0c0 -2.8962326 2.6016846 -5.244095 5.81102 -5.244095l0 0c3.209343 0 5.8110275 2.3478622 5.8110275 5.244095l0 0c0 2.8962326 -2.6016846 5.244095 -5.8110275 5.244095l0 0c-3.2093353 0 -5.81102 -2.3478622 -5.81102 -5.244095z" fill-rule="nonzero"></path><path fill="#000000" fill-opacity="0.0" d="m138.94136 100.5631l0 0c0 -2.8962326 2.6016846 -5.244095 5.81102 -5.244095l0 0c3.2093353 0 5.81102 2.3478622 5.81102 5.244095l0 0c0 2.8962326 -2.6016846 5.244095 -5.81102 5.244095l0 0c-3.2093353 0 -5.81102 -2.3478622 -5.81102 -5.244095z" fill-rule="nonzero"></path><path stroke="#5c5299" stroke-width="2.0" stroke-linejoin="round" stroke-linecap="butt" d="m138.94136 100.5631l0 0c0 -2.8962326 2.6016846 -5.244095 5.81102 -5.244095l0 0c3.2093353 0 5.81102 2.3478622 5.81102 5.244095l0 0c0 2.8962326 -2.6016846 5.244095 -5.81102 5.244095l0 0c-3.2093353 0 -5.81102 -2.3478622 -5.81102 -5.244095z" fill-rule="nonzero"></path><path fill="#5c5299" d="m108.344734 123.33213l0 0c0 -2.8962326 2.6016846 -5.244095 5.8110275 -5.244095l0 0c3.2093353 0 5.81102 2.3478622 5.81102 5.244095l0 0c0 2.8962402 -2.6016846 5.2441025 -5.81102 5.2441025l0 0c-3.209343 0 -5.8110275 -2.3478622 -5.8110275 -5.2441025z" fill-rule="nonzero"></path><path stroke="#5c5299" stroke-width="2.0" stroke-linejoin="round" stroke-linecap="butt" d="m108.344734 123.33213l0 0c0 -2.8962326 2.6016846 -5.244095 5.8110275 -5.244095l0 0c3.2093353 0 5.81102 2.3478622 5.81102 5.244095l0 0c0 2.8962402 -2.6016846 5.2441025 -5.81102 5.2441025l0 0c-3.209343 0 -5.8110275 -2.3478622 -5.8110275 -5.2441025z" fill-rule="nonzero"></path><path fill="#000000" fill-opacity="0.0" d="m123.64304 123.33213l0 0c0 -2.8962326 2.6016846 -5.244095 5.8110275 -5.244095l0 0c3.2093353 0 5.81102 2.3478622 5.81102 5.244095l0 0c0 2.8962402 -2.6016846 5.2441025 -5.81102 5.2441025l0 0c-3.209343 0 -5.8110275 -2.3478622 -5.8110275 -5.2441025z" fill-rule="nonzero"></path><path stroke="#5c5299" stroke-width="2.0" stroke-linejoin="round" stroke-linecap="butt" d="m123.64304 123.33213l0 0c0 -2.8962326 2.6016846 -5.244095 5.8110275 -5.244095l0 0c3.2093353 0 5.81102 2.3478622 5.81102 5.244095l0 0c0 2.8962402 -2.6016846 5.2441025 -5.81102 5.2441025l0 0c-3.209343 0 -5.8110275 -2.3478622 -5.8110275 -5.2441025z" fill-rule="nonzero"></path><path fill="#5c5299" d="m77.748116 123.33213l0 0c0 -2.8962326 2.6016846 -5.244095 5.81102 -5.244095l0 0c3.209343 0 5.8110275 2.3478622 5.8110275 5.244095l0 0c0 2.8962402 -2.6016846 5.2441025 -5.8110275 5.2441025l0 0c-3.2093353 0 -5.81102 -2.3478622 -5.81102 -5.2441025z" fill-rule="nonzero"></path><path stroke="#5c5299" stroke-width="2.0" stroke-linejoin="round" stroke-linecap="butt" d="m77.748116 123.33213l0 0c0 -2.8962326 2.6016846 -5.244095 5.81102 -5.244095l0 0c3.209343 0 5.8110275 2.3478622 5.8110275 5.244095l0 0c0 2.8962402 -2.6016846 5.2441025 -5.8110275 5.2441025l0 0c-3.2093353 0 -5.81102 -2.3478622 -5.81102 -5.2441025z" fill-rule="nonzero"></path><path fill="#5c5299" d="m93.046425 123.33213l0 0c0 -2.8962326 2.6016846 -5.244095 5.81102 -5.244095l0 0c3.209343 0 5.8110275 2.3478622 5.8110275 5.244095l0 0c0 2.8962402 -2.6016846 5.2441025 -5.8110275 5.2441025l0 0c-3.2093353 0 -5.81102 -2.3478622 -5.81102 -5.2441025z" fill-rule="nonzero"></path><path stroke="#5c5299" stroke-width="2.0" stroke-linejoin="round" stroke-linecap="butt" d="m93.046425 123.33213l0 0c0 -2.8962326 2.6016846 -5.244095 5.81102 -5.244095l0 0c3.209343 0 5.8110275 2.3478622 5.8110275 5.244095l0 0c0 2.8962402 -2.6016846 5.2441025 -5.8110275 5.2441025l0 0c-3.2093353 0 -5.81102 -2.3478622 -5.81102 -5.2441025z" fill-rule="nonzero"></path><path fill="#000000" fill-opacity="0.0" d="m138.94136 123.33213l0 0c0 -2.8962326 2.6016846 -5.244095 5.81102 -5.244095l0 0c3.2093353 0 5.81102 2.3478622 5.81102 5.244095l0 0c0 2.8962402 -2.6016846 5.2441025 -5.81102 5.2441025l0 0c-3.2093353 0 -5.81102 -2.3478622 -5.81102 -5.2441025z" fill-rule="nonzero"></path><path stroke="#5c5299" stroke-width="2.0" stroke-linejoin="round" stroke-linecap="butt" d="m138.94136 123.33213l0 0c0 -2.8962326 2.6016846 -5.244095 5.81102 -5.244095l0 0c3.2093353 0 5.81102 2.3478622 5.81102 5.244095l0 0c0 2.8962402 -2.6016846 5.2441025 -5.81102 5.2441025l0 0c-3.2093353 0 -5.81102 -2.3478622 -5.81102 -5.2441025z" fill-rule="nonzero"></path><path fill="#000000" fill-opacity="0.0" d="m268.2017 55.017174l0 0c0 -2.8962326 2.6016846 -5.244095 5.811035 -5.244095l0 0c3.20932 0 5.8110046 2.3478622 5.8110046 5.244095l0 0c0 2.8962326 -2.6016846 5.244095 -5.8110046 5.244095l0 0c-3.2093506 0 -5.811035 -2.3478622 -5.811035 -5.244095z" fill-rule="nonzero"></path><path stroke="#5c5299" stroke-width="2.0" stroke-linejoin="round" stroke-linecap="butt" d="m268.2017 55.017174l0 0c0 -2.8962326 2.6016846 -5.244095 5.811035 -5.244095l0 0c3.20932 0 5.8110046 2.3478622 5.8110046 5.244095l0 0c0 2.8962326 -2.6016846 5.244095 -5.8110046 5.244095l0 0c-3.2093506 0 -5.811035 -2.3478622 -5.811035 -5.244095z" fill-rule="nonzero"></path><path fill="#000000" fill-opacity="0.0" d="m283.5 55.017174l0 0c0 -2.8962326 2.6016846 -5.244095 5.811035 -5.244095l0 0c3.20932 0 5.8110046 2.3478622 5.8110046 5.244095l0 0c0 2.8962326 -2.6016846 5.244095 -5.8110046 5.244095l0 0c-3.2093506 0 -5.811035 -2.3478622 -5.811035 -5.244095z" fill-rule="nonzero"></path><path stroke="#5c5299" stroke-width="2.0" stroke-linejoin="round" stroke-linecap="butt" d="m283.5 55.017174l0 0c0 -2.8962326 2.6016846 -5.244095 5.811035 -5.244095l0 0c3.20932 0 5.8110046 2.3478622 5.8110046 5.244095l0 0c0 2.8962326 -2.6016846 5.244095 -5.8110046 5.244095l0 0c-3.2093506 0 -5.811035 -2.3478622 -5.811035 -5.244095z" fill-rule="nonzero"></path><path fill="#5c5299" d="m237.60507 55.017174l0 0c0 -2.8962326 2.6016846 -5.244095 5.81102 -5.244095l0 0c3.2093353 0 5.81102 2.3478622 5.81102 5.244095l0 0c0 2.8962326 -2.6016846 5.244095 -5.81102 5.244095l0 0c-3.2093353 0 -5.81102 -2.3478622 -5.81102 -5.244095z" fill-rule="nonzero"></path><path stroke="#5c5299" stroke-width="2.0" stroke-linejoin="round" stroke-linecap="butt" d="m237.60507 55.017174l0 0c0 -2.8962326 2.6016846 -5.244095 5.81102 -5.244095l0 0c3.2093353 0 5.81102 2.3478622 5.81102 5.244095l0 0c0 2.8962326 -2.6016846 5.244095 -5.81102 5.244095l0 0c-3.2093353 0 -5.81102 -2.3478622 -5.81102 -5.244095z" fill-rule="nonzero"></path><path fill="#5c5299" d="m252.90338 55.017174l0 0c0 -2.8962326 2.6016846 -5.244095 5.811035 -5.244095l0 0c3.20932 0 5.8110046 2.3478622 5.8110046 5.244095l0 0c0 2.8962326 -2.6016846 5.244095 -5.8110046 5.244095l0 0c-3.2093506 0 -5.811035 -2.3478622 -5.811035 -5.244095z" fill-rule="nonzero"></path><path stroke="#5c5299" stroke-width="2.0" stroke-linejoin="round" stroke-linecap="butt" d="m252.90338 55.017174l0 0c0 -2.8962326 2.6016846 -5.244095 5.811035 -5.244095l0 0c3.20932 0 5.8110046 2.3478622 5.8110046 5.244095l0 0c0 2.8962326 -2.6016846 5.244095 -5.8110046 5.244095l0 0c-3.2093506 0 -5.811035 -2.3478622 -5.811035 -5.244095z" fill-rule="nonzero"></path><path fill="#000000" fill-opacity="0.0" d="m298.7983 55.017174l0 0c0 -2.8962326 2.6016846 -5.244095 5.811035 -5.244095l0 0c3.20932 0 5.8110046 2.3478622 5.8110046 5.244095l0 0c0 2.8962326 -2.6016846 5.244095 -5.8110046 5.244095l0 0c-3.2093506 0 -5.811035 -2.3478622 -5.811035 -5.244095z" fill-rule="nonzero"></path><path stroke="#5c5299" stroke-width="2.0" stroke-linejoin="round" stroke-linecap="butt" d="m298.7983 55.017174l0 0c0 -2.8962326 2.6016846 -5.244095 5.811035 -5.244095l0 0c3.20932 0 5.8110046 2.3478622 5.8110046 5.244095l0 0c0 2.8962326 -2.6016846 5.244095 -5.8110046 5.244095l0 0c-3.2093506 0 -5.811035 -2.3478622 -5.811035 -5.244095z" fill-rule="nonzero"></path><path fill="#000000" fill-opacity="0.0" d="m268.20038 77.794075l0 0c0 -2.8962326 2.6016846 -5.244095 5.811035 -5.244095l0 0c3.20932 0 5.8110046 2.3478622 5.8110046 5.244095l0 0c0 2.8962326 -2.6016846 5.244095 -5.8110046 5.244095l0 0c-3.2093506 0 -5.811035 -2.3478622 -5.811035 -5.244095z" fill-rule="nonzero"></path><path stroke="#5c5299" stroke-width="2.0" stroke-linejoin="round" stroke-linecap="butt" d="m268.20038 77.794075l0 0c0 -2.8962326 2.6016846 -5.244095 5.811035 -5.244095l0 0c3.20932 0 5.8110046 2.3478622 5.8110046 5.244095l0 0c0 2.8962326 -2.6016846 5.244095 -5.8110046 5.244095l0 0c-3.2093506 0 -5.811035 -2.3478622 -5.811035 -5.244095z" fill-rule="nonzero"></path><path fill="#000000" fill-opacity="0.0" d="m283.4987 77.794075l0 0c0 -2.8962326 2.6016846 -5.244095 5.811035 -5.244095l0 0c3.20932 0 5.8110046 2.3478622 5.8110046 5.244095l0 0c0 2.8962326 -2.6016846 5.244095 -5.8110046 5.244095l0 0c-3.2093506 0 -5.811035 -2.3478622 -5.811035 -5.244095z" fill-rule="nonzero"></path><path stroke="#5c5299" stroke-width="2.0" stroke-linejoin="round" stroke-linecap="butt" d="m283.4987 77.794075l0 0c0 -2.8962326 2.6016846 -5.244095 5.811035 -5.244095l0 0c3.20932 0 5.8110046 2.3478622 5.8110046 5.244095l0 0c0 2.8962326 -2.6016846 5.244095 -5.8110046 5.244095l0 0c-3.2093506 0 -5.811035 -2.3478622 -5.811035 -5.244095z" fill-rule="nonzero"></path><path fill="#5c5299" d="m237.60376 77.794075l0 0c0 -2.8962326 2.6016846 -5.244095 5.81102 -5.244095l0 0c3.2093353 0 5.81102 2.3478622 5.81102 5.244095l0 0c0 2.8962326 -2.6016846 5.244095 -5.81102 5.244095l0 0c-3.2093353 0 -5.81102 -2.3478622 -5.81102 -5.244095z" fill-rule="nonzero"></path><path stroke="#5c5299" stroke-width="2.0" stroke-linejoin="round" stroke-linecap="butt" d="m237.60376 77.794075l0 0c0 -2.8962326 2.6016846 -5.244095 5.81102 -5.244095l0 0c3.2093353 0 5.81102 2.3478622 5.81102 5.244095l0 0c0 2.8962326 -2.6016846 5.244095 -5.81102 5.244095l0 0c-3.2093353 0 -5.81102 -2.3478622 -5.81102 -5.244095z" fill-rule="nonzero"></path><path fill="#5c5299" d="m252.90207 77.794075l0 0c0 -2.8962326 2.6016846 -5.244095 5.811035 -5.244095l0 0c3.20932 0 5.8110046 2.3478622 5.8110046 5.244095l0 0c0 2.8962326 -2.6016846 5.244095 -5.8110046 5.244095l0 0c-3.2093506 0 -5.811035 -2.3478622 -5.811035 -5.244095z" fill-rule="nonzero"></path><path stroke="#5c5299" stroke-width="2.0" stroke-linejoin="round" stroke-linecap="butt" d="m252.90207 77.794075l0 0c0 -2.8962326 2.6016846 -5.244095 5.811035 -5.244095l0 0c3.20932 0 5.8110046 2.3478622 5.8110046 5.244095l0 0c0 2.8962326 -2.6016846 5.244095 -5.8110046 5.244095l0 0c-3.2093506 0 -5.811035 -2.3478622 -5.811035 -5.244095z" fill-rule="nonzero"></path><path fill="#000000" fill-opacity="0.0" d="m298.797 77.794075l0 0c0 -2.8962326 2.6016846 -5.244095 5.811035 -5.244095l0 0c3.20932 0 5.8110046 2.3478622 5.8110046 5.244095l0 0c0 2.8962326 -2.6016846 5.244095 -5.8110046 5.244095l0 0c-3.2093506 0 -5.811035 -2.3478622 -5.811035 -5.244095z" fill-rule="nonzero"></path><path stroke="#5c5299" stroke-width="2.0" stroke-linejoin="round" stroke-linecap="butt" d="m298.797 77.794075l0 0c0 -2.8962326 2.6016846 -5.244095 5.811035 -5.244095l0 0c3.20932 0 5.8110046 2.3478622 5.8110046 5.244095l0 0c0 2.8962326 -2.6016846 5.244095 -5.8110046 5.244095l0 0c-3.2093506 0 -5.811035 -2.3478622 -5.811035 -5.244095z" fill-rule="nonzero"></path></g></svg>

