<?xml version="1.0" standalone="yes"?>

<svg version="1.1" viewBox="0.0 0.0 333.0 173.0" fill="none" stroke="none" stroke-linecap="square" stroke-miterlimit="10" xmlns="http://www.w3.org/2000/svg" xmlns:xlink="http://www.w3.org/1999/xlink"><clipPath id="p.0"><path d="m0 0l333.0 0l0 173.0l-333.0 0l0 -173.0z" clip-rule="nonzero"></path></clipPath><g clip-path="url(#p.0)"><path fill="#000000" fill-opacity="0.0" d="m0 0l333.0 0l0 173.0l-333.0 0z" fill-rule="nonzero"></path><path fill="#ffffff" d="m-0.87926507 -1.328084l333.00787 0l0 173.00787l-333.00787 0z" fill-rule="nonzero"></path><path fill="#000000" fill-opacity="0.0" d="m63.361298 7.368518l206.26773 0l0 18.992126l-206.26773 0z" fill-rule="nonzero"></path><path fill="#594c8e" d="m102.15091 21.512266q0.15625 0.015625 0.34375 0.03125q0.1875 0 0.4375 0q1.53125 0 2.265625 -0.765625q0.734375 -0.765625 0.734375 -2.125q0 -1.40625 -0.703125 -2.140625q-0.703125 -0.73437405 -2.234375 -0.73437405q-0.203125 0 -0.421875 0.015625q-0.21875 0 -0.421875 0.03125l0 5.687499zm5.875 -2.859375q0 1.171875 -0.375 2.046875q-0.359375 0.875 -1.03125 1.453125q-0.671875 0.5625 -1.640625 0.84375q-0.953125 0.28125 -2.140625 0.28125q-0.546875 0 -1.28125 -0.046875q-0.734375 -0.03125 -1.421875 -0.171875l0 -8.781249q0.6875 -0.125 1.453125 -0.171875q0.765625 -0.046875 1.3125 -0.046875q1.15625 0 2.09375 0.265625q0.9375 0.25 1.609375 0.8125q0.6875 0.5625 1.046875 1.437499q0.375 0.859375 0.375 2.078125zm1.4634094 1.15625q0 -0.921875 0.28125 -1.59375q0.28125 -0.6875 0.734375 -1.140625q0.453125 -0.453125 1.046875 -0.6875q0.59375 -0.234375 1.21875 -0.234375q1.453125 0 2.296875 0.890625q0.84375 0.890625 0.84375 2.609375q0 0.171875 -0.015625 0.375q0 0.203125 -0.015625 0.359375l-4.390625 0q0.0625 0.59375 0.546875 0.953125q0.5 0.34375 1.328125 0.34375q0.53125 0 1.046875 -0.09375q0.515625 -0.09375 0.84375 -0.234375l0.265625 1.5625q-0.15625 0.078125 -0.421875 0.15625q-0.265625 0.078125 -0.578125 0.140625q-0.3125 0.0625 -0.6875 0.09375q-0.359375 0.046875 -0.71875 0.046875q-0.921875 0 -1.609375 -0.265625q-0.6875 -0.28125 -1.140625 -0.75q-0.4375 -0.484375 -0.65625 -1.125q-0.21875 -0.65625 -0.21875 -1.40625zm4.5625 -0.75q-0.015625 -0.25 -0.09375 -0.484375q-0.0625 -0.234375 -0.21875 -0.40625q-0.140625 -0.1875 -0.375 -0.296875q-0.234375 -0.125 -0.5625 -0.125q-0.328125 0 -0.5625 0.109375q-0.234375 0.109375 -0.390625 0.296875q-0.15625 0.171875 -0.25 0.421875q-0.078125 0.234375 -0.109375 0.484375l2.5625 0zm0.21875 -5.187499l-2.140625 1.8125l-0.875 -0.796875l1.84375 -2.109375l1.171875 1.09375zm5.18985 9.296874q-0.65625 -1.296875 -1.34375 -3.03125q-0.6875 -1.75 -1.296875 -3.8125l2.0625 0q0.125 0.515625 0.296875 1.109375q0.1875 0.59375 0.375 1.203125q0.1875 0.59375 0.375 1.171875q0.1875 0.5625 0.359375 1.03125q0.171875 -0.46875 0.359375 -1.03125q0.203125 -0.578125 0.390625 -1.171875q0.1875 -0.609375 0.359375 -1.203125q0.1875 -0.59375 0.3125 -1.109375l2.0 0q-0.609375 2.0625 -1.296875 3.8125q-0.671875 1.734375 -1.34375 3.03125l-1.609375 0zm5.1429443 -3.359375q0 -0.921875 0.28125 -1.59375q0.28125 -0.6875 0.734375 -1.140625q0.453125 -0.453125 1.046875 -0.6875q0.59375 -0.234375 1.21875 -0.234375q1.453125 0 2.296875 0.890625q0.84375 0.890625 0.84375 2.609375q0 0.171875 -0.015625 0.375q0 0.203125 -0.015625 0.359375l-4.390625 0q0.0625 0.59375 0.546875 0.953125q0.5 0.34375 1.328125 0.34375q0.53125 0 1.046875 -0.09375q0.515625 -0.09375 0.84375 -0.234375l0.265625 1.5625q-0.15625 0.078125 -0.421875 0.15625q-0.265625 0.078125 -0.578125 0.140625q-0.3125 0.0625 -0.6875 0.09375q-0.359375 0.046875 -0.71875 0.046875q-0.921875 0 -1.609375 -0.265625q-0.6875 -0.28125 -1.140625 -0.75q-0.4375 -0.484375 -0.65625 -1.125q-0.21875 -0.65625 -0.21875 -1.40625zm4.5625 -0.75q-0.015625 -0.25 -0.09375 -0.484375q-0.0625 -0.234375 -0.21875 -0.40625q-0.140625 -0.1875 -0.375 -0.296875q-0.234375 -0.125 -0.5625 -0.125q-0.328125 0 -0.5625 0.109375q-0.234375 0.109375 -0.390625 0.296875q-0.15625 0.171875 -0.25 0.421875q-0.078125 0.234375 -0.109375 0.484375l2.5625 0zm6.2836 4.234375q-0.84375 -0.015625 -1.375 -0.171875q-0.53125 -0.171875 -0.84375 -0.46875q-0.296875 -0.3125 -0.40625 -0.75q-0.109375 -0.4375 -0.109375 -0.984375l0 -7.531249l1.9375 -0.3125l0 7.453124q0 0.265625 0.03125 0.46875q0.046875 0.203125 0.15625 0.359375q0.109375 0.140625 0.3125 0.234375q0.21875 0.078125 0.5625 0.109375l-0.265625 1.59375zm7.883545 -3.5625q0 0.8125 -0.234375 1.484375q-0.234375 0.671875 -0.6875 1.140625q-0.4375 0.46875 -1.0625 0.734375q-0.609375 0.265625 -1.375 0.265625q-0.75 0 -1.375 -0.265625q-0.609375 -0.265625 -1.0625 -0.734375q-0.4375 -0.46875 -0.6875 -1.140625q-0.25 -0.671875 -0.25 -1.484375q0 -0.796875 0.25 -1.453125q0.265625 -0.671875 0.703125 -1.140625q0.453125 -0.46875 1.0625 -0.71875q0.625 -0.265625 1.359375 -0.265625q0.734375 0 1.34375 0.265625q0.625 0.25 1.0625 0.71875q0.453125 0.46875 0.703125 1.140625q0.25 0.65625 0.25 1.453125zm-1.984375 0q0 -0.890625 -0.359375 -1.40625q-0.359375 -0.515625 -1.015625 -0.515625q-0.671875 0 -1.03125 0.515625q-0.359375 0.515625 -0.359375 1.40625q0 0.90625 0.359375 1.4375q0.359375 0.515625 1.03125 0.515625q0.65625 0 1.015625 -0.515625q0.359375 -0.53125 0.359375 -1.4375zm8.058899 0.078125q0 -0.90625 -0.40625 -1.4375q-0.40625 -0.546875 -1.203125 -0.546875q-0.25 0 -0.484375 0.03125q-0.21875 0.015625 -0.359375 0.03125l0 3.5q0.1875 0.125 0.46875 0.203125q0.296875 0.0625 0.59375 0.0625q1.390625 0 1.390625 -1.84375zm1.96875 -0.0625q0 0.796875 -0.203125 1.453125q-0.1875 0.640625 -0.5625 1.109375q-0.375 0.46875 -0.9375 0.734375q-0.5625 0.25 -1.28125 0.25q-0.40625 0 -0.765625 -0.078125q-0.34375 -0.078125 -0.671875 -0.21875l0 2.578125l-1.9375 0l0 -9.015625q0.265625 -0.078125 0.59375 -0.140625q0.34375 -0.078125 0.71875 -0.125q0.375 -0.046875 0.75 -0.078125q0.390625 -0.046875 0.734375 -0.046875q0.84375 0 1.5 0.265625q0.671875 0.25 1.125 0.71875q0.453125 0.453125 0.6875 1.125q0.25 0.65625 0.25 1.46875zm6.0814056 0.0625q0 -0.90625 -0.40625 -1.4375q-0.40625 -0.546875 -1.203125 -0.546875q-0.25 0 -0.484375 0.03125q-0.21875 0.015625 -0.359375 0.03125l0 3.5q0.1875 0.125 0.46875 0.203125q0.296875 0.0625 0.59375 0.0625q1.390625 0 1.390625 -1.84375zm1.96875 -0.0625q0 0.796875 -0.203125 1.453125q-0.1875 0.640625 -0.5625 1.109375q-0.375 0.46875 -0.9375 0.734375q-0.5625 0.25 -1.28125 0.25q-0.40625 0 -0.765625 -0.078125q-0.34375 -0.078125 -0.671875 -0.21875l0 2.578125l-1.9375 0l0 -9.015625q0.265625 -0.078125 0.59375 -0.140625q0.34375 -0.078125 0.71875 -0.125q0.375 -0.046875 0.75 -0.078125q0.390625 -0.046875 0.734375 -0.046875q0.84375 0 1.5 0.265625q0.671875 0.25 1.125 0.71875q0.453125 0.453125 0.6875 1.125q0.25 0.65625 0.25 1.46875zm1.3626556 0.0625q0 -0.921875 0.28125 -1.59375q0.28125 -0.6875 0.734375 -1.140625q0.453125 -0.453125 1.046875 -0.6875q0.59375 -0.234375 1.21875 -0.234375q1.453125 0 2.296875 0.890625q0.84375 0.890625 0.84375 2.609375q0 0.171875 -0.015625 0.375q0 0.203125 -0.015625 0.359375l-4.390625 0q0.0625 0.59375 0.546875 0.953125q0.5 0.34375 1.328125 0.34375q0.53125 0 1.046875 -0.09375q0.515625 -0.09375 0.84375 -0.234375l0.265625 1.5625q-0.15625 0.078125 -0.421875 0.15625q-0.265625 0.078125 -0.578125 0.140625q-0.3125 0.0625 -0.6875 0.09375q-0.359375 0.046875 -0.71875 0.046875q-0.921875 0 -1.609375 -0.265625q-0.6875 -0.28125 -1.140625 -0.75q-0.4375 -0.484375 -0.65625 -1.125q-0.21875 -0.65625 -0.21875 -1.40625zm4.5625 -0.75q-0.015625 -0.25 -0.09375 -0.484375q-0.0625 -0.234375 -0.21875 -0.40625q-0.140625 -0.1875 -0.375 -0.296875q-0.234375 -0.125 -0.5625 -0.125q-0.328125 0 -0.5625 0.109375q-0.234375 0.109375 -0.390625 0.296875q-0.15625 0.171875 -0.25 0.421875q-0.078125 0.234375 -0.109375 0.484375l2.5625 0zm7.31485 0.484375q0 -0.9375 -0.25 -1.328125q-0.234375 -0.390625 -0.828125 -0.390625q-0.171875 0 -0.375 0.03125q-0.1875 0.015625 -0.375 0.03125l0 5.28125l-1.9375 0l0 -6.609375q0.25 -0.0625 0.578125 -0.125q0.328125 -0.078125 0.703125 -0.125q0.375 -0.0625 0.765625 -0.09375q0.390625 -0.046875 0.765625 -0.046875q0.734375 0 1.1875 0.203125q0.46875 0.1875 0.78125 0.4375q0.40625 -0.296875 0.9375 -0.46875q0.546875 -0.171875 1.0 -0.171875q0.828125 0 1.34375 0.234375q0.53125 0.234375 0.84375 0.65625q0.3125 0.40625 0.421875 0.984375q0.125 0.5625 0.125 1.265625l0 3.859375l-1.9375 0l0 -3.625q0 -0.9375 -0.25 -1.328125q-0.234375 -0.390625 -0.8125 -0.390625q-0.15625 0 -0.4375 0.078125q-0.28125 0.078125 -0.453125 0.203125q0.078125 0.296875 0.109375 0.625q0.03125 0.328125 0.03125 0.703125l0 3.734375l-1.9375 0l0 -3.625zm7.39505 0.265625q0 -0.921875 0.28125 -1.59375q0.28125 -0.6875 0.734375 -1.140625q0.453125 -0.453125 1.046875 -0.6875q0.59375 -0.234375 1.21875 -0.234375q1.453125 0 2.296875 0.890625q0.84375 0.890625 0.84375 2.609375q0 0.171875 -0.015625 0.375q0 0.203125 -0.015625 0.359375l-4.390625 0q0.0625 0.59375 0.546875 0.953125q0.5 0.34375 1.328125 0.34375q0.53125 0 1.046875 -0.09375q0.515625 -0.09375 0.84375 -0.234375l0.265625 1.5625q-0.15625 0.078125 -0.421875 0.15625q-0.265625 0.078125 -0.578125 0.140625q-0.3125 0.0625 -0.6875 0.09375q-0.359375 0.046875 -0.71875 0.046875q-0.921875 0 -1.609375 -0.265625q-0.6875 -0.28125 -1.140625 -0.75q-0.4375 -0.484375 -0.65625 -1.125q-0.21875 -0.65625 -0.21875 -1.40625zm4.5625 -0.75q-0.015625 -0.25 -0.09375 -0.484375q-0.0625 -0.234375 -0.21875 -0.40625q-0.140625 -0.1875 -0.375 -0.296875q-0.234375 -0.125 -0.5625 -0.125q-0.328125 0 -0.5625 0.109375q-0.234375 0.109375 -0.390625 0.296875q-0.15625 0.171875 -0.25 0.421875q-0.078125 0.234375 -0.109375 0.484375l2.5625 0zm3.5492249 -2.5q0.5 -0.140625 1.28125 -0.265625q0.78125 -0.125 1.640625 -0.125q0.859375 0 1.4375 0.234375q0.578125 0.234375 0.921875 0.65625q0.34375 0.40625 0.484375 0.984375q0.140625 0.5625 0.140625 1.265625l0 3.859375l-1.9375 0l0 -3.625q0 -0.9375 -0.25 -1.328125q-0.25 -0.390625 -0.921875 -0.390625q-0.203125 0 -0.4375 0.03125q-0.234375 0.015625 -0.421875 0.03125l0 5.28125l-1.9375 0l0 -6.609375zm7.787735 -1.937499l1.9375 -0.3125l0 2.015624l2.328125 0l0 1.625l-2.328125 0l0 2.390625q0 0.625 0.21875 0.984375q0.21875 0.359375 0.859375 0.359375q0.3125 0 0.640625 -0.046875q0.34375 -0.0625 0.609375 -0.171875l0.265625 1.515625q-0.34375 0.140625 -0.78125 0.234375q-0.421875 0.109375 -1.046875 0.109375q-0.796875 0 -1.3125 -0.203125q-0.515625 -0.21875 -0.828125 -0.609375q-0.3125 -0.390625 -0.4375 -0.921875q-0.125 -0.546875 -0.125 -1.21875l0 -5.749999zm15.350784 0.5q0.15625 0.53125 0.34375 1.203124q0.203125 0.671875 0.40625 1.390625q0.21875 0.703125 0.4375 1.421875q0.21875 0.71875 0.4375 1.328125q0.15625 -0.65625 0.328125 -1.4375q0.1875 -0.78125 0.34375 -1.609375q0.15625 -0.84375 0.296875 -1.656249q0.15625 -0.828125 0.28125 -1.609375l2.109375 0q-0.453125 2.265624 -1.046875 4.593749q-0.59375 2.328125 -1.28125 4.421875l-1.859375 0q-0.453125 -1.25 -0.890625 -2.609375q-0.421875 -1.375 -0.828125 -2.765625q-0.421875 1.390625 -0.84375 2.765625q-0.40625 1.359375 -0.859375 2.609375l-1.859375 0q-0.703125 -2.09375 -1.296875 -4.421875q-0.578125 -2.328125 -1.03125 -4.593749l2.1875 0q0.140625 0.78125 0.296875 1.609375q0.15625 0.81249905 0.3125 1.656249q0.171875 0.828125 0.34375 1.609375q0.1875 0.78125 0.359375 1.4375q0.234375 -0.640625 0.453125 -1.34375q0.234375 -0.71875 0.4375 -1.4375q0.203125 -0.71875 0.375 -1.375q0.1875 -0.67187405 0.328125 -1.187499l1.71875 0zm6.60376 8.046874l0 -9.015624l6.078125 0l0 1.703125l-4.0625 0l0 1.781249l3.609375 0l0 1.65625l-3.609375 0l0 2.171875l4.359375 0l0 1.703125l-6.375 0zm11.076813 0.109375q-0.75 0 -1.484375 -0.046875q-0.734375 -0.03125 -1.515625 -0.203125l0 -8.734374q0.609375 -0.125 1.34375 -0.171875q0.75 -0.0625 1.390625 -0.0625q0.859375 0 1.578125 0.125q0.71875 0.125 1.234375 0.421875q0.53125 0.296875 0.8125 0.78125q0.296875 0.484375 0.296875 1.203124q0 1.078125 -1.03125 1.703125q0.859375 0.328125 1.171875 0.890625q0.3125 0.546875 0.3125 1.25q0 1.421875 -1.046875 2.140625q-1.03125 0.703125 -3.0625 0.703125zm-1.03125 -4.03125l0 2.328125q0.21875 0.015625 0.46875 0.03125q0.265625 0.015625 0.578125 0.015625q0.921875 0 1.46875 -0.25q0.5625 -0.265625 0.5625 -0.96875q0 -0.625 -0.46875 -0.890625q-0.46875 -0.265625 -1.328125 -0.265625l-1.28125 0zm0 -1.546875l0.984375 0q0.9375 0 1.34375 -0.234375q0.40625 -0.25 0.40625 -0.78125q0 -0.546875 -0.421875 -0.76562405q-0.421875 -0.21875 -1.21875 -0.21875q-0.265625 0 -0.5625 0q-0.296875 0 -0.53125 0.03125l0 1.968749z" fill-rule="nonzero"></path><path fill="#000000" fill-opacity="0.0" d="m6.572308 43.45983l63.086613 0l0 23.11811l-63.086613 0z" fill-rule="nonzero"></path><path fill="#594c8e" d="m36.16745 50.13389l1.703125 0l0 7.625l-1.703125 0l0 -3.234375l-2.890625 0l0 3.234375l-1.71875 0l0 -7.625l1.71875 0l0 2.921875l2.890625 0l0 -2.921875zm8.868637 0l0 1.46875l-2.296875 0l0 6.15625l-1.71875 0l0 -6.15625l-2.296875 0l0 -1.46875l6.3125 0zm2.9179993 0q0.203125 0.359375 0.453125 0.90625q0.265625 0.53125 0.546875 1.15625q0.28125 0.609375 0.546875 1.265625q0.28125 0.640625 0.515625 1.21875q0.25 -0.578125 0.515625 -1.21875q0.28125 -0.65625 0.5625 -1.265625q0.28125 -0.625 0.53125 -1.15625q0.265625 -0.546875 0.46875 -0.90625l1.5625 0q0.109375 0.765625 0.203125 1.703125q0.09375 0.9375 0.15625 1.953125q0.078125 1.015625 0.125 2.046875q0.0625 1.015625 0.109375 1.921875l-1.671875 0q-0.03125 -1.109375 -0.09375 -2.421875q-0.046875 -1.3125 -0.15625 -2.640625q-0.203125 0.46875 -0.453125 1.03125q-0.234375 0.5625 -0.46875 1.125q-0.234375 0.546875 -0.453125 1.0625q-0.21875 0.515625 -0.375 0.875l-1.203125 0q-0.140625 -0.359375 -0.375 -0.875q-0.21875 -0.515625 -0.453125 -1.0625q-0.234375 -0.5625 -0.484375 -1.125q-0.234375 -0.5625 -0.4375 -1.03125q-0.109375 1.328125 -0.171875 2.640625q-0.046875 1.3125 -0.078125 2.421875l-1.671875 0q0.046875 -0.90625 0.109375 -1.921875q0.0625 -1.03125 0.125 -2.046875q0.078125 -1.015625 0.171875 -1.953125q0.09375 -0.9375 0.203125 -1.703125l1.640625 0zm12.621246 6.15625l0 1.46875l-5.09375 0l0 -7.625l1.71875 0l0 6.15625l3.375 0zm3.983902 -0.78125q0 -0.3125 -0.140625 -0.5625q-0.140625 -0.25 -0.5 -0.40625q-0.34375 -0.171875 -0.9375 -0.25q-0.59375 -0.09375 -1.5 -0.09375q0.125 -1.03125 0.203125 -2.078125q0.078125 -1.0625 0.125 -1.984375l4.125 0l0 1.375l-2.75 0q-0.03125 0.390625 -0.0625 0.765625q-0.015625 0.375 -0.046875 0.640625q1.59375 0.109375 2.359375 0.765625q0.765625 0.640625 0.765625 1.78125q0 0.53125 -0.1875 0.984375q-0.1875 0.4375 -0.5625 0.78125q-0.359375 0.328125 -0.9375 0.515625q-0.5625 0.1875 -1.328125 0.1875q-0.296875 0 -0.625 -0.046875q-0.3125 -0.03125 -0.625 -0.09375q-0.296875 -0.0625 -0.546875 -0.125q-0.234375 -0.078125 -0.359375 -0.140625l0.296875 -1.34375q0.265625 0.109375 0.71875 0.234375q0.453125 0.109375 1.078125 0.109375q0.765625 0 1.09375 -0.296875q0.34375 -0.3125 0.34375 -0.71875z" fill-rule="nonzero"></path><path fill="#000000" fill-opacity="0.0" d="m6.572308 66.23513l63.086613 0l0 23.11811l-63.086613 0z" fill-rule="nonzero"></path><path fill="#594c8e" d="m47.51587 77.97169q0 0.5625 -0.125 1.0625q-0.125 0.484375 -0.4375 0.859375q-0.3125 0.359375 -0.84375 0.578125q-0.53125 0.21875 -1.359375 0.21875q-0.734375 0 -1.28125 -0.171875q-0.53125 -0.1875 -0.890625 -0.4375l0.578125 -1.328125q0.3125 0.1875 0.671875 0.328125q0.375 0.140625 0.796875 0.140625q0.625 0 0.890625 -0.296875q0.28125 -0.3125 0.28125 -1.046875l0 -4.96875l1.71875 0l0 5.0625zm3.574707 1.421875q0.234375 0 0.453125 -0.015625q0.21875 -0.015625 0.359375 -0.03125l0 -1.25q-0.09375 -0.015625 -0.296875 -0.03125q-0.203125 -0.03125 -0.359375 -0.03125q-0.234375 0 -0.4375 0.03125q-0.203125 0.03125 -0.359375 0.109375q-0.15625 0.078125 -0.25 0.203125q-0.078125 0.125 -0.078125 0.328125q0 0.390625 0.25 0.546875q0.265625 0.140625 0.71875 0.140625zm-0.140625 -4.796875q0.734375 0 1.21875 0.171875q0.484375 0.15625 0.765625 0.46875q0.296875 0.296875 0.421875 0.75q0.125 0.4375 0.125 0.96875l0 3.40625q-0.359375 0.078125 -0.984375 0.1875q-0.625 0.109375 -1.515625 0.109375q-0.5625 0 -1.03125 -0.109375q-0.453125 -0.09375 -0.78125 -0.3125q-0.328125 -0.234375 -0.5 -0.59375q-0.171875 -0.359375 -0.171875 -0.890625q0 -0.5 0.203125 -0.84375q0.203125 -0.359375 0.53125 -0.5625q0.34375 -0.21875 0.78125 -0.3125q0.453125 -0.09375 0.921875 -0.09375q0.3125 0 0.5625 0.03125q0.25 0.015625 0.40625 0.0625l0 -0.15625q0 -0.40625 -0.265625 -0.65625q-0.25 -0.265625 -0.875 -0.265625q-0.40625 0 -0.8125 0.0625q-0.40625 0.0625 -0.703125 0.171875l-0.21875 -1.328125q0.140625 -0.03125 0.359375 -0.078125q0.21875 -0.0625 0.46875 -0.09375q0.25 -0.046875 0.53125 -0.0625q0.28125 -0.03125 0.5625 -0.03125zm5.2210846 3.0q0 0.765625 0.328125 1.234375q0.34375 0.453125 1.015625 0.453125q0.21875 0 0.40625 -0.015625q0.1875 -0.015625 0.3125 -0.046875l0 -2.984375q-0.15625 -0.09375 -0.40625 -0.15625q-0.234375 -0.0625 -0.5 -0.0625q-1.15625 0 -1.15625 1.578125zm3.703125 2.75q-0.21875 0.0625 -0.515625 0.125q-0.28125 0.0625 -0.59375 0.109375q-0.3125 0.046875 -0.640625 0.0625q-0.3125 0.03125 -0.609375 0.03125q-0.71875 0 -1.28125 -0.203125q-0.5625 -0.21875 -0.953125 -0.609375q-0.375 -0.390625 -0.578125 -0.9375q-0.203125 -0.5625 -0.203125 -1.25q0 -0.703125 0.171875 -1.265625q0.171875 -0.578125 0.5 -0.96875q0.328125 -0.390625 0.8125 -0.59375q0.484375 -0.21875 1.09375 -0.21875q0.34375 0 0.609375 0.0625q0.265625 0.0625 0.546875 0.1875l0 -2.609375l1.640625 -0.265625l0 8.34375zm1.0614471 -2.65625q0 -0.78125 0.234375 -1.359375q0.234375 -0.578125 0.609375 -0.953125q0.390625 -0.390625 0.890625 -0.578125q0.5 -0.203125 1.03125 -0.203125q1.234375 0 1.9375 0.75q0.71875 0.75 0.71875 2.21875q0 0.140625 -0.015625 0.3125q0 0.171875 -0.015625 0.296875l-3.71875 0q0.0625 0.515625 0.46875 0.8125q0.421875 0.296875 1.125 0.296875q0.453125 0 0.890625 -0.078125q0.4375 -0.09375 0.71875 -0.21875l0.21875 1.34375q-0.140625 0.0625 -0.359375 0.125q-0.21875 0.0625 -0.484375 0.109375q-0.265625 0.0625 -0.578125 0.09375q-0.3125 0.03125 -0.625 0.03125q-0.78125 0 -1.359375 -0.234375q-0.578125 -0.234375 -0.953125 -0.625q-0.375 -0.40625 -0.5625 -0.953125q-0.171875 -0.5625 -0.171875 -1.1875zm3.84375 -0.625q-0.015625 -0.21875 -0.078125 -0.40625q-0.046875 -0.203125 -0.1875 -0.359375q-0.125 -0.15625 -0.3125 -0.25q-0.1875 -0.109375 -0.484375 -0.109375q-0.265625 0 -0.46875 0.09375q-0.1875 0.09375 -0.328125 0.25q-0.125 0.15625 -0.203125 0.359375q-0.0625 0.203125 -0.109375 0.421875l2.171875 0z" fill-rule="nonzero"></path><path fill="#000000" fill-opacity="0.0" d="m6.572308 89.01043l63.086613 0l0 23.11811l-63.086613 0z" fill-rule="nonzero"></path><path fill="#594c8e" d="m45.656174 103.46573q-1.859375 0 -2.84375 -1.03125q-0.96875 -1.03125 -0.96875 -2.9375q0 -0.953125 0.296875 -1.6875q0.296875 -0.75 0.8125 -1.25q0.515625 -0.515625 1.234375 -0.78125q0.71875 -0.265625 1.546875 -0.265625q0.484375 0 0.875 0.078125q0.40625 0.0625 0.703125 0.15625q0.296875 0.09375 0.484375 0.203125q0.203125 0.09375 0.296875 0.140625l-0.5 1.390625q-0.34375 -0.1875 -0.8125 -0.3125q-0.46875 -0.140625 -1.0625 -0.140625q-0.390625 0 -0.78125 0.140625q-0.375 0.125 -0.671875 0.421875q-0.28125 0.28125 -0.46875 0.75q-0.171875 0.453125 -0.171875 1.125q0 0.515625 0.109375 0.984375q0.125 0.453125 0.375 0.78125q0.265625 0.328125 0.6875 0.53125q0.421875 0.1875 1.015625 0.1875q0.375 0 0.671875 -0.046875q0.296875 -0.046875 0.515625 -0.109375q0.234375 -0.0625 0.40625 -0.140625q0.1875 -0.078125 0.328125 -0.140625l0.46875 1.375q-0.359375 0.21875 -1.03125 0.40625q-0.65625 0.171875 -1.515625 0.171875zm5.499069 -1.46875q0.375 0 0.609375 -0.0625q0.234375 -0.0625 0.375 -0.15625q0.140625 -0.109375 0.1875 -0.25q0.0625 -0.140625 0.0625 -0.3125q0 -0.375 -0.359375 -0.625q-0.34375 -0.25 -1.203125 -0.53125q-0.375 -0.140625 -0.75 -0.3125q-0.375 -0.171875 -0.671875 -0.421875q-0.296875 -0.265625 -0.484375 -0.625q-0.1875 -0.375 -0.1875 -0.90625q0 -0.515625 0.203125 -0.9375q0.203125 -0.4375 0.5625 -0.734375q0.359375 -0.296875 0.875 -0.453125q0.515625 -0.15625 1.171875 -0.15625q0.765625 0 1.328125 0.171875q0.5625 0.15625 0.921875 0.359375l-0.484375 1.34375q-0.328125 -0.15625 -0.71875 -0.28125q-0.390625 -0.140625 -0.9375 -0.140625q-0.609375 0 -0.890625 0.171875q-0.265625 0.171875 -0.265625 0.53125q0 0.203125 0.09375 0.359375q0.109375 0.140625 0.28125 0.25q0.1875 0.109375 0.421875 0.203125q0.234375 0.09375 0.53125 0.203125q0.59375 0.21875 1.03125 0.4375q0.4375 0.203125 0.71875 0.5q0.296875 0.28125 0.4375 0.671875q0.15625 0.375 0.15625 0.921875q0 1.078125 -0.75 1.671875q-0.75 0.578125 -2.265625 0.578125q-0.5 0 -0.90625 -0.0625q-0.40625 -0.0625 -0.71875 -0.140625q-0.3125 -0.09375 -0.546875 -0.1875q-0.21875 -0.109375 -0.375 -0.1875l0.484375 -1.375q0.34375 0.1875 0.84375 0.34375q0.5 0.140625 1.21875 0.140625zm6.201996 0q0.375 0 0.609375 -0.0625q0.234375 -0.0625 0.375 -0.15625q0.140625 -0.109375 0.1875 -0.25q0.0625 -0.140625 0.0625 -0.3125q0 -0.375 -0.359375 -0.625q-0.34375 -0.25 -1.203125 -0.53125q-0.375 -0.140625 -0.75 -0.3125q-0.375 -0.171875 -0.671875 -0.421875q-0.296875 -0.265625 -0.484375 -0.625q-0.1875 -0.375 -0.1875 -0.90625q0 -0.515625 0.203125 -0.9375q0.203125 -0.4375 0.5625 -0.734375q0.359375 -0.296875 0.875 -0.453125q0.515625 -0.15625 1.171875 -0.15625q0.765625 0 1.328125 0.171875q0.5625 0.15625 0.921875 0.359375l-0.484375 1.34375q-0.328125 -0.15625 -0.71875 -0.28125q-0.390625 -0.140625 -0.9375 -0.140625q-0.609375 0 -0.890625 0.171875q-0.265625 0.171875 -0.265625 0.53125q0 0.203125 0.09375 0.359375q0.109375 0.140625 0.28125 0.25q0.1875 0.109375 0.421875 0.203125q0.234375 0.09375 0.53125 0.203125q0.59375 0.21875 1.03125 0.4375q0.4375 0.203125 0.71875 0.5q0.296875 0.28125 0.4375 0.671875q0.15625 0.375 0.15625 0.921875q0 1.078125 -0.75 1.671875q-0.75 0.578125 -2.265625 0.578125q-0.5 0 -0.90625 -0.0625q-0.40625 -0.0625 -0.71875 -0.140625q-0.3125 -0.09375 -0.546875 -0.1875q-0.21875 -0.109375 -0.375 -0.1875l0.484375 -1.375q0.34375 0.1875 0.84375 0.34375q0.5 0.140625 1.21875 0.140625zm5.764496 1.484375q-0.296875 0 -0.640625 -0.046875q-0.328125 -0.03125 -0.640625 -0.109375q-0.296875 -0.0625 -0.5625 -0.140625q-0.25 -0.078125 -0.390625 -0.140625l0.328125 -1.359375q0.28125 0.125 0.71875 0.265625q0.453125 0.125 1.109375 0.125q0.765625 0 1.109375 -0.28125q0.359375 -0.28125 0.359375 -0.765625q0 -0.296875 -0.125 -0.5q-0.125 -0.203125 -0.34375 -0.328125q-0.21875 -0.140625 -0.53125 -0.1875q-0.296875 -0.046875 -0.640625 -0.046875l-0.640625 0l0 -1.3125l0.734375 0q0.234375 0 0.453125 -0.046875q0.234375 -0.046875 0.40625 -0.15625q0.1875 -0.109375 0.28125 -0.28125q0.109375 -0.1875 0.109375 -0.453125q0 -0.21875 -0.09375 -0.359375q-0.078125 -0.15625 -0.21875 -0.25q-0.140625 -0.109375 -0.328125 -0.15625q-0.171875 -0.046875 -0.359375 -0.046875q-0.46875 0 -0.875 0.140625q-0.40625 0.140625 -0.734375 0.34375l-0.578125 -1.1875q0.171875 -0.125 0.40625 -0.234375q0.234375 -0.125 0.515625 -0.21875q0.296875 -0.109375 0.609375 -0.171875q0.328125 -0.0625 0.703125 -0.0625q0.671875 0 1.15625 0.15625q0.484375 0.15625 0.796875 0.453125q0.328125 0.296875 0.484375 0.6875q0.15625 0.390625 0.15625 0.84375q0 0.453125 -0.265625 0.875q-0.25 0.421875 -0.671875 0.640625q0.59375 0.25 0.921875 0.734375q0.328125 0.46875 0.328125 1.140625q0 0.53125 -0.1875 0.984375q-0.171875 0.4375 -0.546875 0.765625q-0.375 0.3125 -0.953125 0.5q-0.578125 0.1875 -1.359375 0.1875z" fill-rule="nonzero"></path><path fill="#000000" fill-opacity="0.0" d="m6.575954 111.7857l63.086613 0l0 23.11811l-63.086613 0z" fill-rule="nonzero"></path><path fill="#594c8e" d="m50.071808 124.616005l0 1.46875l-5.09375 0l0 -7.625l1.71875 0l0 6.15625l3.375 0zm0.530777 -1.375q0 -0.78125 0.234375 -1.359375q0.234375 -0.578125 0.609375 -0.953125q0.390625 -0.390625 0.890625 -0.578125q0.5 -0.203125 1.03125 -0.203125q1.234375 0 1.9375 0.75q0.71875 0.75 0.71875 2.21875q0 0.140625 -0.015625 0.3125q0 0.171875 -0.015625 0.296875l-3.71875 0q0.0625 0.515625 0.46875 0.8125q0.421875 0.296875 1.125 0.296875q0.453125 0 0.890625 -0.078125q0.4375 -0.09375 0.71875 -0.21875l0.21875 1.34375q-0.140625 0.0625 -0.359375 0.125q-0.21875 0.0625 -0.484375 0.109375q-0.265625 0.0625 -0.578125 0.09375q-0.3125 0.03125 -0.625 0.03125q-0.78125 0 -1.359375 -0.234375q-0.578125 -0.234375 -0.953125 -0.625q-0.375 -0.40625 -0.5625 -0.953125q-0.171875 -0.5625 -0.171875 -1.1875zm3.84375 -0.625q-0.015625 -0.21875 -0.078125 -0.40625q-0.046875 -0.203125 -0.1875 -0.359375q-0.125 -0.15625 -0.3125 -0.25q-0.1875 -0.109375 -0.484375 -0.109375q-0.265625 0 -0.46875 0.09375q-0.1875 0.09375 -0.328125 0.25q-0.125 0.15625 -0.203125 0.359375q-0.0625 0.203125 -0.109375 0.421875l2.171875 0zm4.3170624 2.296875q0.4375 0 0.625 -0.09375q0.1875 -0.09375 0.1875 -0.34375q0 -0.1875 -0.25 -0.328125q-0.234375 -0.15625 -0.71875 -0.34375q-0.390625 -0.15625 -0.703125 -0.296875q-0.3125 -0.15625 -0.53125 -0.375q-0.21875 -0.21875 -0.34375 -0.515625q-0.125 -0.296875 -0.125 -0.71875q0 -0.8125 0.609375 -1.28125q0.609375 -0.46875 1.65625 -0.46875q0.53125 0 1.015625 0.09375q0.484375 0.09375 0.765625 0.203125l-0.28125 1.28125q-0.28125 -0.109375 -0.625 -0.1875q-0.328125 -0.078125 -0.75 -0.078125q-0.765625 0 -0.765625 0.4375q0 0.09375 0.03125 0.171875q0.03125 0.078125 0.125 0.15625q0.109375 0.0625 0.28125 0.15625q0.171875 0.078125 0.421875 0.171875q0.546875 0.203125 0.890625 0.390625q0.359375 0.1875 0.5625 0.421875q0.203125 0.21875 0.28125 0.5q0.09375 0.265625 0.09375 0.640625q0 0.859375 -0.65625 1.296875q-0.640625 0.4375 -1.8125 0.4375q-0.765625 0 -1.28125 -0.140625q-0.515625 -0.125 -0.71875 -0.21875l0.28125 -1.328125q0.421875 0.171875 0.859375 0.265625q0.4375 0.09375 0.875 0.09375zm5.168335 0q0.4375 0 0.625 -0.09375q0.1875 -0.09375 0.1875 -0.34375q0 -0.1875 -0.25 -0.328125q-0.234375 -0.15625 -0.71875 -0.34375q-0.390625 -0.15625 -0.703125 -0.296875q-0.3125 -0.15625 -0.53125 -0.375q-0.21875 -0.21875 -0.34375 -0.515625q-0.125 -0.296875 -0.125 -0.71875q0 -0.8125 0.609375 -1.28125q0.609375 -0.46875 1.65625 -0.46875q0.53125 0 1.015625 0.09375q0.484375 0.09375 0.765625 0.203125l-0.28125 1.28125q-0.28125 -0.109375 -0.625 -0.1875q-0.328125 -0.078125 -0.75 -0.078125q-0.765625 0 -0.765625 0.4375q0 0.09375 0.03125 0.171875q0.03125 0.078125 0.125 0.15625q0.109375 0.0625 0.28125 0.15625q0.171875 0.078125 0.421875 0.171875q0.546875 0.203125 0.890625 0.390625q0.359375 0.1875 0.5625 0.421875q0.203125 0.21875 0.28125 0.5q0.09375 0.265625 0.09375 0.640625q0 0.859375 -0.65625 1.296875q-0.640625 0.4375 -1.8125 0.4375q-0.765625 0 -1.28125 -0.140625q-0.515625 -0.125 -0.71875 -0.21875l0.28125 -1.328125q0.421875 0.171875 0.859375 0.265625q0.4375 0.09375 0.875 0.09375z" fill-rule="nonzero"></path><path fill="#000000" fill-opacity="0.0" d="m6.575954 134.56099l63.086613 0l0 23.118103l-63.086613 0z" fill-rule="nonzero"></path><path fill="#594c8e" d="m18.331772 146.29753q0 0.5625 -0.125 1.0625q-0.125 0.484375 -0.4375 0.859375q-0.3125 0.359375 -0.84375 0.578125q-0.53125 0.21875 -1.359375 0.21875q-0.734375 0 -1.28125 -0.171875q-0.53125 -0.1875 -0.890625 -0.4375l0.578125 -1.328125q0.3125 0.1875 0.671875 0.328125q0.375 0.140625 0.796875 0.140625q0.625 0 0.890625 -0.296875q0.28125 -0.3125 0.28125 -1.046875l0 -4.96875l1.71875 0l0 5.0625zm2.918457 -1.25q0 0.5625 0.125 1.015625q0.140625 0.4375 0.390625 0.765625q0.265625 0.328125 0.640625 0.5q0.375 0.171875 0.859375 0.171875q0.46875 0 0.84375 -0.171875q0.390625 -0.171875 0.640625 -0.5q0.265625 -0.328125 0.40625 -0.765625q0.140625 -0.453125 0.140625 -1.015625q0 -0.5625 -0.140625 -1.015625q-0.140625 -0.46875 -0.40625 -0.78125q-0.25 -0.328125 -0.640625 -0.5q-0.375 -0.1875 -0.84375 -0.1875q-0.484375 0 -0.859375 0.1875q-0.375 0.1875 -0.640625 0.515625q-0.25 0.3125 -0.390625 0.78125q-0.125 0.453125 -0.125 1.0zm5.8125 0q0 0.796875 -0.203125 1.4375q-0.1875 0.640625 -0.546875 1.125q-0.359375 0.484375 -0.859375 0.8125q-0.5 0.3125 -1.09375 0.453125q0.0625 0.21875 0.25 0.359375q0.1875 0.140625 0.46875 0.21875q0.296875 0.09375 0.671875 0.140625q0.375 0.046875 0.8125 0.078125l-0.34375 1.25q-0.859375 -0.03125 -1.46875 -0.171875q-0.609375 -0.125 -1.046875 -0.375q-0.421875 -0.234375 -0.671875 -0.59375q-0.234375 -0.34375 -0.375 -0.8125q-0.671875 -0.09375 -1.265625 -0.375q-0.578125 -0.296875 -1.015625 -0.78125q-0.421875 -0.5 -0.671875 -1.1875q-0.234375 -0.703125 -0.234375 -1.578125q0 -0.984375 0.3125 -1.71875q0.3125 -0.75 0.828125 -1.25q0.53125 -0.515625 1.21875 -0.765625q0.6875 -0.25 1.4375 -0.25q0.78125 0 1.46875 0.25q0.703125 0.25 1.21875 0.765625q0.515625 0.5 0.8125 1.25q0.296875 0.734375 0.296875 1.71875zm5.981018 3.609375q-0.40625 0.125 -1.078125 0.21875q-0.65625 0.109375 -1.375 0.109375q-0.734375 0 -1.234375 -0.1875q-0.484375 -0.203125 -0.78125 -0.5625q-0.28125 -0.359375 -0.40625 -0.84375q-0.109375 -0.5 -0.109375 -1.09375l0 -3.21875l1.640625 0l0 3.015625q0 0.796875 0.203125 1.15625q0.203125 0.34375 0.78125 0.34375q0.171875 0 0.375 -0.015625q0.203125 -0.015625 0.34375 -0.03125l0 -4.46875l1.640625 0l0 5.578125zm1.0734711 -2.640625q0 -0.78125 0.234375 -1.359375q0.234375 -0.578125 0.609375 -0.953125q0.390625 -0.390625 0.890625 -0.578125q0.5 -0.203125 1.03125 -0.203125q1.234375 0 1.9375 0.75q0.71875 0.75 0.71875 2.21875q0 0.140625 -0.015625 0.3125q0 0.171875 -0.015625 0.296875l-3.71875 0q0.0625 0.515625 0.46875 0.8125q0.421875 0.296875 1.125 0.296875q0.453125 0 0.890625 -0.078125q0.4375 -0.09375 0.71875 -0.21875l0.21875 1.34375q-0.140625 0.0625 -0.359375 0.125q-0.21875 0.0625 -0.484375 0.109375q-0.265625 0.0625 -0.578125 0.09375q-0.3125 0.03125 -0.625 0.03125q-0.78125 0 -1.359375 -0.234375q-0.578125 -0.234375 -0.953125 -0.625q-0.375 -0.40625 -0.5625 -0.953125q-0.171875 -0.5625 -0.171875 -1.1875zm3.84375 -0.625q-0.015625 -0.21875 -0.078125 -0.40625q-0.046875 -0.203125 -0.1875 -0.359375q-0.125 -0.15625 -0.3125 -0.25q-0.1875 -0.109375 -0.484375 -0.109375q-0.265625 0 -0.46875 0.09375q-0.1875 0.09375 -0.328125 0.25q-0.125 0.15625 -0.203125 0.359375q-0.0625 0.203125 -0.109375 0.421875l2.171875 0zm6.1295624 -0.859375q-0.21875 -0.0625 -0.515625 -0.125q-0.296875 -0.0625 -0.625 -0.0625q-0.15625 0 -0.375 0.03125q-0.21875 0.03125 -0.328125 0.0625l0 4.421875l-1.640625 0l0 -5.484375q0.4375 -0.140625 1.03125 -0.28125q0.609375 -0.140625 1.34375 -0.140625q0.140625 0 0.328125 0.015625q0.1875 0.015625 0.375 0.046875q0.1875 0.03125 0.375 0.078125q0.1875 0.03125 0.3125 0.078125l-0.28125 1.359375zm6.1532288 -1.453125q-0.5 1.671875 -1.046875 3.140625q-0.53125 1.453125 -1.15625 2.828125q-0.234375 0.5 -0.46875 0.84375q-0.234375 0.34375 -0.515625 0.5625q-0.265625 0.234375 -0.609375 0.328125q-0.34375 0.109375 -0.8125 0.109375q-0.390625 0 -0.71875 -0.078125q-0.3125 -0.0625 -0.515625 -0.15625l0.28125 -1.296875q0.25 0.078125 0.4375 0.109375q0.203125 0.046875 0.421875 0.046875q0.453125 0 0.6875 -0.25q0.234375 -0.234375 0.390625 -0.640625q-0.546875 -1.109375 -1.109375 -2.46875q-0.5625 -1.375 -1.0625 -3.078125l1.734375 0q0.109375 0.421875 0.25 0.921875q0.15625 0.5 0.3125 1.015625q0.171875 0.515625 0.34375 1.0q0.171875 0.484375 0.328125 0.875q0.140625 -0.390625 0.296875 -0.875q0.15625 -0.484375 0.296875 -1.0q0.15625 -0.515625 0.296875 -1.015625q0.140625 -0.5 0.25 -0.921875l1.6875 0zm1.3290253 7.8125l-1.6875 0l3.703125 -10.640625l1.65625 0l-3.671875 10.640625zm8.297455 -4.59375q0 0.5625 -0.125 1.0625q-0.125 0.484375 -0.4375 0.859375q-0.3125 0.359375 -0.84375 0.578125q-0.53125 0.21875 -1.359375 0.21875q-0.734375 0 -1.28125 -0.171875q-0.53125 -0.1875 -0.890625 -0.4375l0.578125 -1.328125q0.3125 0.1875 0.671875 0.328125q0.375 0.140625 0.796875 0.140625q0.625 0 0.890625 -0.296875q0.28125 -0.3125 0.28125 -1.046875l0 -4.96875l1.71875 0l0 5.0625zm3.543457 1.25q0.375 0 0.609375 -0.0625q0.234375 -0.0625 0.375 -0.15625q0.140625 -0.109375 0.1875 -0.25q0.0625 -0.140625 0.0625 -0.3125q0 -0.375 -0.359375 -0.625q-0.34375 -0.25 -1.203125 -0.53125q-0.375 -0.140625 -0.75 -0.3125q-0.375 -0.171875 -0.671875 -0.421875q-0.296875 -0.265625 -0.484375 -0.625q-0.1875 -0.375 -0.1875 -0.90625q0 -0.515625 0.203125 -0.9375q0.203125 -0.4375 0.5625 -0.734375q0.359375 -0.296875 0.875 -0.453125q0.515625 -0.15625 1.171875 -0.15625q0.765625 0 1.328125 0.171875q0.5625 0.15625 0.921875 0.359375l-0.484375 1.34375q-0.328125 -0.15625 -0.71875 -0.28125q-0.390625 -0.140625 -0.9375 -0.140625q-0.609375 0 -0.890625 0.171875q-0.265625 0.171875 -0.265625 0.53125q0 0.203125 0.09375 0.359375q0.109375 0.140625 0.28125 0.25q0.1875 0.109375 0.421875 0.203125q0.234375 0.09375 0.53125 0.203125q0.59375 0.21875 1.03125 0.4375q0.4375 0.203125 0.71875 0.5q0.296875 0.28125 0.4375 0.671875q0.15625 0.375 0.15625 0.921875q0 1.078125 -0.75 1.671875q-0.75 0.578125 -2.265625 0.578125q-0.5 0 -0.90625 -0.0625q-0.40625 -0.0625 -0.71875 -0.140625q-0.3125 -0.09375 -0.546875 -0.1875q-0.21875 -0.109375 -0.375 -0.1875l0.484375 -1.375q0.34375 0.1875 0.84375 0.34375q0.5 0.140625 1.21875 0.140625z" fill-rule="nonzero"></path><path fill="#5c5299" d="m108.34605 54.1799l0 0c0 -2.8962326 2.6016846 -5.244091 5.8110275 -5.244091l0 0c3.2093353 0 5.81102 2.3478584 5.81102 5.244091l0 0c0 2.8962364 -2.6016846 5.244095 -5.81102 5.244095l0 0c-3.209343 0 -5.8110275 -2.3478584 -5.8110275 -5.244095z" fill-rule="nonzero"></path><path stroke="#5c5299" stroke-width="2.0" stroke-linejoin="round" stroke-linecap="butt" d="m108.34605 54.1799l0 0c0 -2.8962326 2.6016846 -5.244091 5.8110275 -5.244091l0 0c3.2093353 0 5.81102 2.3478584 5.81102 5.244091l0 0c0 2.8962364 -2.6016846 5.244095 -5.81102 5.244095l0 0c-3.209343 0 -5.8110275 -2.3478584 -5.8110275 -5.244095z" fill-rule="nonzero"></path><path fill="#5c5299" d="m123.644356 54.1799l0 0c0 -2.8962326 2.6016846 -5.244091 5.8110275 -5.244091l0 0c3.2093353 0 5.81102 2.3478584 5.81102 5.244091l0 0c0 2.8962364 -2.6016846 5.244095 -5.81102 5.244095l0 0c-3.209343 0 -5.8110275 -2.3478584 -5.8110275 -5.244095z" fill-rule="nonzero"></path><path stroke="#5c5299" stroke-width="2.0" stroke-linejoin="round" stroke-linecap="butt" d="m123.644356 54.1799l0 0c0 -2.8962326 2.6016846 -5.244091 5.8110275 -5.244091l0 0c3.2093353 0 5.81102 2.3478584 5.81102 5.244091l0 0c0 2.8962364 -2.6016846 5.244095 -5.81102 5.244095l0 0c-3.209343 0 -5.8110275 -2.3478584 -5.8110275 -5.244095z" fill-rule="nonzero"></path><path fill="#5c5299" d="m77.74943 54.1799l0 0c0 -2.8962326 2.6016846 -5.244091 5.81102 -5.244091l0 0c3.209343 0 5.8110275 2.3478584 5.8110275 5.244091l0 0c0 2.8962364 -2.6016846 5.244095 -5.8110275 5.244095l0 0c-3.2093353 0 -5.81102 -2.3478584 -5.81102 -5.244095z" fill-rule="nonzero"></path><path stroke="#5c5299" stroke-width="2.0" stroke-linejoin="round" stroke-linecap="butt" d="m77.74943 54.1799l0 0c0 -2.8962326 2.6016846 -5.244091 5.81102 -5.244091l0 0c3.209343 0 5.8110275 2.3478584 5.8110275 5.244091l0 0c0 2.8962364 -2.6016846 5.244095 -5.8110275 5.244095l0 0c-3.2093353 0 -5.81102 -2.3478584 -5.81102 -5.244095z" fill-rule="nonzero"></path><path fill="#5c5299" d="m93.04774 54.1799l0 0c0 -2.8962326 2.6016846 -5.244091 5.81102 -5.244091l0 0c3.209343 0 5.8110275 2.3478584 5.8110275 5.244091l0 0c0 2.8962364 -2.6016846 5.244095 -5.8110275 5.244095l0 0c-3.2093353 0 -5.81102 -2.3478584 -5.81102 -5.244095z" fill-rule="nonzero"></path><path stroke="#5c5299" stroke-width="2.0" stroke-linejoin="round" stroke-linecap="butt" d="m93.04774 54.1799l0 0c0 -2.8962326 2.6016846 -5.244091 5.81102 -5.244091l0 0c3.209343 0 5.8110275 2.3478584 5.8110275 5.244091l0 0c0 2.8962364 -2.6016846 5.244095 -5.8110275 5.244095l0 0c-3.2093353 0 -5.81102 -2.3478584 -5.81102 -5.244095z" fill-rule="nonzero"></path><path fill="#000000" fill-opacity="0.0" d="m169.5649 43.45983l63.086624 0l0 23.11811l-63.086624 0z" fill-rule="nonzero"></path><path fill="#594c8e" d="m183.47302 57.75889q-0.125 -0.390625 -0.28125 -0.8125q-0.140625 -0.421875 -0.28125 -0.84375l-2.96875 0q-0.140625 0.421875 -0.296875 0.84375q-0.140625 0.421875 -0.265625 0.8125l-1.78125 0q0.421875 -1.234375 0.8125 -2.28125q0.390625 -1.046875 0.75 -1.96875q0.375 -0.921875 0.734375 -1.75q0.359375 -0.828125 0.734375 -1.625l1.640625 0q0.375 0.796875 0.734375 1.625q0.375 0.828125 0.734375 1.75q0.375 0.921875 0.75 1.96875q0.390625 1.046875 0.828125 2.28125l-1.84375 0zm-2.0625 -5.890625q-0.046875 0.15625 -0.15625 0.453125q-0.109375 0.28125 -0.265625 0.65625q-0.140625 0.375 -0.3125 0.828125q-0.15625 0.4375 -0.34375 0.9375l2.171875 0q-0.171875 -0.5 -0.34375 -0.9375q-0.15625 -0.453125 -0.3125 -0.828125q-0.140625 -0.375 -0.25 -0.65625q-0.109375 -0.296875 -0.1875 -0.453125zm4.5269775 0.296875q0.421875 -0.109375 1.078125 -0.21875q0.671875 -0.109375 1.390625 -0.109375q0.734375 0 1.21875 0.203125q0.5 0.1875 0.78125 0.546875q0.28125 0.34375 0.40625 0.828125q0.125 0.484375 0.125 1.078125l0 3.265625l-1.640625 0l0 -3.0625q0 -0.796875 -0.21875 -1.125q-0.203125 -0.328125 -0.765625 -0.328125q-0.1875 0 -0.390625 0.015625q-0.1875 0.015625 -0.34375 0.03125l0 4.46875l-1.640625 0l0 -5.59375zm7.682846 2.515625q0 1.375 1.109375 1.375q0.25 0 0.46875 -0.0625q0.21875 -0.078125 0.375 -0.15625l0 -2.625q-0.125 -0.015625 -0.296875 -0.03125q-0.15625 -0.015625 -0.375 -0.015625q-0.640625 0 -0.96875 0.4375q-0.3125 0.421875 -0.3125 1.078125zm3.59375 2.359375q0 1.40625 -0.71875 2.09375q-0.71875 0.6875 -2.234375 0.6875q-0.53125 0 -1.0625 -0.09375q-0.515625 -0.09375 -0.96875 -0.234375l0.28125 -1.375q0.390625 0.140625 0.8125 0.234375q0.421875 0.09375 0.96875 0.09375q0.703125 0 0.984375 -0.3125q0.296875 -0.3125 0.296875 -0.796875l0 -0.203125q-0.265625 0.125 -0.546875 0.1875q-0.28125 0.046875 -0.609375 0.046875q-1.203125 0 -1.84375 -0.703125q-0.625 -0.703125 -0.625 -1.984375q0 -0.640625 0.1875 -1.15625q0.203125 -0.53125 0.578125 -0.90625q0.390625 -0.375 0.9375 -0.578125q0.546875 -0.203125 1.234375 -0.203125q0.296875 0 0.609375 0.03125q0.3125 0.03125 0.625 0.078125q0.3125 0.03125 0.59375 0.09375q0.28125 0.0625 0.5 0.125l0 4.875zm6.2673798 0.515625q-0.40625 0.125 -1.078125 0.21875q-0.65625 0.109375 -1.375 0.109375q-0.734375 0 -1.234375 -0.1875q-0.484375 -0.203125 -0.78125 -0.5625q-0.28125 -0.359375 -0.40625 -0.84375q-0.109375 -0.5 -0.109375 -1.09375l0 -3.21875l1.640625 0l0 3.015625q0 0.796875 0.203125 1.15625q0.203125 0.34375 0.78125 0.34375q0.171875 0 0.375 -0.015625q0.203125 -0.015625 0.34375 -0.03125l0 -4.46875l1.640625 0l0 5.578125zm3.651596 0.3125q-0.71875 -0.015625 -1.171875 -0.15625q-0.4375 -0.140625 -0.703125 -0.390625q-0.25 -0.265625 -0.34375 -0.625q-0.09375 -0.375 -0.09375 -0.84375l0 -6.359375l1.640625 -0.265625l0 6.296875q0 0.21875 0.03125 0.40625q0.03125 0.171875 0.125 0.296875q0.09375 0.109375 0.265625 0.1875q0.1875 0.078125 0.484375 0.09375l-0.234375 1.359375zm3.2736664 -1.25q0.234375 0 0.453125 -0.015625q0.21875 -0.015625 0.359375 -0.03125l0 -1.25q-0.09375 -0.015625 -0.296875 -0.03125q-0.203125 -0.03125 -0.359375 -0.03125q-0.234375 0 -0.4375 0.03125q-0.203125 0.03125 -0.359375 0.109375q-0.15625 0.078125 -0.25 0.203125q-0.078125 0.125 -0.078125 0.328125q0 0.390625 0.25 0.546875q0.265625 0.140625 0.71875 0.140625zm-0.140625 -4.796875q0.734375 0 1.21875 0.171875q0.484375 0.15625 0.765625 0.46875q0.296875 0.296875 0.421875 0.75q0.125 0.4375 0.125 0.96875l0 3.40625q-0.359375 0.078125 -0.984375 0.1875q-0.625 0.109375 -1.515625 0.109375q-0.5625 0 -1.03125 -0.109375q-0.453125 -0.09375 -0.78125 -0.3125q-0.328125 -0.234375 -0.5 -0.59375q-0.171875 -0.359375 -0.171875 -0.890625q0 -0.5 0.203125 -0.84375q0.203125 -0.359375 0.53125 -0.5625q0.34375 -0.21875 0.78125 -0.3125q0.453125 -0.09375 0.921875 -0.09375q0.3125 0 0.5625 0.03125q0.25 0.015625 0.40625 0.0625l0 -0.15625q0 -0.40625 -0.265625 -0.65625q-0.25 -0.265625 -0.875 -0.265625q-0.40625 0 -0.8125 0.0625q-0.40625 0.0625 -0.703125 0.171875l-0.21875 -1.328125q0.140625 -0.03125 0.359375 -0.078125q0.21875 -0.0625 0.46875 -0.09375q0.25 -0.046875 0.53125 -0.0625q0.28125 -0.03125 0.5625 -0.03125zm7.2992096 1.609375q-0.21875 -0.0625 -0.515625 -0.125q-0.296875 -0.0625 -0.625 -0.0625q-0.15625 0 -0.375 0.03125q-0.21875 0.03125 -0.328125 0.0625l0 4.421875l-1.640625 0l0 -5.484375q0.4375 -0.140625 1.03125 -0.28125q0.609375 -0.140625 1.34375 -0.140625q0.140625 0 0.328125 0.015625q0.1875 0.015625 0.375 0.046875q0.1875 0.03125 0.375 0.078125q0.1875 0.03125 0.3125 0.078125l-0.28125 1.359375zm5.2938538 1.765625q0 0.5625 -0.125 1.0625q-0.125 0.484375 -0.4375 0.859375q-0.3125 0.359375 -0.84375 0.578125q-0.53125 0.21875 -1.359375 0.21875q-0.734375 0 -1.28125 -0.171875q-0.53125 -0.1875 -0.890625 -0.4375l0.578125 -1.328125q0.3125 0.1875 0.671875 0.328125q0.375 0.140625 0.796875 0.140625q0.625 0 0.890625 -0.296875q0.28125 -0.3125 0.28125 -1.046875l0 -4.96875l1.71875 0l0 5.0625zm3.543457 1.25q0.375 0 0.609375 -0.0625q0.234375 -0.0625 0.375 -0.15625q0.140625 -0.109375 0.1875 -0.25q0.0625 -0.140625 0.0625 -0.3125q0 -0.375 -0.359375 -0.625q-0.34375 -0.25 -1.203125 -0.53125q-0.375 -0.140625 -0.75 -0.3125q-0.375 -0.171875 -0.671875 -0.421875q-0.296875 -0.265625 -0.484375 -0.625q-0.1875 -0.375 -0.1875 -0.90625q0 -0.515625 0.203125 -0.9375q0.203125 -0.4375 0.5625 -0.734375q0.359375 -0.296875 0.875 -0.453125q0.515625 -0.15625 1.171875 -0.15625q0.765625 0 1.328125 0.171875q0.5625 0.15625 0.921875 0.359375l-0.484375 1.34375q-0.328125 -0.15625 -0.71875 -0.28125q-0.390625 -0.140625 -0.9375 -0.140625q-0.609375 0 -0.890625 0.171875q-0.265625 0.171875 -0.265625 0.53125q0 0.203125 0.09375 0.359375q0.109375 0.140625 0.28125 0.25q0.1875 0.109375 0.421875 0.203125q0.234375 0.09375 0.53125 0.203125q0.59375 0.21875 1.03125 0.4375q0.4375 0.203125 0.71875 0.5q0.296875 0.28125 0.4375 0.671875q0.15625 0.375 0.15625 0.921875q0 1.078125 -0.75 1.671875q-0.75 0.578125 -2.265625 0.578125q-0.5 0 -0.90625 -0.0625q-0.40625 -0.0625 -0.71875 -0.140625q-0.3125 -0.09375 -0.546875 -0.1875q-0.21875 -0.109375 -0.375 -0.1875l0.484375 -1.375q0.34375 0.1875 0.84375 0.34375q0.5 0.140625 1.21875 0.140625z" fill-rule="nonzero"></path><path fill="#000000" fill-opacity="0.0" d="m166.04721 66.23622l66.61417 0l0 23.11811l-66.61417 0z" fill-rule="nonzero"></path><path fill="#594c8e" d="m179.00722 80.53528q-0.125 -0.390625 -0.28125 -0.8125q-0.140625 -0.421875 -0.28125 -0.84375l-2.96875 0q-0.140625 0.421875 -0.296875 0.84375q-0.140625 0.421875 -0.265625 0.8125l-1.78125 0q0.421875 -1.234375 0.8125 -2.28125q0.390625 -1.046875 0.75 -1.96875q0.375 -0.921875 0.734375 -1.75q0.359375 -0.828125 0.734375 -1.625l1.640625 0q0.375 0.796875 0.734375 1.625q0.375 0.828125 0.734375 1.75q0.375 0.921875 0.75 1.96875q0.390625 1.046875 0.828125 2.28125l-1.84375 0zm-2.0625 -5.890625q-0.046875 0.15625 -0.15625 0.453125q-0.109375 0.28125 -0.265625 0.65625q-0.140625 0.375 -0.3125 0.828125q-0.15625 0.4375 -0.34375 0.9375l2.171875 0q-0.171875 -0.5 -0.34375 -0.9375q-0.15625 -0.453125 -0.3125 -0.828125q-0.140625 -0.375 -0.25 -0.65625q-0.109375 -0.296875 -0.1875 -0.453125zm6.7144775 4.578125q0.375 0 0.609375 -0.0625q0.234375 -0.0625 0.375 -0.15625q0.140625 -0.109375 0.1875 -0.25q0.0625 -0.140625 0.0625 -0.3125q0 -0.375 -0.359375 -0.625q-0.34375 -0.25 -1.203125 -0.53125q-0.375 -0.140625 -0.75 -0.3125q-0.375 -0.171875 -0.671875 -0.421875q-0.296875 -0.265625 -0.484375 -0.625q-0.1875 -0.375 -0.1875 -0.90625q0 -0.515625 0.203125 -0.9375q0.203125 -0.4375 0.5625 -0.734375q0.359375 -0.296875 0.875 -0.453125q0.515625 -0.15625 1.171875 -0.15625q0.765625 0 1.328125 0.171875q0.5625 0.15625 0.921875 0.359375l-0.484375 1.34375q-0.328125 -0.15625 -0.71875 -0.28125q-0.390625 -0.140625 -0.9375 -0.140625q-0.609375 0 -0.890625 0.171875q-0.265625 0.171875 -0.265625 0.53125q0 0.203125 0.09375 0.359375q0.109375 0.140625 0.28125 0.25q0.1875 0.109375 0.421875 0.203125q0.234375 0.09375 0.53125 0.203125q0.59375 0.21875 1.03125 0.4375q0.4375 0.203125 0.71875 0.5q0.296875 0.28125 0.4375 0.671875q0.15625 0.375 0.15625 0.921875q0 1.078125 -0.75 1.671875q-0.75 0.578125 -2.265625 0.578125q-0.5 0 -0.90625 -0.0625q-0.40625 -0.0625 -0.71875 -0.140625q-0.3125 -0.09375 -0.546875 -0.1875q-0.21875 -0.109375 -0.375 -0.1875l0.484375 -1.375q0.34375 0.1875 0.84375 0.34375q0.5 0.140625 1.21875 0.140625zm6.420746 -6.40625q1.703125 0 2.609375 0.609375q0.921875 0.59375 0.921875 1.96875q0 1.375 -0.9375 1.984375q-0.921875 0.609375 -2.625 0.609375l-0.546875 0l0 2.546875l-1.71875 0l0 -7.515625q0.5625 -0.109375 1.1875 -0.15625q0.625 -0.046875 1.109375 -0.046875zm0.109375 1.46875q-0.1875 0 -0.375 0.015625q-0.171875 0.015625 -0.3125 0.015625l0 2.203125l0.546875 0q0.890625 0 1.328125 -0.234375q0.453125 -0.25 0.453125 -0.90625q0 -0.328125 -0.109375 -0.53125q-0.109375 -0.203125 -0.328125 -0.328125q-0.21875 -0.140625 -0.53125 -0.1875q-0.296875 -0.046875 -0.671875 -0.046875zm6.638977 3.359375q0 -0.625 0.203125 -1.171875q0.203125 -0.5625 0.578125 -0.96875q0.390625 -0.421875 0.9375 -0.65625q0.546875 -0.25 1.25 -0.25q0.46875 0 0.84375 0.078125q0.390625 0.078125 0.765625 0.234375l-0.34375 1.3125q-0.234375 -0.09375 -0.515625 -0.15625q-0.265625 -0.0625 -0.609375 -0.0625q-0.734375 0 -1.09375 0.453125q-0.34375 0.453125 -0.34375 1.1875q0 0.78125 0.328125 1.21875q0.34375 0.421875 1.171875 0.421875q0.296875 0 0.640625 -0.046875q0.34375 -0.0625 0.625 -0.1875l0.234375 1.34375q-0.28125 0.125 -0.71875 0.203125q-0.421875 0.09375 -0.9375 0.09375q-0.796875 0 -1.375 -0.234375q-0.5625 -0.234375 -0.9375 -0.640625q-0.359375 -0.421875 -0.53125 -0.96875q-0.171875 -0.5625 -0.171875 -1.203125zm7.906311 3.0q-0.71875 -0.015625 -1.171875 -0.15625q-0.4375 -0.140625 -0.703125 -0.390625q-0.25 -0.265625 -0.34375 -0.625q-0.09375 -0.375 -0.09375 -0.84375l0 -6.359375l1.640625 -0.265625l0 6.296875q0 0.21875 0.03125 0.40625q0.03125 0.171875 0.125 0.296875q0.09375 0.109375 0.265625 0.1875q0.1875 0.078125 0.484375 0.09375l-0.234375 1.359375zm3.2736664 -1.25q0.234375 0 0.453125 -0.015625q0.21875 -0.015625 0.359375 -0.03125l0 -1.25q-0.09375 -0.015625 -0.296875 -0.03125q-0.203125 -0.03125 -0.359375 -0.03125q-0.234375 0 -0.4375 0.03125q-0.203125 0.03125 -0.359375 0.109375q-0.15625 0.078125 -0.25 0.203125q-0.078125 0.125 -0.078125 0.328125q0 0.390625 0.25 0.546875q0.265625 0.140625 0.71875 0.140625zm-0.140625 -4.796875q0.734375 0 1.21875 0.171875q0.484375 0.15625 0.765625 0.46875q0.296875 0.296875 0.421875 0.75q0.125 0.4375 0.125 0.96875l0 3.40625q-0.359375 0.078125 -0.984375 0.1875q-0.625 0.109375 -1.515625 0.109375q-0.5625 0 -1.03125 -0.109375q-0.453125 -0.09375 -0.78125 -0.3125q-0.328125 -0.234375 -0.5 -0.59375q-0.171875 -0.359375 -0.171875 -0.890625q0 -0.5 0.203125 -0.84375q0.203125 -0.359375 0.53125 -0.5625q0.34375 -0.21875 0.78125 -0.3125q0.453125 -0.09375 0.921875 -0.09375q0.3125 0 0.5625 0.03125q0.25 0.015625 0.40625 0.0625l0 -0.15625q0 -0.40625 -0.265625 -0.65625q-0.25 -0.265625 -0.875 -0.265625q-0.40625 0 -0.8125 0.0625q-0.40625 0.0625 -0.703125 0.171875l-0.21875 -1.328125q0.140625 -0.03125 0.359375 -0.078125q0.21875 -0.0625 0.46875 -0.09375q0.25 -0.046875 0.53125 -0.0625q0.28125 -0.03125 0.5625 -0.03125zm5.4867096 4.765625q0.4375 0 0.625 -0.09375q0.1875 -0.09375 0.1875 -0.34375q0 -0.1875 -0.25 -0.328125q-0.234375 -0.15625 -0.71875 -0.34375q-0.390625 -0.15625 -0.703125 -0.296875q-0.3125 -0.15625 -0.53125 -0.375q-0.21875 -0.21875 -0.34375 -0.515625q-0.125 -0.296875 -0.125 -0.71875q0 -0.8125 0.609375 -1.28125q0.609375 -0.46875 1.65625 -0.46875q0.53125 0 1.015625 0.09375q0.484375 0.09375 0.765625 0.203125l-0.28125 1.28125q-0.28125 -0.109375 -0.625 -0.1875q-0.328125 -0.078125 -0.75 -0.078125q-0.765625 0 -0.765625 0.4375q0 0.09375 0.03125 0.171875q0.03125 0.078125 0.125 0.15625q0.109375 0.0625 0.28125 0.15625q0.171875 0.078125 0.421875 0.171875q0.546875 0.203125 0.890625 0.390625q0.359375 0.1875 0.5625 0.421875q0.203125 0.21875 0.28125 0.5q0.09375 0.265625 0.09375 0.640625q0 0.859375 -0.65625 1.296875q-0.640625 0.4375 -1.8125 0.4375q-0.765625 0 -1.28125 -0.140625q-0.515625 -0.125 -0.71875 -0.21875l0.28125 -1.328125q0.421875 0.171875 0.859375 0.265625q0.4375 0.09375 0.875 0.09375zm5.168335 0q0.4375 0 0.625 -0.09375q0.1875 -0.09375 0.1875 -0.34375q0 -0.1875 -0.25 -0.328125q-0.234375 -0.15625 -0.71875 -0.34375q-0.390625 -0.15625 -0.703125 -0.296875q-0.3125 -0.15625 -0.53125 -0.375q-0.21875 -0.21875 -0.34375 -0.515625q-0.125 -0.296875 -0.125 -0.71875q0 -0.8125 0.609375 -1.28125q0.609375 -0.46875 1.65625 -0.46875q0.53125 0 1.015625 0.09375q0.484375 0.09375 0.765625 0.203125l-0.28125 1.28125q-0.28125 -0.109375 -0.625 -0.1875q-0.328125 -0.078125 -0.75 -0.078125q-0.765625 0 -0.765625 0.4375q0 0.09375 0.03125 0.171875q0.03125 0.078125 0.125 0.15625q0.109375 0.0625 0.28125 0.15625q0.171875 0.078125 0.421875 0.171875q0.546875 0.203125 0.890625 0.390625q0.359375 0.1875 0.5625 0.421875q0.203125 0.21875 0.28125 0.5q0.09375 0.265625 0.09375 0.640625q0 0.859375 -0.65625 1.296875q-0.640625 0.4375 -1.8125 0.4375q-0.765625 0 -1.28125 -0.140625q-0.515625 -0.125 -0.71875 -0.21875l0.28125 -1.328125q0.421875 0.171875 0.859375 0.265625q0.4375 0.09375 0.875 0.09375zm5.137085 1.171875l-1.640625 0l0 -5.78125l1.640625 0l0 5.78125zm0.15625 -7.453125q0 0.453125 -0.296875 0.71875q-0.28125 0.25 -0.6875 0.25q-0.390625 0 -0.6875 -0.25q-0.28125 -0.265625 -0.28125 -0.71875q0 -0.453125 0.28125 -0.703125q0.296875 -0.265625 0.6875 -0.265625q0.40625 0 0.6875 0.265625q0.296875 0.25 0.296875 0.703125zm1.0171814 4.5625q0 -0.625 0.203125 -1.171875q0.203125 -0.5625 0.578125 -0.96875q0.390625 -0.421875 0.9375 -0.65625q0.546875 -0.25 1.25 -0.25q0.46875 0 0.84375 0.078125q0.390625 0.078125 0.765625 0.234375l-0.34375 1.3125q-0.234375 -0.09375 -0.515625 -0.15625q-0.265625 -0.0625 -0.609375 -0.0625q-0.734375 0 -1.09375 0.453125q-0.34375 0.453125 -0.34375 1.1875q0 0.78125 0.328125 1.21875q0.34375 0.421875 1.171875 0.421875q0.296875 0 0.640625 -0.046875q0.34375 -0.0625 0.625 -0.1875l0.234375 1.34375q-0.28125 0.125 -0.71875 0.203125q-0.421875 0.09375 -0.9375 0.09375q-0.796875 0 -1.375 -0.234375q-0.5625 -0.234375 -0.9375 -0.640625q-0.359375 -0.421875 -0.53125 -0.96875q-0.171875 -0.5625 -0.171875 -1.203125z" fill-rule="nonzero"></path><path fill="#000000" fill-opacity="0.0" d="m169.5649 89.010445l63.086624 0l0 23.11811l-63.086624 0z" fill-rule="nonzero"></path><path fill="#594c8e" d="m211.27621 95.59075q1.703125 0 2.609375 0.609375q0.921875 0.59375 0.921875 1.96875q0 1.375 -0.9375 1.984375q-0.921875 0.609375 -2.625 0.609375l-0.546875 0l0 2.546875l-1.71875 0l0 -7.515625q0.5625 -0.109375 1.1875 -0.15625q0.625 -0.046875 1.109375 -0.046875zm0.109375 1.46875q-0.1875 0 -0.375 0.015625q-0.171875 0.015625 -0.3125 0.015625l0 2.203125l0.546875 0q0.890625 0 1.328125 -0.234375q0.453125 -0.25 0.453125 -0.90625q0 -0.328125 -0.109375 -0.53125q-0.109375 -0.203125 -0.328125 -0.328125q-0.21875 -0.140625 -0.53125 -0.1875q-0.296875 -0.046875 -0.671875 -0.046875zm9.065826 -1.375l1.703125 0l0 7.625l-1.703125 0l0 -3.234375l-2.890625 0l0 3.234375l-1.71875 0l0 -7.625l1.71875 0l0 2.921875l2.890625 0l0 -2.921875zm5.509262 -0.09375q1.703125 0 2.609375 0.609375q0.921875 0.59375 0.921875 1.96875q0 1.375 -0.9375 1.984375q-0.921875 0.609375 -2.625 0.609375l-0.546875 0l0 2.546875l-1.71875 0l0 -7.515625q0.5625 -0.109375 1.1875 -0.15625q0.625 -0.046875 1.109375 -0.046875zm0.109375 1.46875q-0.1875 0 -0.375 0.015625q-0.171875 0.015625 -0.3125 0.015625l0 2.203125l0.546875 0q0.890625 0 1.328125 -0.234375q0.453125 -0.25 0.453125 -0.90625q0 -0.328125 -0.109375 -0.53125q-0.109375 -0.203125 -0.328125 -0.328125q-0.21875 -0.140625 -0.53125 -0.1875q-0.296875 -0.046875 -0.671875 -0.046875z" fill-rule="nonzero"></path><path fill="#000000" fill-opacity="0.0" d="m161.60893 111.784775l71.055115 0l0 23.118118l-71.055115 0z" fill-rule="nonzero"></path><path fill="#594c8e" d="m170.92711 126.24008q-1.859375 0 -2.84375 -1.03125q-0.96875 -1.03125 -0.96875 -2.9375q0 -0.953125 0.296875 -1.6875q0.296875 -0.75 0.8125 -1.25q0.515625 -0.515625 1.234375 -0.78125q0.71875 -0.265625 1.546875 -0.265625q0.484375 0 0.875 0.078125q0.40625 0.0625 0.703125 0.15625q0.296875 0.09375 0.484375 0.203125q0.203125 0.09375 0.296875 0.140625l-0.5 1.390625q-0.34375 -0.1875 -0.8125 -0.3125q-0.46875 -0.140625 -1.0625 -0.140625q-0.390625 0 -0.78125 0.140625q-0.375 0.125 -0.671875 0.421875q-0.28125 0.28125 -0.46875 0.75q-0.171875 0.453125 -0.171875 1.125q0 0.515625 0.109375 0.984375q0.125 0.453125 0.375 0.78125q0.265625 0.328125 0.6875 0.53125q0.421875 0.1875 1.015625 0.1875q0.375 0 0.671875 -0.046875q0.296875 -0.046875 0.515625 -0.109375q0.234375 -0.0625 0.40625 -0.140625q0.1875 -0.078125 0.328125 -0.140625l0.46875 1.375q-0.359375 0.21875 -1.03125 0.40625q-0.65625 0.171875 -1.515625 0.171875zm8.733444 -3.0625q0 0.6875 -0.203125 1.25q-0.203125 0.5625 -0.578125 0.96875q-0.375 0.40625 -0.890625 0.625q-0.515625 0.21875 -1.171875 0.21875q-0.640625 0 -1.171875 -0.21875q-0.515625 -0.21875 -0.890625 -0.625q-0.375 -0.40625 -0.578125 -0.96875q-0.203125 -0.5625 -0.203125 -1.25q0 -0.6875 0.203125 -1.234375q0.21875 -0.5625 0.59375 -0.953125q0.390625 -0.40625 0.90625 -0.625q0.53125 -0.21875 1.140625 -0.21875q0.625 0 1.140625 0.21875q0.53125 0.21875 0.90625 0.625q0.375 0.390625 0.578125 0.953125q0.21875 0.546875 0.21875 1.234375zm-1.671875 0q0 -0.75 -0.3125 -1.1875q-0.296875 -0.4375 -0.859375 -0.4375q-0.5625 0 -0.875 0.4375q-0.296875 0.4375 -0.296875 1.1875q0 0.765625 0.296875 1.21875q0.3125 0.4375 0.875 0.4375q0.5625 0 0.859375 -0.4375q0.3125 -0.453125 0.3125 -1.21875zm4.1246643 -0.03125q0 0.765625 0.328125 1.234375q0.34375 0.453125 1.015625 0.453125q0.21875 0 0.40625 -0.015625q0.1875 -0.015625 0.3125 -0.046875l0 -2.984375q-0.15625 -0.09375 -0.40625 -0.15625q-0.234375 -0.0625 -0.5 -0.0625q-1.15625 0 -1.15625 1.578125zm3.703125 2.75q-0.21875 0.0625 -0.515625 0.125q-0.28125 0.0625 -0.59375 0.109375q-0.3125 0.046875 -0.640625 0.0625q-0.3125 0.03125 -0.609375 0.03125q-0.71875 0 -1.28125 -0.203125q-0.5625 -0.21875 -0.953125 -0.609375q-0.375 -0.390625 -0.578125 -0.9375q-0.203125 -0.5625 -0.203125 -1.25q0 -0.703125 0.171875 -1.265625q0.171875 -0.578125 0.5 -0.96875q0.328125 -0.390625 0.8125 -0.59375q0.484375 -0.21875 1.09375 -0.21875q0.34375 0 0.609375 0.0625q0.265625 0.0625 0.546875 0.1875l0 -2.609375l1.640625 -0.265625l0 8.34375zm1.0614471 -2.65625q0 -0.78125 0.234375 -1.359375q0.234375 -0.578125 0.609375 -0.953125q0.390625 -0.390625 0.890625 -0.578125q0.5 -0.203125 1.03125 -0.203125q1.234375 0 1.9375 0.75q0.71875 0.75 0.71875 2.21875q0 0.140625 -0.015625 0.3125q0 0.171875 -0.015625 0.296875l-3.71875 0q0.0625 0.515625 0.46875 0.8125q0.421875 0.296875 1.125 0.296875q0.453125 0 0.890625 -0.078125q0.4375 -0.09375 0.71875 -0.21875l0.21875 1.34375q-0.140625 0.0625 -0.359375 0.125q-0.21875 0.0625 -0.484375 0.109375q-0.265625 0.0625 -0.578125 0.09375q-0.3125 0.03125 -0.625 0.03125q-0.78125 0 -1.359375 -0.234375q-0.578125 -0.234375 -0.953125 -0.625q-0.375 -0.40625 -0.5625 -0.953125q-0.171875 -0.5625 -0.171875 -1.1875zm3.84375 -0.625q-0.015625 -0.21875 -0.078125 -0.40625q-0.046875 -0.203125 -0.1875 -0.359375q-0.125 -0.15625 -0.3125 -0.25q-0.1875 -0.109375 -0.484375 -0.109375q-0.265625 0 -0.46875 0.09375q-0.1875 0.09375 -0.328125 0.25q-0.125 0.15625 -0.203125 0.359375q-0.0625 0.203125 -0.109375 0.421875l2.171875 0zm5.312088 -4.15625l1.71875 0l0 7.625l-1.71875 0l0 -7.625zm4.6642914 4.546875q0 1.375 1.109375 1.375q0.25 0 0.46875 -0.0625q0.21875 -0.078125 0.375 -0.15625l0 -2.625q-0.125 -0.015625 -0.296875 -0.03125q-0.15625 -0.015625 -0.375 -0.015625q-0.640625 0 -0.96875 0.4375q-0.3125 0.421875 -0.3125 1.078125zm3.59375 2.359375q0 1.40625 -0.71875 2.09375q-0.71875 0.6875 -2.234375 0.6875q-0.53125 0 -1.0625 -0.09375q-0.515625 -0.09375 -0.96875 -0.234375l0.28125 -1.375q0.390625 0.140625 0.8125 0.234375q0.421875 0.09375 0.96875 0.09375q0.703125 0 0.984375 -0.3125q0.296875 -0.3125 0.296875 -0.796875l0 -0.203125q-0.265625 0.125 -0.546875 0.1875q-0.28125 0.046875 -0.609375 0.046875q-1.203125 0 -1.84375 -0.703125q-0.625 -0.703125 -0.625 -1.984375q0 -0.640625 0.1875 -1.15625q0.203125 -0.53125 0.578125 -0.90625q0.390625 -0.375 0.9375 -0.578125q0.546875 -0.203125 1.234375 -0.203125q0.296875 0 0.609375 0.03125q0.3125 0.03125 0.625 0.078125q0.3125 0.03125 0.59375 0.09375q0.28125 0.0625 0.5 0.125l0 4.875zm1.3298798 -4.875q0.421875 -0.109375 1.078125 -0.21875q0.671875 -0.109375 1.390625 -0.109375q0.734375 0 1.21875 0.203125q0.5 0.1875 0.78125 0.546875q0.28125 0.34375 0.40625 0.828125q0.125 0.484375 0.125 1.078125l0 3.265625l-1.640625 0l0 -3.0625q0 -0.796875 -0.21875 -1.125q-0.203125 -0.328125 -0.765625 -0.328125q-0.1875 0 -0.390625 0.015625q-0.1875 0.015625 -0.34375 0.03125l0 4.46875l-1.640625 0l0 -5.59375zm7.917221 5.59375l-1.640625 0l0 -5.78125l1.640625 0l0 5.78125zm0.15625 -7.453125q0 0.453125 -0.296875 0.71875q-0.28125 0.25 -0.6875 0.25q-0.390625 0 -0.6875 -0.25q-0.28125 -0.265625 -0.28125 -0.71875q0 -0.453125 0.28125 -0.703125q0.296875 -0.265625 0.6875 -0.265625q0.40625 0 0.6875 0.265625q0.296875 0.25 0.296875 0.703125zm1.2359314 0.21875l1.640625 -0.25l0 1.703125l1.96875 0l0 1.359375l-1.96875 0l0 2.03125q0 0.515625 0.171875 0.828125q0.1875 0.3125 0.734375 0.3125q0.265625 0 0.546875 -0.046875q0.28125 -0.0625 0.515625 -0.140625l0.21875 1.265625q-0.296875 0.125 -0.65625 0.203125q-0.359375 0.09375 -0.890625 0.09375q-0.671875 0 -1.109375 -0.171875q-0.4375 -0.1875 -0.703125 -0.5q-0.265625 -0.328125 -0.375 -0.78125q-0.09375 -0.46875 -0.09375 -1.03125l0 -4.875zm4.51268 4.390625q0 -0.78125 0.234375 -1.359375q0.234375 -0.578125 0.609375 -0.953125q0.390625 -0.390625 0.890625 -0.578125q0.5 -0.203125 1.03125 -0.203125q1.234375 0 1.9375 0.75q0.71875 0.75 0.71875 2.21875q0 0.140625 -0.015625 0.3125q0 0.171875 -0.015625 0.296875l-3.71875 0q0.0625 0.515625 0.46875 0.8125q0.421875 0.296875 1.125 0.296875q0.453125 0 0.890625 -0.078125q0.4375 -0.09375 0.71875 -0.21875l0.21875 1.34375q-0.140625 0.0625 -0.359375 0.125q-0.21875 0.0625 -0.484375 0.109375q-0.265625 0.0625 -0.578125 0.09375q-0.3125 0.03125 -0.625 0.03125q-0.78125 0 -1.359375 -0.234375q-0.578125 -0.234375 -0.953125 -0.625q-0.375 -0.40625 -0.5625 -0.953125q-0.171875 -0.5625 -0.171875 -1.1875zm3.84375 -0.625q-0.015625 -0.21875 -0.078125 -0.40625q-0.046875 -0.203125 -0.1875 -0.359375q-0.125 -0.15625 -0.3125 -0.25q-0.1875 -0.109375 -0.484375 -0.109375q-0.265625 0 -0.46875 0.09375q-0.1875 0.09375 -0.328125 0.25q-0.125 0.15625 -0.203125 0.359375q-0.0625 0.203125 -0.109375 0.421875l2.171875 0zm6.1295624 -0.859375q-0.21875 -0.0625 -0.515625 -0.125q-0.296875 -0.0625 -0.625 -0.0625q-0.15625 0 -0.375 0.03125q-0.21875 0.03125 -0.328125 0.0625l0 4.421875l-1.640625 0l0 -5.484375q0.4375 -0.140625 1.03125 -0.28125q0.609375 -0.140625 1.34375 -0.140625q0.140625 0 0.328125 0.015625q0.1875 0.015625 0.375 0.046875q0.1875 0.03125 0.375 0.078125q0.1875 0.03125 0.3125 0.078125l-0.28125 1.359375z" fill-rule="nonzero"></path><path fill="#000000" fill-opacity="0.0" d="m169.5649 132.28946l63.086624 0l0 23.118103l-63.086624 0z" fill-rule="nonzero"></path><path fill="#594c8e" d="m185.25853 146.5885q-0.328125 -0.640625 -0.703125 -1.296875q-0.375 -0.65625 -0.875 -1.328125q-0.15625 0.1875 -0.390625 0.546875q-0.234375 0.34375 -0.484375 0.75q-0.234375 0.390625 -0.4375 0.765625q-0.203125 0.359375 -0.3125 0.5625l-1.953125 0q0.484375 -0.890625 1.125 -1.859375q0.640625 -0.984375 1.4375 -2.09375l-2.453125 -3.671875l2.078125 0l1.484375 2.375l1.453125 -2.375l1.953125 0l-2.40625 3.703125q0.921875 1.1875 1.546875 2.21875q0.625 1.015625 0.984375 1.703125l-2.046875 0zm4.833664 -7.625q0.203125 0.359375 0.453125 0.90625q0.265625 0.53125 0.546875 1.15625q0.28125 0.609375 0.546875 1.265625q0.28125 0.640625 0.515625 1.21875q0.25 -0.578125 0.515625 -1.21875q0.28125 -0.65625 0.5625 -1.265625q0.28125 -0.625 0.53125 -1.15625q0.265625 -0.546875 0.46875 -0.90625l1.5625 0q0.109375 0.765625 0.203125 1.703125q0.09375 0.9375 0.15625 1.953125q0.078125 1.015625 0.125 2.046875q0.0625 1.015625 0.109375 1.921875l-1.671875 0q-0.03125 -1.109375 -0.09375 -2.421875q-0.046875 -1.3125 -0.15625 -2.640625q-0.203125 0.46875 -0.453125 1.03125q-0.234375 0.5625 -0.46875 1.125q-0.234375 0.546875 -0.453125 1.0625q-0.21875 0.515625 -0.375 0.875l-1.203125 0q-0.140625 -0.359375 -0.375 -0.875q-0.21875 -0.515625 -0.453125 -1.0625q-0.234375 -0.5625 -0.484375 -1.125q-0.234375 -0.5625 -0.4375 -1.03125q-0.109375 1.328125 -0.171875 2.640625q-0.046875 1.3125 -0.078125 2.421875l-1.671875 0q0.046875 -0.90625 0.109375 -1.921875q0.0625 -1.03125 0.125 -2.046875q0.078125 -1.015625 0.171875 -1.953125q0.09375 -0.9375 0.203125 -1.703125l1.640625 0zm12.621246 6.15625l0 1.46875l-5.09375 0l0 -7.625l1.71875 0l0 6.15625l3.375 0zm1.437027 3.5l-1.6875 0l3.703125 -10.640625l1.65625 0l-3.671875 10.640625zm5.84433 -3.421875q0.125 0 0.28125 0.015625q0.15625 0 0.375 0q1.296875 0 1.90625 -0.640625q0.625 -0.65625 0.625 -1.796875q0 -1.203125 -0.59375 -1.8125q-0.59375 -0.625 -1.875 -0.625q-0.171875 0 -0.359375 0.015625q-0.1875 0 -0.359375 0.015625l0 4.828125zm4.96875 -2.421875q0 0.984375 -0.3125 1.71875q-0.3125 0.734375 -0.875 1.21875q-0.5625 0.484375 -1.375 0.734375q-0.8125 0.234375 -1.828125 0.234375q-0.46875 0 -1.09375 -0.046875q-0.609375 -0.03125 -1.203125 -0.140625l0 -7.4375q0.59375 -0.109375 1.234375 -0.140625q0.65625 -0.046875 1.109375 -0.046875q0.984375 0 1.78125 0.234375q0.796875 0.21875 1.359375 0.6875q0.578125 0.46875 0.890625 1.21875q0.3125 0.734375 0.3125 1.765625zm6.8224792 -3.8125l0 1.46875l-2.296875 0l0 6.15625l-1.71875 0l0 -6.15625l-2.296875 0l0 -1.46875l6.3125 0zm2.6054993 6.234375q0.125 0 0.28125 0.015625q0.15625 0 0.375 0q1.296875 0 1.90625 -0.640625q0.625 -0.65625 0.625 -1.796875q0 -1.203125 -0.59375 -1.8125q-0.59375 -0.625 -1.875 -0.625q-0.171875 0 -0.359375 0.015625q-0.1875 0 -0.359375 0.015625l0 4.828125zm4.96875 -2.421875q0 0.984375 -0.3125 1.71875q-0.3125 0.734375 -0.875 1.21875q-0.5625 0.484375 -1.375 0.734375q-0.8125 0.234375 -1.828125 0.234375q-0.46875 0 -1.09375 -0.046875q-0.609375 -0.03125 -1.203125 -0.140625l0 -7.4375q0.59375 -0.109375 1.234375 -0.140625q0.65625 -0.046875 1.109375 -0.046875q0.984375 0 1.78125 0.234375q0.796875 0.21875 1.359375 0.6875q0.578125 0.46875 0.890625 1.21875q0.3125 0.734375 0.3125 1.765625z" fill-rule="nonzero"></path><path fill="#5c5299" d="m138.94267 54.1799l0 0c0 -2.8962326 2.6016846 -5.244091 5.81102 -5.244091l0 0c3.2093353 0 5.81102 2.3478584 5.81102 5.244091l0 0c0 2.8962364 -2.6016846 5.244095 -5.81102 5.244095l0 0c-3.2093353 0 -5.81102 -2.3478584 -5.81102 -5.244095z" fill-rule="nonzero"></path><path stroke="#5c5299" stroke-width="2.0" stroke-linejoin="round" stroke-linecap="butt" d="m138.94267 54.1799l0 0c0 -2.8962326 2.6016846 -5.244091 5.81102 -5.244091l0 0c3.2093353 0 5.81102 2.3478584 5.81102 5.244091l0 0c0 2.8962364 -2.6016846 5.244095 -5.81102 5.244095l0 0c-3.2093353 0 -5.81102 -2.3478584 -5.81102 -5.244095z" fill-rule="nonzero"></path><path fill="#000000" fill-opacity="0.0" d="m108.344734 77.794075l0 0c0 -2.8962326 2.6016846 -5.244095 5.8110275 -5.244095l0 0c3.2093353 0 5.81102 2.3478622 5.81102 5.244095l0 0c0 2.8962326 -2.6016846 5.244095 -5.81102 5.244095l0 0c-3.209343 0 -5.8110275 -2.3478622 -5.8110275 -5.244095z" fill-rule="nonzero"></path><path stroke="#5c5299" stroke-width="2.0" stroke-linejoin="round" stroke-linecap="butt" d="m108.344734 77.794075l0 0c0 -2.8962326 2.6016846 -5.244095 5.8110275 -5.244095l0 0c3.2093353 0 5.81102 2.3478622 5.81102 5.244095l0 0c0 2.8962326 -2.6016846 5.244095 -5.81102 5.244095l0 0c-3.209343 0 -5.8110275 -2.3478622 -5.8110275 -5.244095z" fill-rule="nonzero"></path><path fill="#000000" fill-opacity="0.0" d="m123.64304 77.794075l0 0c0 -2.8962326 2.6016846 -5.244095 5.8110275 -5.244095l0 0c3.2093353 0 5.81102 2.3478622 5.81102 5.244095l0 0c0 2.8962326 -2.6016846 5.244095 -5.81102 5.244095l0 0c-3.209343 0 -5.8110275 -2.3478622 -5.8110275 -5.244095z" fill-rule="nonzero"></path><path stroke="#5c5299" stroke-width="2.0" stroke-linejoin="round" stroke-linecap="butt" d="m123.64304 77.794075l0 0c0 -2.8962326 2.6016846 -5.244095 5.8110275 -5.244095l0 0c3.2093353 0 5.81102 2.3478622 5.81102 5.244095l0 0c0 2.8962326 -2.6016846 5.244095 -5.81102 5.244095l0 0c-3.209343 0 -5.8110275 -2.3478622 -5.8110275 -5.244095z" fill-rule="nonzero"></path><path fill="#5c5299" d="m77.748116 77.794075l0 0c0 -2.8962326 2.6016846 -5.244095 5.81102 -5.244095l0 0c3.209343 0 5.8110275 2.3478622 5.8110275 5.244095l0 0c0 2.8962326 -2.6016846 5.244095 -5.8110275 5.244095l0 0c-3.2093353 0 -5.81102 -2.3478622 -5.81102 -5.244095z" fill-rule="nonzero"></path><path stroke="#5c5299" stroke-width="2.0" stroke-linejoin="round" stroke-linecap="butt" d="m77.748116 77.794075l0 0c0 -2.8962326 2.6016846 -5.244095 5.81102 -5.244095l0 0c3.209343 0 5.8110275 2.3478622 5.8110275 5.244095l0 0c0 2.8962326 -2.6016846 5.244095 -5.8110275 5.244095l0 0c-3.2093353 0 -5.81102 -2.3478622 -5.81102 -5.244095z" fill-rule="nonzero"></path><path fill="#5c5299" d="m93.046425 77.794075l0 0c0 -2.8962326 2.6016846 -5.244095 5.81102 -5.244095l0 0c3.209343 0 5.8110275 2.3478622 5.8110275 5.244095l0 0c0 2.8962326 -2.6016846 5.244095 -5.8110275 5.244095l0 0c-3.2093353 0 -5.81102 -2.3478622 -5.81102 -5.244095z" fill-rule="nonzero"></path><path stroke="#5c5299" stroke-width="2.0" stroke-linejoin="round" stroke-linecap="butt" d="m93.046425 77.794075l0 0c0 -2.8962326 2.6016846 -5.244095 5.81102 -5.244095l0 0c3.209343 0 5.8110275 2.3478622 5.8110275 5.244095l0 0c0 2.8962326 -2.6016846 5.244095 -5.8110275 5.244095l0 0c-3.2093353 0 -5.81102 -2.3478622 -5.81102 -5.244095z" fill-rule="nonzero"></path><path fill="#000000" fill-opacity="0.0" d="m138.94136 77.794075l0 0c0 -2.8962326 2.6016846 -5.244095 5.81102 -5.244095l0 0c3.2093353 0 5.81102 2.3478622 5.81102 5.244095l0 0c0 2.8962326 -2.6016846 5.244095 -5.81102 5.244095l0 0c-3.2093353 0 -5.81102 -2.3478622 -5.81102 -5.244095z" fill-rule="nonzero"></path><path stroke="#5c5299" stroke-width="2.0" stroke-linejoin="round" stroke-linecap="butt" d="m138.94136 77.794075l0 0c0 -2.8962326 2.6016846 -5.244095 5.81102 -5.244095l0 0c3.2093353 0 5.81102 2.3478622 5.81102 5.244095l0 0c0 2.8962326 -2.6016846 5.244095 -5.81102 5.244095l0 0c-3.2093353 0 -5.81102 -2.3478622 -5.81102 -5.244095z" fill-rule="nonzero"></path><path fill="#5c5299" d="m108.344734 100.5631l0 0c0 -2.8962326 2.6016846 -5.244095 5.8110275 -5.244095l0 0c3.2093353 0 5.81102 2.3478622 5.81102 5.244095l0 0c0 2.8962326 -2.6016846 5.244095 -5.81102 5.244095l0 0c-3.209343 0 -5.8110275 -2.3478622 -5.8110275 -5.244095z" fill-rule="nonzero"></path><path stroke="#5c5299" stroke-width="2.0" stroke-linejoin="round" stroke-linecap="butt" d="m108.344734 100.5631l0 0c0 -2.8962326 2.6016846 -5.244095 5.8110275 -5.244095l0 0c3.2093353 0 5.81102 2.3478622 5.81102 5.244095l0 0c0 2.8962326 -2.6016846 5.244095 -5.81102 5.244095l0 0c-3.209343 0 -5.8110275 -2.3478622 -5.8110275 -5.244095z" fill-rule="nonzero"></path><path fill="#5c5299" d="m123.64304 100.5631l0 0c0 -2.8962326 2.6016846 -5.244095 5.8110275 -5.244095l0 0c3.2093353 0 5.81102 2.3478622 5.81102 5.244095l0 0c0 2.8962326 -2.6016846 5.244095 -5.81102 5.244095l0 0c-3.209343 0 -5.8110275 -2.3478622 -5.8110275 -5.244095z" fill-rule="nonzero"></path><path stroke="#5c5299" stroke-width="2.0" stroke-linejoin="round" stroke-linecap="butt" d="m123.64304 100.5631l0 0c0 -2.8962326 2.6016846 -5.244095 5.8110275 -5.244095l0 0c3.2093353 0 5.81102 2.3478622 5.81102 5.244095l0 0c0 2.8962326 -2.6016846 5.244095 -5.81102 5.244095l0 0c-3.209343 0 -5.8110275 -2.3478622 -5.8110275 -5.244095z" fill-rule="nonzero"></path><path fill="#5c5299" d="m77.748116 100.5631l0 0c0 -2.8962326 2.6016846 -5.244095 5.81102 -5.244095l0 0c3.209343 0 5.8110275 2.3478622 5.8110275 5.244095l0 0c0 2.8962326 -2.6016846 5.244095 -5.8110275 5.244095l0 0c-3.2093353 0 -5.81102 -2.3478622 -5.81102 -5.244095z" fill-rule="nonzero"></path><path stroke="#5c5299" stroke-width="2.0" stroke-linejoin="round" stroke-linecap="butt" d="m77.748116 100.5631l0 0c0 -2.8962326 2.6016846 -5.244095 5.81102 -5.244095l0 0c3.209343 0 5.8110275 2.3478622 5.8110275 5.244095l0 0c0 2.8962326 -2.6016846 5.244095 -5.8110275 5.244095l0 0c-3.2093353 0 -5.81102 -2.3478622 -5.81102 -5.244095z" fill-rule="nonzero"></path><path fill="#5c5299" d="m93.046425 100.5631l0 0c0 -2.8962326 2.6016846 -5.244095 5.81102 -5.244095l0 0c3.209343 0 5.8110275 2.3478622 5.8110275 5.244095l0 0c0 2.8962326 -2.6016846 5.244095 -5.8110275 5.244095l0 0c-3.2093353 0 -5.81102 -2.3478622 -5.81102 -5.244095z" fill-rule="nonzero"></path><path stroke="#5c5299" stroke-width="2.0" stroke-linejoin="round" stroke-linecap="butt" d="m93.046425 100.5631l0 0c0 -2.8962326 2.6016846 -5.244095 5.81102 -5.244095l0 0c3.209343 0 5.8110275 2.3478622 5.8110275 5.244095l0 0c0 2.8962326 -2.6016846 5.244095 -5.8110275 5.244095l0 0c-3.2093353 0 -5.81102 -2.3478622 -5.81102 -5.244095z" fill-rule="nonzero"></path><path fill="#000000" fill-opacity="0.0" d="m138.94136 100.5631l0 0c0 -2.8962326 2.6016846 -5.244095 5.81102 -5.244095l0 0c3.2093353 0 5.81102 2.3478622 5.81102 5.244095l0 0c0 2.8962326 -2.6016846 5.244095 -5.81102 5.244095l0 0c-3.2093353 0 -5.81102 -2.3478622 -5.81102 -5.244095z" fill-rule="nonzero"></path><path stroke="#5c5299" stroke-width="2.0" stroke-linejoin="round" stroke-linecap="butt" d="m138.94136 100.5631l0 0c0 -2.8962326 2.6016846 -5.244095 5.81102 -5.244095l0 0c3.2093353 0 5.81102 2.3478622 5.81102 5.244095l0 0c0 2.8962326 -2.6016846 5.244095 -5.81102 5.244095l0 0c-3.2093353 0 -5.81102 -2.3478622 -5.81102 -5.244095z" fill-rule="nonzero"></path><path fill="#5c5299" d="m108.344734 123.33213l0 0c0 -2.8962326 2.6016846 -5.244095 5.8110275 -5.244095l0 0c3.2093353 0 5.81102 2.3478622 5.81102 5.244095l0 0c0 2.8962402 -2.6016846 5.2441025 -5.81102 5.2441025l0 0c-3.209343 0 -5.8110275 -2.3478622 -5.8110275 -5.2441025z" fill-rule="nonzero"></path><path stroke="#5c5299" stroke-width="2.0" stroke-linejoin="round" stroke-linecap="butt" d="m108.344734 123.33213l0 0c0 -2.8962326 2.6016846 -5.244095 5.8110275 -5.244095l0 0c3.2093353 0 5.81102 2.3478622 5.81102 5.244095l0 0c0 2.8962402 -2.6016846 5.2441025 -5.81102 5.2441025l0 0c-3.209343 0 -5.8110275 -2.3478622 -5.8110275 -5.2441025z" fill-rule="nonzero"></path><path fill="#5c5299" d="m123.64304 123.33213l0 0c0 -2.8962326 2.6016846 -5.244095 5.8110275 -5.244095l0 0c3.2093353 0 5.81102 2.3478622 5.81102 5.244095l0 0c0 2.8962402 -2.6016846 5.2441025 -5.81102 5.2441025l0 0c-3.209343 0 -5.8110275 -2.3478622 -5.8110275 -5.2441025z" fill-rule="nonzero"></path><path stroke="#5c5299" stroke-width="2.0" stroke-linejoin="round" stroke-linecap="butt" d="m123.64304 123.33213l0 0c0 -2.8962326 2.6016846 -5.244095 5.8110275 -5.244095l0 0c3.2093353 0 5.81102 2.3478622 5.81102 5.244095l0 0c0 2.8962402 -2.6016846 5.2441025 -5.81102 5.2441025l0 0c-3.209343 0 -5.8110275 -2.3478622 -5.8110275 -5.2441025z" fill-rule="nonzero"></path><path fill="#5c5299" d="m77.748116 123.33213l0 0c0 -2.8962326 2.6016846 -5.244095 5.81102 -5.244095l0 0c3.209343 0 5.8110275 2.3478622 5.8110275 5.244095l0 0c0 2.8962402 -2.6016846 5.2441025 -5.8110275 5.2441025l0 0c-3.2093353 0 -5.81102 -2.3478622 -5.81102 -5.2441025z" fill-rule="nonzero"></path><path stroke="#5c5299" stroke-width="2.0" stroke-linejoin="round" stroke-linecap="butt" d="m77.748116 123.33213l0 0c0 -2.8962326 2.6016846 -5.244095 5.81102 -5.244095l0 0c3.209343 0 5.8110275 2.3478622 5.8110275 5.244095l0 0c0 2.8962402 -2.6016846 5.2441025 -5.8110275 5.2441025l0 0c-3.2093353 0 -5.81102 -2.3478622 -5.81102 -5.2441025z" fill-rule="nonzero"></path><path fill="#5c5299" d="m93.046425 123.33213l0 0c0 -2.8962326 2.6016846 -5.244095 5.81102 -5.244095l0 0c3.209343 0 5.8110275 2.3478622 5.8110275 5.244095l0 0c0 2.8962402 -2.6016846 5.2441025 -5.8110275 5.2441025l0 0c-3.2093353 0 -5.81102 -2.3478622 -5.81102 -5.2441025z" fill-rule="nonzero"></path><path stroke="#5c5299" stroke-width="2.0" stroke-linejoin="round" stroke-linecap="butt" d="m93.046425 123.33213l0 0c0 -2.8962326 2.6016846 -5.244095 5.81102 -5.244095l0 0c3.209343 0 5.8110275 2.3478622 5.8110275 5.244095l0 0c0 2.8962402 -2.6016846 5.2441025 -5.8110275 5.2441025l0 0c-3.2093353 0 -5.81102 -2.3478622 -5.81102 -5.2441025z" fill-rule="nonzero"></path><path fill="#000000" fill-opacity="0.0" d="m138.94136 123.33213l0 0c0 -2.8962326 2.6016846 -5.244095 5.81102 -5.244095l0 0c3.2093353 0 5.81102 2.3478622 5.81102 5.244095l0 0c0 2.8962402 -2.6016846 5.2441025 -5.81102 5.2441025l0 0c-3.2093353 0 -5.81102 -2.3478622 -5.81102 -5.2441025z" fill-rule="nonzero"></path><path stroke="#5c5299" stroke-width="2.0" stroke-linejoin="round" stroke-linecap="butt" d="m138.94136 123.33213l0 0c0 -2.8962326 2.6016846 -5.244095 5.81102 -5.244095l0 0c3.2093353 0 5.81102 2.3478622 5.81102 5.244095l0 0c0 2.8962402 -2.6016846 5.2441025 -5.81102 5.2441025l0 0c-3.2093353 0 -5.81102 -2.3478622 -5.81102 -5.2441025z" fill-rule="nonzero"></path><path fill="#5c5299" d="m108.344734 146.10117l0 0c0 -2.8962402 2.6016846 -5.244095 5.8110275 -5.244095l0 0c3.2093353 0 5.81102 2.3478546 5.81102 5.244095l0 0c0 2.896225 -2.6016846 5.244095 -5.81102 5.244095l0 0c-3.209343 0 -5.8110275 -2.3478699 -5.8110275 -5.244095z" fill-rule="nonzero"></path><path stroke="#5c5299" stroke-width="2.0" stroke-linejoin="round" stroke-linecap="butt" d="m108.344734 146.10117l0 0c0 -2.8962402 2.6016846 -5.244095 5.8110275 -5.244095l0 0c3.2093353 0 5.81102 2.3478546 5.81102 5.244095l0 0c0 2.896225 -2.6016846 5.244095 -5.81102 5.244095l0 0c-3.209343 0 -5.8110275 -2.3478699 -5.8110275 -5.244095z" fill-rule="nonzero"></path><path fill="#5c5299" d="m123.64304 146.10117l0 0c0 -2.8962402 2.6016846 -5.244095 5.8110275 -5.244095l0 0c3.2093353 0 5.81102 2.3478546 5.81102 5.244095l0 0c0 2.896225 -2.6016846 5.244095 -5.81102 5.244095l0 0c-3.209343 0 -5.8110275 -2.3478699 -5.8110275 -5.244095z" fill-rule="nonzero"></path><path stroke="#5c5299" stroke-width="2.0" stroke-linejoin="round" stroke-linecap="butt" d="m123.64304 146.10117l0 0c0 -2.8962402 2.6016846 -5.244095 5.8110275 -5.244095l0 0c3.2093353 0 5.81102 2.3478546 5.81102 5.244095l0 0c0 2.896225 -2.6016846 5.244095 -5.81102 5.244095l0 0c-3.209343 0 -5.8110275 -2.3478699 -5.8110275 -5.244095z" fill-rule="nonzero"></path><path fill="#5c5299" d="m77.748116 146.10117l0 0c0 -2.8962402 2.6016846 -5.244095 5.81102 -5.244095l0 0c3.209343 0 5.8110275 2.3478546 5.8110275 5.244095l0 0c0 2.896225 -2.6016846 5.244095 -5.8110275 5.244095l0 0c-3.2093353 0 -5.81102 -2.3478699 -5.81102 -5.244095z" fill-rule="nonzero"></path><path stroke="#5c5299" stroke-width="2.0" stroke-linejoin="round" stroke-linecap="butt" d="m77.748116 146.10117l0 0c0 -2.8962402 2.6016846 -5.244095 5.81102 -5.244095l0 0c3.209343 0 5.8110275 2.3478546 5.8110275 5.244095l0 0c0 2.896225 -2.6016846 5.244095 -5.8110275 5.244095l0 0c-3.2093353 0 -5.81102 -2.3478699 -5.81102 -5.244095z" fill-rule="nonzero"></path><path fill="#5c5299" d="m93.046425 146.10117l0 0c0 -2.8962402 2.6016846 -5.244095 5.81102 -5.244095l0 0c3.209343 0 5.8110275 2.3478546 5.8110275 5.244095l0 0c0 2.896225 -2.6016846 5.244095 -5.8110275 5.244095l0 0c-3.2093353 0 -5.81102 -2.3478699 -5.81102 -5.244095z" fill-rule="nonzero"></path><path stroke="#5c5299" stroke-width="2.0" stroke-linejoin="round" stroke-linecap="butt" d="m93.046425 146.10117l0 0c0 -2.8962402 2.6016846 -5.244095 5.81102 -5.244095l0 0c3.209343 0 5.8110275 2.3478546 5.8110275 5.244095l0 0c0 2.896225 -2.6016846 5.244095 -5.8110275 5.244095l0 0c-3.2093353 0 -5.81102 -2.3478699 -5.81102 -5.244095z" fill-rule="nonzero"></path><path fill="#000000" fill-opacity="0.0" d="m138.94136 146.10117l0 0c0 -2.8962402 2.6016846 -5.244095 5.81102 -5.244095l0 0c3.2093353 0 5.81102 2.3478546 5.81102 5.244095l0 0c0 2.896225 -2.6016846 5.244095 -5.81102 5.244095l0 0c-3.2093353 0 -5.81102 -2.3478699 -5.81102 -5.244095z" fill-rule="nonzero"></path><path stroke="#5c5299" stroke-width="2.0" stroke-linejoin="round" stroke-linecap="butt" d="m138.94136 146.10117l0 0c0 -2.8962402 2.6016846 -5.244095 5.81102 -5.244095l0 0c3.2093353 0 5.81102 2.3478546 5.81102 5.244095l0 0c0 2.896225 -2.6016846 5.244095 -5.81102 5.244095l0 0c-3.2093353 0 -5.81102 -2.3478699 -5.81102 -5.244095z" fill-rule="nonzero"></path><path fill="#5c5299" d="m268.2017 55.017174l0 0c0 -2.8962326 2.6016846 -5.244095 5.811035 -5.244095l0 0c3.20932 0 5.8110046 2.3478622 5.8110046 5.244095l0 0c0 2.8962326 -2.6016846 5.244095 -5.8110046 5.244095l0 0c-3.2093506 0 -5.811035 -2.3478622 -5.811035 -5.244095z" fill-rule="nonzero"></path><path stroke="#5c5299" stroke-width="2.0" stroke-linejoin="round" stroke-linecap="butt" d="m268.2017 55.017174l0 0c0 -2.8962326 2.6016846 -5.244095 5.811035 -5.244095l0 0c3.20932 0 5.8110046 2.3478622 5.8110046 5.244095l0 0c0 2.8962326 -2.6016846 5.244095 -5.8110046 5.244095l0 0c-3.2093506 0 -5.811035 -2.3478622 -5.811035 -5.244095z" fill-rule="nonzero"></path><path fill="#000000" fill-opacity="0.0" d="m283.5 55.017174l0 0c0 -2.8962326 2.6016846 -5.244095 5.811035 -5.244095l0 0c3.20932 0 5.8110046 2.3478622 5.8110046 5.244095l0 0c0 2.8962326 -2.6016846 5.244095 -5.8110046 5.244095l0 0c-3.2093506 0 -5.811035 -2.3478622 -5.811035 -5.244095z" fill-rule="nonzero"></path><path stroke="#5c5299" stroke-width="2.0" stroke-linejoin="round" stroke-linecap="butt" d="m283.5 55.017174l0 0c0 -2.8962326 2.6016846 -5.244095 5.811035 -5.244095l0 0c3.20932 0 5.8110046 2.3478622 5.8110046 5.244095l0 0c0 2.8962326 -2.6016846 5.244095 -5.8110046 5.244095l0 0c-3.2093506 0 -5.811035 -2.3478622 -5.811035 -5.244095z" fill-rule="nonzero"></path><path fill="#5c5299" d="m237.60507 55.017174l0 0c0 -2.8962326 2.6016846 -5.244095 5.81102 -5.244095l0 0c3.2093353 0 5.81102 2.3478622 5.81102 5.244095l0 0c0 2.8962326 -2.6016846 5.244095 -5.81102 5.244095l0 0c-3.2093353 0 -5.81102 -2.3478622 -5.81102 -5.244095z" fill-rule="nonzero"></path><path stroke="#5c5299" stroke-width="2.0" stroke-linejoin="round" stroke-linecap="butt" d="m237.60507 55.017174l0 0c0 -2.8962326 2.6016846 -5.244095 5.81102 -5.244095l0 0c3.2093353 0 5.81102 2.3478622 5.81102 5.244095l0 0c0 2.8962326 -2.6016846 5.244095 -5.81102 5.244095l0 0c-3.2093353 0 -5.81102 -2.3478622 -5.81102 -5.244095z" fill-rule="nonzero"></path><path fill="#5c5299" d="m252.90338 55.017174l0 0c0 -2.8962326 2.6016846 -5.244095 5.811035 -5.244095l0 0c3.20932 0 5.8110046 2.3478622 5.8110046 5.244095l0 0c0 2.8962326 -2.6016846 5.244095 -5.8110046 5.244095l0 0c-3.2093506 0 -5.811035 -2.3478622 -5.811035 -5.244095z" fill-rule="nonzero"></path><path stroke="#5c5299" stroke-width="2.0" stroke-linejoin="round" stroke-linecap="butt" d="m252.90338 55.017174l0 0c0 -2.8962326 2.6016846 -5.244095 5.811035 -5.244095l0 0c3.20932 0 5.8110046 2.3478622 5.8110046 5.244095l0 0c0 2.8962326 -2.6016846 5.244095 -5.8110046 5.244095l0 0c-3.2093506 0 -5.811035 -2.3478622 -5.811035 -5.244095z" fill-rule="nonzero"></path><path fill="#000000" fill-opacity="0.0" d="m298.7983 55.017174l0 0c0 -2.8962326 2.6016846 -5.244095 5.811035 -5.244095l0 0c3.20932 0 5.8110046 2.3478622 5.8110046 5.244095l0 0c0 2.8962326 -2.6016846 5.244095 -5.8110046 5.244095l0 0c-3.2093506 0 -5.811035 -2.3478622 -5.811035 -5.244095z" fill-rule="nonzero"></path><path stroke="#5c5299" stroke-width="2.0" stroke-linejoin="round" stroke-linecap="butt" d="m298.7983 55.017174l0 0c0 -2.8962326 2.6016846 -5.244095 5.811035 -5.244095l0 0c3.20932 0 5.8110046 2.3478622 5.8110046 5.244095l0 0c0 2.8962326 -2.6016846 5.244095 -5.8110046 5.244095l0 0c-3.2093506 0 -5.811035 -2.3478622 -5.811035 -5.244095z" fill-rule="nonzero"></path><path fill="#000000" fill-opacity="0.0" d="m268.20038 77.794075l0 0c0 -2.8962326 2.6016846 -5.244095 5.811035 -5.244095l0 0c3.20932 0 5.8110046 2.3478622 5.8110046 5.244095l0 0c0 2.8962326 -2.6016846 5.244095 -5.8110046 5.244095l0 0c-3.2093506 0 -5.811035 -2.3478622 -5.811035 -5.244095z" fill-rule="nonzero"></path><path stroke="#5c5299" stroke-width="2.0" stroke-linejoin="round" stroke-linecap="butt" d="m268.20038 77.794075l0 0c0 -2.8962326 2.6016846 -5.244095 5.811035 -5.244095l0 0c3.20932 0 5.8110046 2.3478622 5.8110046 5.244095l0 0c0 2.8962326 -2.6016846 5.244095 -5.8110046 5.244095l0 0c-3.2093506 0 -5.811035 -2.3478622 -5.811035 -5.244095z" fill-rule="nonzero"></path><path fill="#000000" fill-opacity="0.0" d="m283.4987 77.794075l0 0c0 -2.8962326 2.6016846 -5.244095 5.811035 -5.244095l0 0c3.20932 0 5.8110046 2.3478622 5.8110046 5.244095l0 0c0 2.8962326 -2.6016846 5.244095 -5.8110046 5.244095l0 0c-3.2093506 0 -5.811035 -2.3478622 -5.811035 -5.244095z" fill-rule="nonzero"></path><path stroke="#5c5299" stroke-width="2.0" stroke-linejoin="round" stroke-linecap="butt" d="m283.4987 77.794075l0 0c0 -2.8962326 2.6016846 -5.244095 5.811035 -5.244095l0 0c3.20932 0 5.8110046 2.3478622 5.8110046 5.244095l0 0c0 2.8962326 -2.6016846 5.244095 -5.8110046 5.244095l0 0c-3.2093506 0 -5.811035 -2.3478622 -5.811035 -5.244095z" fill-rule="nonzero"></path><path fill="#5c5299" d="m237.60376 77.794075l0 0c0 -2.8962326 2.6016846 -5.244095 5.81102 -5.244095l0 0c3.2093353 0 5.81102 2.3478622 5.81102 5.244095l0 0c0 2.8962326 -2.6016846 5.244095 -5.81102 5.244095l0 0c-3.2093353 0 -5.81102 -2.3478622 -5.81102 -5.244095z" fill-rule="nonzero"></path><path stroke="#5c5299" stroke-width="2.0" stroke-linejoin="round" stroke-linecap="butt" d="m237.60376 77.794075l0 0c0 -2.8962326 2.6016846 -5.244095 5.81102 -5.244095l0 0c3.2093353 0 5.81102 2.3478622 5.81102 5.244095l0 0c0 2.8962326 -2.6016846 5.244095 -5.81102 5.244095l0 0c-3.2093353 0 -5.81102 -2.3478622 -5.81102 -5.244095z" fill-rule="nonzero"></path><path fill="#5c5299" d="m252.90207 77.794075l0 0c0 -2.8962326 2.6016846 -5.244095 5.811035 -5.244095l0 0c3.20932 0 5.8110046 2.3478622 5.8110046 5.244095l0 0c0 2.8962326 -2.6016846 5.244095 -5.8110046 5.244095l0 0c-3.2093506 0 -5.811035 -2.3478622 -5.811035 -5.244095z" fill-rule="nonzero"></path><path stroke="#5c5299" stroke-width="2.0" stroke-linejoin="round" stroke-linecap="butt" d="m252.90207 77.794075l0 0c0 -2.8962326 2.6016846 -5.244095 5.811035 -5.244095l0 0c3.20932 0 5.8110046 2.3478622 5.8110046 5.244095l0 0c0 2.8962326 -2.6016846 5.244095 -5.8110046 5.244095l0 0c-3.2093506 0 -5.811035 -2.3478622 -5.811035 -5.244095z" fill-rule="nonzero"></path><path fill="#000000" fill-opacity="0.0" d="m298.797 77.794075l0 0c0 -2.8962326 2.6016846 -5.244095 5.811035 -5.244095l0 0c3.20932 0 5.8110046 2.3478622 5.8110046 5.244095l0 0c0 2.8962326 -2.6016846 5.244095 -5.8110046 5.244095l0 0c-3.2093506 0 -5.811035 -2.3478622 -5.811035 -5.244095z" fill-rule="nonzero"></path><path stroke="#5c5299" stroke-width="2.0" stroke-linejoin="round" stroke-linecap="butt" d="m298.797 77.794075l0 0c0 -2.8962326 2.6016846 -5.244095 5.811035 -5.244095l0 0c3.20932 0 5.8110046 2.3478622 5.8110046 5.244095l0 0c0 2.8962326 -2.6016846 5.244095 -5.8110046 5.244095l0 0c-3.2093506 0 -5.811035 -2.3478622 -5.811035 -5.244095z" fill-rule="nonzero"></path><path fill="#5c5299" d="m268.20038 100.57098l0 0c0 -2.8962326 2.6016846 -5.244095 5.811035 -5.244095l0 0c3.20932 0 5.8110046 2.3478622 5.8110046 5.244095l0 0c0 2.8962326 -2.6016846 5.244095 -5.8110046 5.244095l0 0c-3.2093506 0 -5.811035 -2.3478622 -5.811035 -5.244095z" fill-rule="nonzero"></path><path stroke="#5c5299" stroke-width="2.0" stroke-linejoin="round" stroke-linecap="butt" d="m268.20038 100.57098l0 0c0 -2.8962326 2.6016846 -5.244095 5.811035 -5.244095l0 0c3.20932 0 5.8110046 2.3478622 5.8110046 5.244095l0 0c0 2.8962326 -2.6016846 5.244095 -5.8110046 5.244095l0 0c-3.2093506 0 -5.811035 -2.3478622 -5.811035 -5.244095z" fill-rule="nonzero"></path><path fill="#000000" fill-opacity="0.0" d="m283.4987 100.57098l0 0c0 -2.8962326 2.6016846 -5.244095 5.811035 -5.244095l0 0c3.20932 0 5.8110046 2.3478622 5.8110046 5.244095l0 0c0 2.8962326 -2.6016846 5.244095 -5.8110046 5.244095l0 0c-3.2093506 0 -5.811035 -2.3478622 -5.811035 -5.244095z" fill-rule="nonzero"></path><path stroke="#5c5299" stroke-width="2.0" stroke-linejoin="round" stroke-linecap="butt" d="m283.4987 100.57098l0 0c0 -2.8962326 2.6016846 -5.244095 5.811035 -5.244095l0 0c3.20932 0 5.8110046 2.3478622 5.8110046 5.244095l0 0c0 2.8962326 -2.6016846 5.244095 -5.8110046 5.244095l0 0c-3.2093506 0 -5.811035 -2.3478622 -5.811035 -5.244095z" fill-rule="nonzero"></path><path fill="#5c5299" d="m237.60376 100.57098l0 0c0 -2.8962326 2.6016846 -5.244095 5.81102 -5.244095l0 0c3.2093353 0 5.81102 2.3478622 5.81102 5.244095l0 0c0 2.8962326 -2.6016846 5.244095 -5.81102 5.244095l0 0c-3.2093353 0 -5.81102 -2.3478622 -5.81102 -5.244095z" fill-rule="nonzero"></path><path stroke="#5c5299" stroke-width="2.0" stroke-linejoin="round" stroke-linecap="butt" d="m237.60376 100.57098l0 0c0 -2.8962326 2.6016846 -5.244095 5.81102 -5.244095l0 0c3.2093353 0 5.81102 2.3478622 5.81102 5.244095l0 0c0 2.8962326 -2.6016846 5.244095 -5.81102 5.244095l0 0c-3.2093353 0 -5.81102 -2.3478622 -5.81102 -5.244095z" fill-rule="nonzero"></path><path fill="#5c5299" d="m252.90207 100.57098l0 0c0 -2.8962326 2.6016846 -5.244095 5.811035 -5.244095l0 0c3.20932 0 5.8110046 2.3478622 5.8110046 5.244095l0 0c0 2.8962326 -2.6016846 5.244095 -5.8110046 5.244095l0 0c-3.2093506 0 -5.811035 -2.3478622 -5.811035 -5.244095z" fill-rule="nonzero"></path><path stroke="#5c5299" stroke-width="2.0" stroke-linejoin="round" stroke-linecap="butt" d="m252.90207 100.57098l0 0c0 -2.8962326 2.6016846 -5.244095 5.811035 -5.244095l0 0c3.20932 0 5.8110046 2.3478622 5.8110046 5.244095l0 0c0 2.8962326 -2.6016846 5.244095 -5.8110046 5.244095l0 0c-3.2093506 0 -5.811035 -2.3478622 -5.811035 -5.244095z" fill-rule="nonzero"></path><path fill="#000000" fill-opacity="0.0" d="m298.797 100.57098l0 0c0 -2.8962326 2.6016846 -5.244095 5.811035 -5.244095l0 0c3.20932 0 5.8110046 2.3478622 5.8110046 5.244095l0 0c0 2.8962326 -2.6016846 5.244095 -5.8110046 5.244095l0 0c-3.2093506 0 -5.811035 -2.3478622 -5.811035 -5.244095z" fill-rule="nonzero"></path><path stroke="#5c5299" stroke-width="2.0" stroke-linejoin="round" stroke-linecap="butt" d="m298.797 100.57098l0 0c0 -2.8962326 2.6016846 -5.244095 5.811035 -5.244095l0 0c3.20932 0 5.8110046 2.3478622 5.8110046 5.244095l0 0c0 2.8962326 -2.6016846 5.244095 -5.8110046 5.244095l0 0c-3.2093506 0 -5.811035 -2.3478622 -5.811035 -5.244095z" fill-rule="nonzero"></path><path fill="#000000" fill-opacity="0.0" d="m268.20038 123.347885l0 0c0 -2.8962402 2.6016846 -5.244095 5.811035 -5.244095l0 0c3.20932 0 5.8110046 2.3478546 5.8110046 5.244095l0 0c0 2.8962326 -2.6016846 5.244095 -5.8110046 5.244095l0 0c-3.2093506 0 -5.811035 -2.3478622 -5.811035 -5.244095z" fill-rule="nonzero"></path><path stroke="#5c5299" stroke-width="2.0" stroke-linejoin="round" stroke-linecap="butt" d="m268.20038 123.347885l0 0c0 -2.8962402 2.6016846 -5.244095 5.811035 -5.244095l0 0c3.20932 0 5.8110046 2.3478546 5.8110046 5.244095l0 0c0 2.8962326 -2.6016846 5.244095 -5.8110046 5.244095l0 0c-3.2093506 0 -5.811035 -2.3478622 -5.811035 -5.244095z" fill-rule="nonzero"></path><path fill="#000000" fill-opacity="0.0" d="m283.4987 123.347885l0 0c0 -2.8962402 2.6016846 -5.244095 5.811035 -5.244095l0 0c3.20932 0 5.8110046 2.3478546 5.8110046 5.244095l0 0c0 2.8962326 -2.6016846 5.244095 -5.8110046 5.244095l0 0c-3.2093506 0 -5.811035 -2.3478622 -5.811035 -5.244095z" fill-rule="nonzero"></path><path stroke="#5c5299" stroke-width="2.0" stroke-linejoin="round" stroke-linecap="butt" d="m283.4987 123.347885l0 0c0 -2.8962402 2.6016846 -5.244095 5.811035 -5.244095l0 0c3.20932 0 5.8110046 2.3478546 5.8110046 5.244095l0 0c0 2.8962326 -2.6016846 5.244095 -5.8110046 5.244095l0 0c-3.2093506 0 -5.811035 -2.3478622 -5.811035 -5.244095z" fill-rule="nonzero"></path><path fill="#5c5299" d="m237.60376 123.347885l0 0c0 -2.8962402 2.6016846 -5.244095 5.81102 -5.244095l0 0c3.2093353 0 5.81102 2.3478546 5.81102 5.244095l0 0c0 2.8962326 -2.6016846 5.244095 -5.81102 5.244095l0 0c-3.2093353 0 -5.81102 -2.3478622 -5.81102 -5.244095z" fill-rule="nonzero"></path><path stroke="#5c5299" stroke-width="2.0" stroke-linejoin="round" stroke-linecap="butt" d="m237.60376 123.347885l0 0c0 -2.8962402 2.6016846 -5.244095 5.81102 -5.244095l0 0c3.2093353 0 5.81102 2.3478546 5.81102 5.244095l0 0c0 2.8962326 -2.6016846 5.244095 -5.81102 5.244095l0 0c-3.2093353 0 -5.81102 -2.3478622 -5.81102 -5.244095z" fill-rule="nonzero"></path><path fill="#5c5299" d="m252.90207 123.347885l0 0c0 -2.8962402 2.6016846 -5.244095 5.811035 -5.244095l0 0c3.20932 0 5.8110046 2.3478546 5.8110046 5.244095l0 0c0 2.8962326 -2.6016846 5.244095 -5.8110046 5.244095l0 0c-3.2093506 0 -5.811035 -2.3478622 -5.811035 -5.244095z" fill-rule="nonzero"></path><path stroke="#5c5299" stroke-width="2.0" stroke-linejoin="round" stroke-linecap="butt" d="m252.90207 123.347885l0 0c0 -2.8962402 2.6016846 -5.244095 5.811035 -5.244095l0 0c3.20932 0 5.8110046 2.3478546 5.8110046 5.244095l0 0c0 2.8962326 -2.6016846 5.244095 -5.8110046 5.244095l0 0c-3.2093506 0 -5.811035 -2.3478622 -5.811035 -5.244095z" fill-rule="nonzero"></path><path fill="#000000" fill-opacity="0.0" d="m298.797 123.347885l0 0c0 -2.8962402 2.6016846 -5.244095 5.811035 -5.244095l0 0c3.20932 0 5.8110046 2.3478546 5.8110046 5.244095l0 0c0 2.8962326 -2.6016846 5.244095 -5.8110046 5.244095l0 0c-3.2093506 0 -5.811035 -2.3478622 -5.811035 -5.244095z" fill-rule="nonzero"></path><path stroke="#5c5299" stroke-width="2.0" stroke-linejoin="round" stroke-linecap="butt" d="m298.797 123.347885l0 0c0 -2.8962402 2.6016846 -5.244095 5.811035 -5.244095l0 0c3.20932 0 5.8110046 2.3478546 5.8110046 5.244095l0 0c0 2.8962326 -2.6016846 5.244095 -5.8110046 5.244095l0 0c-3.2093506 0 -5.811035 -2.3478622 -5.811035 -5.244095z" fill-rule="nonzero"></path><path fill="#5c5299" d="m268.20038 143.84657l0 0c0 -2.8962402 2.6016846 -5.244095 5.811035 -5.244095l0 0c3.20932 0 5.8110046 2.3478546 5.8110046 5.244095l0 0c0 2.896225 -2.6016846 5.244095 -5.8110046 5.244095l0 0c-3.2093506 0 -5.811035 -2.3478699 -5.811035 -5.244095z" fill-rule="nonzero"></path><path stroke="#5c5299" stroke-width="2.0" stroke-linejoin="round" stroke-linecap="butt" d="m268.20038 143.84657l0 0c0 -2.8962402 2.6016846 -5.244095 5.811035 -5.244095l0 0c3.20932 0 5.8110046 2.3478546 5.8110046 5.244095l0 0c0 2.896225 -2.6016846 5.244095 -5.8110046 5.244095l0 0c-3.2093506 0 -5.811035 -2.3478699 -5.811035 -5.244095z" fill-rule="nonzero"></path><path fill="#5c5299" d="m283.4987 143.84657l0 0c0 -2.8962402 2.6016846 -5.244095 5.811035 -5.244095l0 0c3.20932 0 5.8110046 2.3478546 5.8110046 5.244095l0 0c0 2.896225 -2.6016846 5.244095 -5.8110046 5.244095l0 0c-3.2093506 0 -5.811035 -2.3478699 -5.811035 -5.244095z" fill-rule="nonzero"></path><path stroke="#5c5299" stroke-width="2.0" stroke-linejoin="round" stroke-linecap="butt" d="m283.4987 143.84657l0 0c0 -2.8962402 2.6016846 -5.244095 5.811035 -5.244095l0 0c3.20932 0 5.8110046 2.3478546 5.8110046 5.244095l0 0c0 2.896225 -2.6016846 5.244095 -5.8110046 5.244095l0 0c-3.2093506 0 -5.811035 -2.3478699 -5.811035 -5.244095z" fill-rule="nonzero"></path><path fill="#5c5299" d="m237.60376 143.84657l0 0c0 -2.8962402 2.6016846 -5.244095 5.81102 -5.244095l0 0c3.2093353 0 5.81102 2.3478546 5.81102 5.244095l0 0c0 2.896225 -2.6016846 5.244095 -5.81102 5.244095l0 0c-3.2093353 0 -5.81102 -2.3478699 -5.81102 -5.244095z" fill-rule="nonzero"></path><path stroke="#5c5299" stroke-width="2.0" stroke-linejoin="round" stroke-linecap="butt" d="m237.60376 143.84657l0 0c0 -2.8962402 2.6016846 -5.244095 5.81102 -5.244095l0 0c3.2093353 0 5.81102 2.3478546 5.81102 5.244095l0 0c0 2.896225 -2.6016846 5.244095 -5.81102 5.244095l0 0c-3.2093353 0 -5.81102 -2.3478699 -5.81102 -5.244095z" fill-rule="nonzero"></path><path fill="#5c5299" d="m252.90207 143.84657l0 0c0 -2.8962402 2.6016846 -5.244095 5.811035 -5.244095l0 0c3.20932 0 5.8110046 2.3478546 5.8110046 5.244095l0 0c0 2.896225 -2.6016846 5.244095 -5.8110046 5.244095l0 0c-3.2093506 0 -5.811035 -2.3478699 -5.811035 -5.244095z" fill-rule="nonzero"></path><path stroke="#5c5299" stroke-width="2.0" stroke-linejoin="round" stroke-linecap="butt" d="m252.90207 143.84657l0 0c0 -2.8962402 2.6016846 -5.244095 5.811035 -5.244095l0 0c3.20932 0 5.8110046 2.3478546 5.8110046 5.244095l0 0c0 2.896225 -2.6016846 5.244095 -5.8110046 5.244095l0 0c-3.2093506 0 -5.811035 -2.3478699 -5.811035 -5.244095z" fill-rule="nonzero"></path><path fill="#000000" fill-opacity="0.0" d="m298.797 143.84657l0 0c0 -2.8962402 2.6016846 -5.244095 5.811035 -5.244095l0 0c3.20932 0 5.8110046 2.3478546 5.8110046 5.244095l0 0c0 2.896225 -2.6016846 5.244095 -5.8110046 5.244095l0 0c-3.2093506 0 -5.811035 -2.3478699 -5.811035 -5.244095z" fill-rule="nonzero"></path><path stroke="#5c5299" stroke-width="2.0" stroke-linejoin="round" stroke-linecap="butt" d="m298.797 143.84657l0 0c0 -2.8962402 2.6016846 -5.244095 5.811035 -5.244095l0 0c3.20932 0 5.8110046 2.3478546 5.8110046 5.244095l0 0c0 2.896225 -2.6016846 5.244095 -5.8110046 5.244095l0 0c-3.2093506 0 -5.811035 -2.3478699 -5.811035 -5.244095z" fill-rule="nonzero"></path></g></svg>

