<?xml version="1.0" encoding="utf-8"?>
<!-- Generator: Adobe Illustrator 16.0.0, SVG Export Plug-In . SVG Version: 6.00 Build 0)  -->
<!DOCTYPE svg PUBLIC "-//W3C//DTD SVG 1.1//EN" "http://www.w3.org/Graphics/SVG/1.1/DTD/svg11.dtd">
<svg version="1.1" id="Calque_1" xmlns="http://www.w3.org/2000/svg" xmlns:xlink="http://www.w3.org/1999/xlink" x="0px" y="0px"
	 width="633px" height="452px" viewBox="0 0 633 452" enable-background="new 0 0 633 452" xml:space="preserve">
<path fill="#6851a3" fill-rule="evenodd" clip-rule="evenodd" d="M53.748,228.65c29.75-0.009,54.058,24.224,53.99,53.823
	c-0.067,29.715-24.281,53.894-53.949,53.871c-29.841-0.021-53.737-24.161-53.729-54.277C0.066,252.75,24.28,228.659,53.748,228.65z
	 M60.496,299.125c16.473-0.002,29.818-13.318,29.841-29.778c0.023-16.525-13.218-29.847-29.685-29.864
	c-16.824-0.018-29.878,13.025-29.88,29.855C30.77,285.92,43.948,299.126,60.496,299.125z"/>
<path fill="#6851a3" fill-rule="evenodd" clip-rule="evenodd" d="M107.741,54.236c0.562,28.761-23.437,53.649-52.324,54.264
	C25.777,109.131,0.533,85.55,0.058,56.787C-0.454,25.886,22.78,1.327,53.025,0.799C82.736,0.282,107.153,24.128,107.741,54.236z
	 M73.987,58.342C74.01,41.6,60.736,28.216,44.195,28.303C27.674,28.39,14.43,41.665,14.423,58.144
	C14.417,74.67,27.666,87.971,44.148,87.985C60.807,88,73.965,74.927,73.987,58.342z"/>
<path fill="#6851a3" fill-rule="evenodd" clip-rule="evenodd" d="M154.097,451.074c-29.664-0.01-53.883-23.887-53.864-53.104
	c0.02-30.461,23.741-54.405,53.86-54.367c29.859,0.038,53.748,24.011,53.725,53.916
	C207.794,427.149,183.786,451.083,154.097,451.074z M195.791,401.925c0.002-16.651-13.036-29.784-29.612-29.827
	c-16.721-0.044-30.001,13.203-29.961,29.885c0.04,16.543,13.266,29.687,29.859,29.674
	C182.706,431.645,195.789,418.554,195.791,401.925z"/>
<path fill="#6851a3" fill-rule="evenodd" clip-rule="evenodd" d="M532.737,282.403c0.01,29.872-23.946,53.929-53.711,53.938
	c-29.754,0.008-53.767-24.061-53.77-53.894c-0.002-29.826,24.018-53.807,53.886-53.797
	C508.762,228.659,532.728,252.696,532.737,282.403z M488.056,258.373c-16.417,0.017-29.822,13.408-29.854,29.825
	c-0.031,16.347,13.442,29.878,29.824,29.95c16.321,0.072,29.945-13.47,29.95-29.772
	C517.979,271.716,504.657,258.355,488.056,258.373z"/>
<path fill="#6851a3" fill-rule="evenodd" clip-rule="evenodd" d="M153.844,223.225c-29.41-0.005-53.608-23.945-53.615-53.045
	c-0.007-30.432,23.725-54.437,53.81-54.429c29.837,0.008,53.796,24.016,53.778,53.886
	C207.799,199.439,183.837,223.23,153.844,223.225z M125.403,155.509c-0.02,16.576,13.188,29.908,29.65,29.93
	c16.694,0.022,30.013-13.242,30.015-29.891c0.001-16.388-13.488-29.902-29.828-29.884
	C138.819,125.682,125.423,139.082,125.403,155.509z"/>
<path fill="#6851a3" fill-rule="evenodd" clip-rule="evenodd" d="M319.655,53.908c-0.016,30.04-24.076,53.789-54.468,53.764
	c-29.55-0.023-53.15-24.204-53.128-54.434C212.081,24.03,236.44,0.04,265.998,0.118C295.577,0.196,319.67,24.349,319.655,53.908z
	 M233.606,68.883c-0.286,16.072,13.053,29.702,29.365,30.007c16.016,0.3,30.018-12.833,30.289-28.409
	c0.304-17.432-12.39-31.059-29.139-31.282C247.208,38.975,233.908,51.912,233.606,68.883z"/>
<path fill="#6851a3" fill-rule="evenodd" clip-rule="evenodd" d="M368.439,451.882c-29.914-0.072-53.808-24.228-53.697-54.282
	c0.109-29.886,24.324-53.351,54.981-53.281c29.056,0.066,52.694,24.513,52.613,54.41
	C422.259,427.989,397.958,451.954,368.439,451.882z M393.342,383.099c0.016-16.8-13.146-30.045-29.806-29.996
	c-16.505,0.049-29.685,13.265-29.758,29.84c-0.073,16.423,13.284,29.824,29.753,29.853
	C380.098,412.824,393.327,399.646,393.342,383.099z"/>
<path fill="#6851a3" fill-rule="evenodd" clip-rule="evenodd" d="M532.737,54.777c-0.009,29.806-24.021,53.728-53.917,53.715
	c-29.562-0.012-53.566-24.112-53.563-53.777c0.003-29.832,24.005-53.895,53.778-53.917C508.765,0.777,532.745,24.882,532.737,54.777
	z M444.759,44.409c-0.04,16.677,13.298,30.158,29.814,30.134c16.451-0.024,29.813-13.378,29.858-29.84
	c0.046-16.436-13.307-29.896-29.711-29.954C458.267,14.691,444.799,28.024,444.759,44.409z"/>
<path fill="#6851a3" fill-rule="evenodd" clip-rule="evenodd" d="M369.986,224.022c-29.94,0.641-54.706-22.851-55.243-52.402
	c-0.538-29.635,22.734-54.502,51.613-55.149c30.466-0.683,55.392,22.452,55.979,51.957
	C422.939,198.755,399.748,223.384,369.986,224.022z M377.072,188.049c16.698,0.011,30.088-13.333,30.007-29.904
	c-0.081-16.401-13.514-29.674-30.003-29.645c-16.388,0.028-29.747,13.264-29.771,29.496
	C347.277,174.84,360.351,188.038,377.072,188.049z"/>
<path fill="#6851a3" fill-rule="evenodd" clip-rule="evenodd" d="M318.217,281.756c-0.004,30.028-23.945,53.798-54.172,53.782
	c-29.521-0.015-53.341-24.164-53.308-54.045c0.033-29.673,24.054-53.542,53.863-53.524
	C294.309,227.986,318.222,251.976,318.217,281.756z M225.501,282.531c-0.124,16.475,13.122,30.015,29.512,30.165
	c16.554,0.153,30.067-13.146,30.263-29.781c0.19-16.208-13.404-29.932-29.726-30.007
	C239.104,252.833,225.624,266.121,225.501,282.531z"/>
<path fill="#6851a3" fill-rule="evenodd" clip-rule="evenodd" d="M579.137,223.225c-29.868-0.011-53.786-23.934-53.781-53.793
	c0.005-29.613,24.015-53.617,53.694-53.68c29.718-0.064,53.926,23.933,53.899,53.429
	C632.924,199.415,609.205,223.236,579.137,223.225z M574.566,182.728c16.448,0.108,29.832-13.074,30.063-29.608
	c0.224-16.06-13.168-29.903-29.009-29.987c-17.102-0.091-30.598,12.658-30.777,29.074
	C544.657,169.134,557.789,182.618,574.566,182.728z"/>
<path fill="#6851a3" fill-rule="evenodd" clip-rule="evenodd" d="M579.138,451.063c-29.857-0.019-53.8-23.973-53.782-53.808
	c0.018-29.748,24.113-53.691,53.994-53.653c29.553,0.038,53.623,24.026,53.601,53.418
	C632.927,427.235,609.182,451.083,579.138,451.063z M569.068,429.047c16.472,0.094,30.011-13.192,30.122-29.559
	c0.112-16.558-13.259-30.125-29.799-30.235c-16.29-0.108-29.9,13.399-29.989,29.764
	C539.313,415.408,552.693,428.953,569.068,429.047z"/>
</svg>
