<?xml version="1.0" encoding="UTF-8" standalone="no"?>
<?xml-stylesheet type="text/css" href="/css/svg.css" charset="utf-8"?><!-- Generator: Adobe Illustrator 16.0.0, SVG Export Plug-In . SVG Version: 6.00 Build 0)  -->

<svg
   xmlns:dc="http://purl.org/dc/elements/1.1/"
   xmlns:cc="http://creativecommons.org/ns#"
   xmlns:rdf="http://www.w3.org/1999/02/22-rdf-syntax-ns#"
   xmlns:svg="http://www.w3.org/2000/svg"
   xmlns="http://www.w3.org/2000/svg"
   xmlns:xlink="http://www.w3.org/1999/xlink"
   xmlns:sodipodi="http://sodipodi.sourceforge.net/DTD/sodipodi-0.dtd"
   xmlns:inkscape="http://www.inkscape.org/namespaces/inkscape"
   version="1.1"
   id="Calque_1"
   x="0px"
   y="0px"
   viewBox="0 0 1280 748"
   enable-background="new 0 0 1280 748"
   xml:space="preserve"
   inkscape:version="0.91 r13725"
   sodipodi:docname="facto.svg"><metadata
   id="metadata112"><rdf:RDF><cc:Work
       rdf:about=""><dc:format>image/svg+xml</dc:format><dc:type
         rdf:resource="http://purl.org/dc/dcmitype/StillImage" /></cc:Work></rdf:RDF></metadata><sodipodi:namedview
   pagecolor="#ffffff"
   bordercolor="#666666"
   borderopacity="1"
   objecttolerance="10"
   gridtolerance="10"
   guidetolerance="10"
   inkscape:pageopacity="0"
   inkscape:pageshadow="2"
   inkscape:window-width="800"
   inkscape:window-height="541"
   id="namedview110"
   showgrid="false"
   inkscape:zoom="1.190625"
   inkscape:cx="858.79045"
   inkscape:cy="158.27056"
   inkscape:window-x="-8"
   inkscape:window-y="-8"
   inkscape:window-maximized="1"
   inkscape:current-layer="portable" />


<title
   id="title3">Site de Maylanie Mesnier</title>




<defs
   id="defs5">
        <!-- leftarrow -->
        <g
   id="leftarrow">
			<line
   stroke-linecap="round"
   transform="rotate(30,0,0)"
   x1="0"
   y1="0"
   x2="20"
   y2="0"
   style="stroke:#5c5299;stroke-width:7"
   id="line8" />
			<line
   stroke-linecap="round"
   transform="rotate(-30,0,0)"
   x1="0"
   y1="0"
   x2="20"
   y2="0"
   style="stroke:#5c5299;stroke-width:7"
   id="line10" />
		</g>
        <!-- right arrow -->
       <use
   id="rightarrow"
   transform="rotate(180,200,100)"
   x="0"
   y="0"
   xlink:href="#leftarrow" />

</defs>
    
    
    

<g
   id="Tableau"
   transform="matrix(1.0498659,0,0,1.0959255,-26.665519,-70.980296)">
	
		<rect
   id="Tableau_1_"
   x="150"
   y="190"
   stroke-miterlimit="10"
   width="500"
   height="240.951"
   style="fill:#fffeff;stroke:#666666;stroke-width:4;stroke-miterlimit:10" />
	<g
   id="feutre">
		<rect
   id="feutre_1_"
   x="210.50101"
   y="418.64301"
   width="55.209"
   height="9.8599997"
   style="fill:#9e9e67" />
		<rect
   id="bouchon"
   x="247.965"
   y="418.64301"
   width="23.660999"
   height="9.8599997"
   style="fill:#0000ff" />
	</g>
	<rect
   id="pose-feutre_2_"
   x="150"
   y="423"
   width="500"
   height="10.846"
   style="fill:#666666" />
	<g
   id="texte">
		<text
   transform="matrix(0.9925,-0.1219,0.1219,0.9925,223.9009,307.7612)"
   id="text20">Je cherche un contrat d'alternance !</text>




		<text
   transform="matrix(0.9925,-0.1219,0.1219,0.9925,223.9009,337.7612)"
   id="text22">(site en travaux)</text>





		<text
   id="signature"
   transform="translate(536.667,392.667)">~ Mayl' ~</text>




	</g>
</g>

<g
   id="Bureau">
	<polygon
   id="bureau"
   fill="#5096d1"
   points="1090.894,699.62 144.447,699.62 144.447,728.209 227.261,728.209 227.261,754.828    255.852,754.828 255.852,728.209 951.884,728.209 951.884,754.828 980.474,754.828 980.474,728.209 1090.894,728.209  " />
	<rect
   id="Etagère"
   x="727.103"
   y="397.938"
   fill="#5096d1"
   width="290.836"
   height="28.592" />
	<rect
   x="223.637"
   y="726.01"
   fill="#5096d1"
   width="36.159"
   height="47.323"
   id="rect28" />
<rect
   x="951.692"
   y="726.01"
   fill="#5096d1"
   width="36.156"
   height="47.323"
   id="rect30" />

</g>


<g
   id="Ordinateur"
   transform="matrix(1.0511905,0,0,1.0308841,8.7359557,99.680053)">
	<g
   id="ordi_x5F_rose"
   transform="matrix(1.2648871,0,0,1.3120041,-124.87886,-155.44128)">
		<path
   id="rect4287"
   d="m 381.461,552.018 140.174,0 c 2.437,0 4.411,1.976 4.411,4.411 l 0,1.278 c 0,2.438 -1.976,4.412 -4.411,4.412 l -140.174,0 c -2.438,0 -4.412,-1.977 -4.412,-4.412 l 0,-1.278 c 0.001,-2.437 1.976,-4.411 4.412,-4.411 z"
   inkscape:connector-curvature="0"
   style="fill:#ffaaaa" />
		<path
   id="rect4283"
   d="m 404.17,519.819 94.756,0 c 2.426,0 4.393,1.96 4.393,4.378 l 0,30.387 c 0,2.418 -1.967,4.379 -4.393,4.379 l -94.756,0 c -2.427,0 -4.393,-1.961 -4.393,-4.379 l 0,-30.387 c 0.001,-2.418 1.967,-4.378 4.393,-4.378 z"
   inkscape:connector-curvature="0"
   style="fill:#ffaaaa" />
		<path
   id="rect4254"
   d="m 305.699,497.722 276.545,0 c 2.438,0 4.411,1.977 4.411,4.411 l 0,32.846 c 0,2.438 -1.975,4.412 -4.411,4.412 l -276.545,0 c -2.437,0 -4.412,-1.976 -4.412,-4.412 l 0,-32.846 c 0.001,-2.435 1.977,-4.411 4.412,-4.411 z"
   inkscape:connector-curvature="0"
   style="fill:#ffaaaa" />
		<path
   d="m 582.244,354.84 -276.544,0 c -2.436,0 -4.411,1.961 -4.412,4.379 l 0,4.657 0,128.007 0,26.042 285.368,0 0,-26.042 0,-128.007 0,-4.657 c 0,-2.418 -1.975,-4.379 -4.412,-4.379 z"
   id="path37"
   inkscape:connector-curvature="0"
   style="fill:#2b0000" />

	</g>
	
	<g
   id="contenu_ecran"
   transform="matrix(1,0,0,1.0631381,-0.83989588,-174.06745)">
		<image
   xlink:href="/img/svg/diapo/web.svg"
   id="ecran_diapo_0"
   x="271.05899"
   y="468.901"
   height="172.23796"
   width="331.97739" />

		<g
   class="nav"
   id="g42"> 
				<use
   id="ecranGauche"
   x="290"
   y="490"
   xlink:href="#leftarrow"
   width="100%"
   height="100%" />
				<use
   id="ecranDroite"
   x="183"
   y="290"
   xlink:href="#rightarrow"
   width="100%"
   height="100%" />
		</g>
	</g>
</g>

<g
   id="portable"
   transform="matrix(1.2023299,0,0,1.2050643,-145.08967,-142.0049)">
	<g
   id="portable_x5F_neuf"
   transform="matrix(0.97606227,0,0,0.88639502,150.82651,200.67833)">
		<path
   id="rect4765"
   d="m 605.05503,376.55106 232.88697,0 c 6.35128,0 11.49999,4.42768 11.49999,9.89109 l 0,157.01172 c 0,5.46052 -5.14871,9.89013 -11.49999,9.89013 l -232.88697,0 c -6.35127,0 -11.49999,-4.42865 -11.49999,-9.89013 l 0,-157.01076 c -10e-4,-5.46437 5.1476,-9.89205 11.49999,-9.89205 z"
   inkscape:connector-curvature="0" />
		
		<g
   id="base_1_"
   transform="matrix(1.0670498,0,0,1,-57.820562,0)">
			<path
   id="base_x5F_portable"
   d="m 862.352,542.161 c 0,10.676 -14.675,19.218 -32.778,19.218 l -197.499,0 c -18.104,0 -32.778,-8.542 -32.778,-19.218 l 263.055,0 z"
   inkscape:connector-curvature="0"
   style="fill:#e3e2db" />
			<path
   id="bouton"
   d="m 750.114,542.299 c 0,4.273 -2.159,5.341 -4.824,5.341 l -29.063,0 c -2.658,0 -4.822,-1.067 -4.822,-5.341 l 38.709,0 z"
   inkscape:connector-curvature="0"
   style="fill:#bab9b6" />
		</g>
		
	</g>

	<g
   id="contenu_portable"
   transform="matrix(0.92458596,0,0,0.9143214,111.27497,64.673224)">
		<image
   xlink:href="/img/cotesud.png"
   id="ordi_portable_diapo_0"
   x="679.28137"
   y="525.43146"
   height="139.15605"
   width="249.94725" />

<rect
   id="zone_clicable"
 x="714.28137"
   y="525.43146"
   height="139.15605"
   width="179.94725"
   style="fill:rgba(1,1,1,0)" /> 
		

		<g
   class="nav"
   id="g56"> 
			<use
   id="ordiGauche"
   x="690"
   y="545"
   xlink:href="#leftarrow"
   width="100%"
   height="100%" />
			<use
   id="ordiDroite"
   x="521"
   y="345"
   xlink:href="#rightarrow"
   width="100%"
   height="100%" />
		</g>
	</g>
</g>
	
<g
   id="Ours1">
	<path
   id="bras_arriere_1_"
   fill="#CC7452"
   d="M203.451,661.534c0,0-3.273-4.657-6.825-5.433c0,0-8.355-2.921-9.509,6.3   c0,0,3.488,7.425,6.18,12.092c0,0,5.387,9.329,9.596,10.919c0,0,9.981,3.818,13.7-0.384c0,0,5.97-5.931,4.232-10.796   c0,0-4.995-5.675-9.715-7.185C206.679,665.632,203.451,661.534,203.451,661.534z" />
	<g
   id="pied_arriere">
		<path
   id="jambe_1_"
   fill="#BF6B51"
   d="M194.498,679.222c0,0,5.74,1.634,7.356,3.722c1.616,2.091,11.256,0.112,11.256,0.112    s12.144-12.402,16.753,0.079c4.609,12.481,2.458,14.946,0.772,18.289c0,0-5.932,9.497-21.56,1.524c0,0-11.75-9.111-13.956-11.313    c0,0-9.438-4.719-6.471-11.064C188.651,680.569,191.524,678.188,194.498,679.222z" />
		
			<ellipse
   id="pied_1_"
   transform="matrix(-0.1676 0.9859 -0.9859 -0.1676 943.825 588.1558)"
   fill="#EFA884"
   cx="223.61"
   cy="692.533"
   rx="13.197"
   ry="8.266" />
	</g>
	<path
   id="corps_1_"
   fill="#DD8158"
   d="M200.833,658.282c0,0,1.2,1.681,1.921,4.561c0.718,2.879,0.477,3.84,1.917,7.679   c1.44,3.841,3.12,6.479,3.599,9.358c0.48,2.879,0.96,6,0,10.799s-3.12,6.716-5.76,8.398c-2.639,1.681-22.796,3.119-23.993,3.84   c0,0-9.599,0.479-13.676,0c0,0-6.481,1.414-10.08-22.209c0,0-1.2-14.024,8.157-22.421l21.357-10.317L200.833,658.282z" />
	<g
   id="tete">
		<path
   id="oreille_2_"
   fill="#CC7452"
   d="M200.352,636.449c0,0,6.868-1.439,8.475-8.158c0,0,1.125-11.038-8.475-11.998    c0,0-7.917-0.241-6.958,10.079C193.395,626.371,193.395,633.089,200.352,636.449z" />
		<path
   fill="#FFBDFF"
   d="M197.473,627.57c0,0,0.242-2.878,3.6-4.078c0,0,4.559,0.72,2.639,5.756c0,0-3.119,2.881-4.559,3.599    L197.473,627.57z"
   id="path68" />
		<path
   id="tete_2_"
   fill="#DD8158"
   d="M178.998,663.804c0,0-15.596-4.318-18.956-8.159c0,0-9.837-22.795,7.918-34.312    c0,0,16.556-8.639,25.914,1.681c0,0,12.957,13.195,9.597,29.273C203.473,652.285,202.273,666.441,178.998,663.804z" />
		<path
   fill="#DD8158"
   d="M159.395,640.612c0,0-17.449-5.123-7.416-17.525c0,0,9.678-8.039,16.44,0.782    C168.418,623.871,161.783,627.019,159.395,640.612z"
   id="path71" />
		<path
   fill="#FFBDFF"
   d="M164.602,629.011c0,0-3.12,7.68-4.8,6.238c0,0-6.719-2.401-1.44-9.117    C158.363,626.132,164.602,622.532,164.602,629.011z"
   id="path73" />
		<path
   id="museau_1_"
   fill="#EFA884"
   d="M177.646,652.421c0,0-4.11,7.767,7.397,11.782c0,0,3.29,3.214,14.25-3.481    c0,0,7.71-5.356,3.307-10.442c0,0-4.804-5.861-15.089-2.945C187.512,647.332,180.388,649.205,177.646,652.421z" />
		
			<ellipse
   transform="matrix(-0.0682 0.9977 -0.9977 -0.0682 838.1749 504.771)"
   fill="#160B04"
   cx="183.373"
   cy="643.79"
   rx="3.188"
   ry="1.768"
   id="ellipse76" />
		<ellipse
   fill="#160B04"
   cx="197.955"
   cy="643.772"
   rx="1.439"
   ry="2.753"
   id="ellipse78" />
		<path
   fill="#160B04"
   d="M193.636,653.005l-4.559-3.119c0,0,3.719-6.114,7.439,0.278L193.636,653.005z"
   id="path80" />
	</g>
	<g
   id="pied_devant">
		<path
   id="jambe"
   fill="#DD8158"
   d="M170.599,694.039c0,0,5.229,2.877,6.335,5.277c1.105,2.398,10.944,2.64,10.944,2.64    s14.617-9.358,16.307,3.84c1.688,13.197-0.96,15.116-3.355,17.996c0,0-7.915,7.919-21.352-3.361c0,0-9.401-11.518-11.059-14.153    c0,0-8.136-6.72-3.816-12.236C164.602,694.039,167.938,692.361,170.599,694.039z" />
		
			<ellipse
   id="pied"
   transform="matrix(-0.138 0.9904 -0.9904 -0.138 929.774 616.6427)"
   fill="#EFA884"
   cx="196.549"
   cy="712.921"
   rx="13.195"
   ry="8.265" />
	</g>
	<path
   id="bras_devant_1_"
   fill="#CC7452"
   d="M173.784,679.852c0,0,2-5.968,0.28-9.692c0,0-3.046-9.472-12.22-4.602   c0,0-4.373,7.938-6.777,13.382c0,0-4.807,10.889-3.379,15.734c0,0,3.341,11.526,9.704,12.207c0,0,9.465,1.625,12.705-3.079   c0,0,1.75-8.185-0.1-13.444C172.261,685.42,173.784,679.852,173.784,679.852z" />
</g>


<g
   id="Imprimante">
	<g
   id="base_2_">
		<path
   fill="#646D65"
   d="M995.56,363.636c0,7.498-8.99,14.107-20.084,14.107H773.113c-11.094,0-20.376-6.609-20.376-14.107V311.71    c0-7.496,9.283-13.388,20.376-13.388h202.36c11.092,0,20.084,5.891,20.084,13.388v51.926H995.56z"
   id="path88" />
		<ellipse
   fill="#00CFFF"
   cx="979.682"
   cy="323.32"
   rx="3.285"
   ry="3.52"
   id="ellipse90" />
		<ellipse
   fill="#FF0037"
   cx="979.132"
   cy="333.611"
   rx="3.287"
   ry="3.521"
   id="ellipse92" />
		<ellipse
   fill="#00FF12"
   cx="970.921"
   cy="323.32"
   rx="3.284"
   ry="3.52"
   id="ellipse94" />
		<rect
   x="752.736"
   y="352.25"
   fill="#313A32"
   width="242.82"
   height="46.084"
   id="rect96" />
	</g>
	<g
   id="feuille_1_">
		
			<animateTransform
   type="translate"
   fill="remove"
   dur="2s"
   begin="Imprimante.mouseenter"
   to="0,70"
   from="-0,0"
   attributeName="transform"
   repeatCount="1"
   accumulate="none"
   restart="always"
   additive="replace"
   calcMode="linear"
   end="Imprimante.mouseleave"
   attributeType="XML">
			</animateTransform>
		<rect
   id="feuille"
   x="814.185"
   y="226.744"
   fill="#FFFFFF"
   width="121.906"
   height="151" />
		<text
   transform="matrix(1 0 0 1 820.667 345)"
   id="text100">Télécharger</text>




		<text
   transform="matrix(1 0 0 1 820.667 360)"
   id="text102">mon CV</text>






	</g>
	<g
   id="devant">
		<path
   id="cache_haut"
   fill="#646D65"
   d="M948.975,344.368c0,4.621-6.527,7.882-13.29,7.882H812.351    c-6.762,0-12.041-3.26-12.041-7.882v-32.011c0-4.622,5.279-8.153,12.041-8.153h123.334c6.763,0,13.29,3.532,13.29,8.153V344.368z" />
		<rect
   id="cache_bas"
   x="752.736"
   y="351.27"
   fill="#313A32"
   width="242.82"
   height="34.317" />
		<rect
   id="vitre"
   x="855.812"
   y="317.932"
   fill="#92EAD9"
   width="35.681"
   height="18.629" />
	</g>
</g>

<script
   xlink:href="../../js/animate.js"
   type="text/javascript"
   id="script108"> window.onload = setup(); </script>

</svg>
