<?xml version="1.0" encoding="utf-8"?>
<!-- Generator: Adobe Illustrator 12.0.0, SVG Export Plug-In  -->
<!DOCTYPE svg PUBLIC "-//W3C//DTD SVG 1.1//EN" "http://www.w3.org/Graphics/SVG/1.1/DTD/svg11.dtd" [
	<!ENTITY ns_flows "http://ns.adobe.com/Flows/1.0/">
	<!ENTITY ns_svg "http://www.w3.org/2000/svg">
	<!ENTITY ns_xlink "http://www.w3.org/1999/xlink">
]>
<svg  version="1.1" xmlns="&ns_svg;" xmlns:xlink="&ns_xlink;" xmlns:a="http://ns.adobe.com/AdobeSVGViewerExtensions/3.0/"
	 width="200" height="200" viewBox="0.5 0.5 200 200" enable-background="new 0.5 0.5 200 200" xml:space="preserve">
<defs>
</defs>
<path id="rect3076_37_" fill="#594c8e" d="M155,107.941v5h5v-5H155z M160,112.941v5h-5v5h-5v5h-5
	v15h5v-10h5v10h5v-5h25v5h5v-10h5v10h5v-15h-5v-5h-5v-5h-5v-5h-5v5h-15v-5H160z M185,112.941h5v-5h-5V112.941z M185,142.941h-10v5
	h10V142.941z M160,142.941v5h10v-5H160z M160,122.941h5v5h-5V122.941z M180,122.941h5v5h-5V122.941z"/>
<path id="rect3076_36_" fill="#594c8e" d="M62,0v5h5V0H62z M67,5v5h-5v5h-5v5h-5v15h5V25h5v10h5
	v-5h25v5h5V25h5v10h5V20h-5v-5h-5v-5h-5V5h-5v5H72V5H67z M92,5h5V0h-5V5z M92,35H82v5h10V35z M67,35v5h10v-5H67z M67,15h5v5h-5V15z
	 M87,15h5v5h-5V15z"/>
<path id="rect3076_35_" fill="#594c8e" d="M110,160v5h5v-5H110z M115,165v5h-5v5h-5v5h-5v15h5v-10
	h5v10h5v-5h25v5h5v-10h5v10h5v-15h-5v-5h-5v-5h-5v-5h-5v5h-15v-5H115z M140,165h5v-5h-5V165z M140,195h-10v5h10V195z M115,195v5h10
	v-5H115z M115,175h5v5h-5V175z M135,175h5v5h-5V175z"/>
<path id="rect3076_34_"  fill="#594c8e" d="M10,160v5h5v-5H10z M15,165v5h-5v5H5v5H0v15h5v-10h5v10
	h5v-5h25v5h5v-10h5v10h5v-15h-5v-5h-5v-5h-5v-5h-5v5H20v-5H15z M40,165h5v-5h-5V165z M40,195H30v5h10V195z M15,195v5h10v-5H15z
	 M15,175h5v5h-5V175z M35,175h5v5h-5V175z"/>
<path id="rect3076_33_"  fill="#594c8e" d="M57,107v5h5v-5H57z M62,112v5h-5v5h-5v5h-5v15h5v-10h5
	v10h5v-5h25v5h5v-10h5v10h5v-15h-5v-5h-5v-5h-5v-5h-5v5H67v-5H62z M87,112h5v-5h-5V112z M87,142H77v5h10V142z M62,142v5h10v-5H62z
	 M62,122h5v5h-5V122z M82,122h5v5h-5V122z"/>
<path id="rect3076_32_"  fill="#594c8e" d="M10,51.883v5h5v-5H10z M15,56.883v5h-5v5H5v5H0v15h5
	v-10h5v10h5v-5h25v5h5v-10h5v10h5v-15h-5v-5h-5v-5h-5v-5h-5v5H20v-5H15z M40,56.883h5v-5h-5V56.883z M40,86.883H30v5h10V86.883z
	 M15,86.883v5h10v-5H15z M15,66.883h5v5h-5V66.883z M35,66.883h5v5h-5V66.883z"/>
<path id="rect3076_31_"  fill="#594c8e" d="M106,56v5h5v-5H106z M111,61v5h-5v5h-5v5h-5v15h5V81h5
	v10h5v-5h25v5h5V81h5v10h5V76h-5v-5h-5v-5h-5v-5h-5v5h-15v-5H111z M136,61h5v-5h-5V61z M136,91h-10v5h10V91z M111,91v5h10v-5H111z
	 M111,71h5v5h-5V71z M131,71h5v5h-5V71z"/>
<path id="rect3076_30_"  fill="#594c8e" d="M155,0v5h5V0H155z M160,5v5h-5v5h-5v5h-5v15h5V25h5v10
	h5v-5h25v5h5V25h5v10h5V20h-5v-5h-5v-5h-5V5h-5v5h-15V5H160z M185,5h5V0h-5V5z M185,35h-10v5h10V35z M160,35v5h10v-5H160z M160,15h5
	v5h-5V15z M180,15h5v5h-5V15z"/>
</svg>
