<?xml version="1.0" standalone="yes"?>

<svg version="1.1" viewBox="0.0 0.0 558.0839895013123 482.6981627296588" fill="none" stroke="none" stroke-linecap="square" stroke-miterlimit="10" xmlns="http://www.w3.org/2000/svg" xmlns:xlink="http://www.w3.org/1999/xlink"><clipPath id="p.0"><path d="m0 0l558.084 0l0 482.69815l-558.084 0l0 -482.69815z" clip-rule="nonzero"></path></clipPath><g clip-path="url(#p.0)"><path fill="#000000" fill-opacity="0.0" d="m0 0l558.084 0l0 482.69815l-558.084 0z" fill-rule="nonzero"></path><path fill="#544183" d="m-0.85564303 -1.9133859l558.07874 0l0 482.70868l-558.07874 0z" fill-rule="nonzero"></path><path fill="#6851a3" d="m0 240.66142l139.13387 -240.66142l139.13387 240.66142z" fill-rule="nonzero"></path><path fill="#1c0728" d="m328.0 183.06036l47.527557 -82.20472l47.527557 82.20472z" fill-rule="nonzero"></path><path fill="#6851a3" d="m278.26773 240.66142l139.13385 -240.66142l139.13388 240.66142z" fill-rule="nonzero"></path><path fill="#6851a3" d="m138.65617 481.32285l139.13387 -240.66142l139.13385 240.66142z" fill-rule="nonzero"></path><path fill="#6851a3" d="m416.9239 481.32285l139.13385 -240.66142l139.13385 240.66142z" fill-rule="nonzero"></path><path fill="#6851a3" d="m-139.61154 481.32285l139.13385 -240.66142l139.13387 240.66142z" fill-rule="nonzero"></path></g></svg>

